<mxfile host="app.diagrams.net" agent="Mozilla/5.0 (Macintosh; Intel Mac OS X 10_15_7) AppleWebKit/537.36 (KHTML, like Gecko) Chrome/139.0.0.0 Safari/537.36" version="28.2.0">
  <diagram name="第 1 页" id="bsIPCiQx7G8n-TKHVks0">
    <mxGraphModel dx="2393" dy="2046" grid="1" gridSize="10" guides="1" tooltips="1" connect="1" arrows="1" fold="1" page="1" pageScale="1" pageWidth="827" pageHeight="1169" math="0" shadow="0">
      <root>
        <mxCell id="0" />
        <mxCell id="1" parent="0" />
        <mxCell id="g8IDcojqgnYVjRbKk0xe-28" style="edgeStyle=orthogonalEdgeStyle;rounded=0;orthogonalLoop=1;jettySize=auto;html=1;exitX=0;exitY=0.75;exitDx=0;exitDy=0;entryX=0.75;entryY=0;entryDx=0;entryDy=0;flowAnimation=1;" parent="1" source="g8IDcojqgnYVjRbKk0xe-33" target="g8IDcojqgnYVjRbKk0xe-24" edge="1">
          <mxGeometry relative="1" as="geometry" />
        </mxCell>
        <mxCell id="g8IDcojqgnYVjRbKk0xe-29" value="服务发现" style="edgeLabel;html=1;align=center;verticalAlign=middle;resizable=0;points=[];" parent="g8IDcojqgnYVjRbKk0xe-28" vertex="1" connectable="0">
          <mxGeometry x="0.1607" y="-3" relative="1" as="geometry">
            <mxPoint as="offset" />
          </mxGeometry>
        </mxCell>
        <mxCell id="P0uEnLT0tcXrdcJD_U2h-62" style="edgeStyle=orthogonalEdgeStyle;rounded=0;orthogonalLoop=1;jettySize=auto;html=1;exitX=0.25;exitY=0;exitDx=0;exitDy=0;entryX=0;entryY=0.25;entryDx=0;entryDy=0;flowAnimation=1;" parent="1" source="g8IDcojqgnYVjRbKk0xe-24" target="g8IDcojqgnYVjRbKk0xe-33" edge="1">
          <mxGeometry relative="1" as="geometry" />
        </mxCell>
        <mxCell id="P0uEnLT0tcXrdcJD_U2h-63" value="服务注册" style="edgeLabel;html=1;align=center;verticalAlign=middle;resizable=0;points=[];" parent="P0uEnLT0tcXrdcJD_U2h-62" vertex="1" connectable="0">
          <mxGeometry x="-0.2364" relative="1" as="geometry">
            <mxPoint as="offset" />
          </mxGeometry>
        </mxCell>
        <mxCell id="P0uEnLT0tcXrdcJD_U2h-84" style="edgeStyle=orthogonalEdgeStyle;rounded=0;orthogonalLoop=1;jettySize=auto;html=1;exitX=1;exitY=0.5;exitDx=0;exitDy=0;entryX=0;entryY=0.5;entryDx=0;entryDy=0;flowAnimation=1;" parent="1" source="P0uEnLT0tcXrdcJD_U2h-60" target="P0uEnLT0tcXrdcJD_U2h-79" edge="1">
          <mxGeometry relative="1" as="geometry" />
        </mxCell>
        <mxCell id="g8IDcojqgnYVjRbKk0xe-31" style="edgeStyle=orthogonalEdgeStyle;rounded=0;orthogonalLoop=1;jettySize=auto;html=1;exitX=0.25;exitY=0;exitDx=0;exitDy=0;entryX=1;entryY=0.75;entryDx=0;entryDy=0;flowAnimation=1;" parent="1" source="P0uEnLT0tcXrdcJD_U2h-60" target="g8IDcojqgnYVjRbKk0xe-33" edge="1">
          <mxGeometry relative="1" as="geometry" />
        </mxCell>
        <mxCell id="g8IDcojqgnYVjRbKk0xe-32" value="服务注册" style="edgeLabel;html=1;align=center;verticalAlign=middle;resizable=0;points=[];" parent="g8IDcojqgnYVjRbKk0xe-31" vertex="1" connectable="0">
          <mxGeometry x="-0.2755" y="-3" relative="1" as="geometry">
            <mxPoint y="-1" as="offset" />
          </mxGeometry>
        </mxCell>
        <mxCell id="Fx2AZmH5evgSTG1EavA_-33" style="edgeStyle=orthogonalEdgeStyle;rounded=1;orthogonalLoop=1;jettySize=auto;html=1;exitX=0.75;exitY=0;exitDx=0;exitDy=0;entryX=0;entryY=0.5;entryDx=0;entryDy=0;flowAnimation=1;endSize=12;startSize=12;jumpStyle=arc;sourcePerimeterSpacing=0;curved=0;" edge="1" parent="1" source="P0uEnLT0tcXrdcJD_U2h-60" target="Fx2AZmH5evgSTG1EavA_-30">
          <mxGeometry relative="1" as="geometry" />
        </mxCell>
        <mxCell id="P0uEnLT0tcXrdcJD_U2h-60" value="" style="swimlane;startSize=0;" parent="1" vertex="1">
          <mxGeometry x="350.5" y="380" width="919.5" height="650" as="geometry">
            <mxRectangle x="260" y="380" width="50" height="40" as="alternateBounds" />
          </mxGeometry>
        </mxCell>
        <mxCell id="Fx2AZmH5evgSTG1EavA_-1" value="业务服务" style="swimlane;whiteSpace=wrap;html=1;" vertex="1" parent="P0uEnLT0tcXrdcJD_U2h-60">
          <mxGeometry x="29.5" y="20" width="860" height="290" as="geometry" />
        </mxCell>
        <mxCell id="Fx2AZmH5evgSTG1EavA_-21" style="edgeStyle=orthogonalEdgeStyle;rounded=0;orthogonalLoop=1;jettySize=auto;html=1;exitX=0.25;exitY=1;exitDx=0;exitDy=0;entryX=0.25;entryY=1;entryDx=0;entryDy=0;flowAnimation=1;" edge="1" parent="Fx2AZmH5evgSTG1EavA_-1" source="Fx2AZmH5evgSTG1EavA_-3" target="Fx2AZmH5evgSTG1EavA_-9">
          <mxGeometry relative="1" as="geometry" />
        </mxCell>
        <mxCell id="Fx2AZmH5evgSTG1EavA_-3" value="集成服务" style="swimlane;whiteSpace=wrap;html=1;startSize=25;" vertex="1" parent="Fx2AZmH5evgSTG1EavA_-1">
          <mxGeometry x="20" y="50" width="160" height="200" as="geometry">
            <mxRectangle x="20" y="30" width="90" height="30" as="alternateBounds" />
          </mxGeometry>
        </mxCell>
        <mxCell id="P0uEnLT0tcXrdcJD_U2h-21" value="Integration Service" style="rounded=1;whiteSpace=wrap;html=1;fillColor=#1ba1e2;fontColor=#ffffff;strokeColor=#006EAF;" parent="Fx2AZmH5evgSTG1EavA_-3" vertex="1">
          <mxGeometry x="30" y="45" width="100" height="40" as="geometry" />
        </mxCell>
        <mxCell id="Fx2AZmH5evgSTG1EavA_-4" value="Integration Service" style="rounded=1;whiteSpace=wrap;html=1;fillColor=#1ba1e2;fontColor=#ffffff;strokeColor=#006EAF;" vertex="1" parent="Fx2AZmH5evgSTG1EavA_-3">
          <mxGeometry x="30" y="125" width="100" height="40" as="geometry" />
        </mxCell>
        <mxCell id="Fx2AZmH5evgSTG1EavA_-5" value="AI 代理服务" style="swimlane;whiteSpace=wrap;html=1;" vertex="1" parent="Fx2AZmH5evgSTG1EavA_-1">
          <mxGeometry x="230" y="50" width="160" height="200" as="geometry" />
        </mxCell>
        <mxCell id="P0uEnLT0tcXrdcJD_U2h-22" value="AI Proxy Service" style="rounded=1;whiteSpace=wrap;html=1;fillColor=#1ba1e2;fontColor=#ffffff;strokeColor=#006EAF;" parent="Fx2AZmH5evgSTG1EavA_-5" vertex="1">
          <mxGeometry x="30" y="40" width="100" height="40" as="geometry" />
        </mxCell>
        <mxCell id="Fx2AZmH5evgSTG1EavA_-8" value="AI Proxy Service" style="rounded=1;whiteSpace=wrap;html=1;fillColor=#1ba1e2;fontColor=#ffffff;strokeColor=#006EAF;" vertex="1" parent="Fx2AZmH5evgSTG1EavA_-5">
          <mxGeometry x="30" y="125" width="100" height="40" as="geometry" />
        </mxCell>
        <mxCell id="Fx2AZmH5evgSTG1EavA_-40" style="edgeStyle=orthogonalEdgeStyle;rounded=0;orthogonalLoop=1;jettySize=auto;html=1;exitX=1;exitY=0.25;exitDx=0;exitDy=0;entryX=0;entryY=0.25;entryDx=0;entryDy=0;flowAnimation=1;" edge="1" parent="Fx2AZmH5evgSTG1EavA_-1" source="Fx2AZmH5evgSTG1EavA_-9" target="Fx2AZmH5evgSTG1EavA_-13">
          <mxGeometry relative="1" as="geometry" />
        </mxCell>
        <mxCell id="Fx2AZmH5evgSTG1EavA_-42" value="Feign/Rpc" style="edgeLabel;html=1;align=center;verticalAlign=middle;resizable=0;points=[];" vertex="1" connectable="0" parent="Fx2AZmH5evgSTG1EavA_-40">
          <mxGeometry x="0.0838" y="-2" relative="1" as="geometry">
            <mxPoint x="-9" y="-12" as="offset" />
          </mxGeometry>
        </mxCell>
        <mxCell id="Fx2AZmH5evgSTG1EavA_-9" value="助手服务" style="swimlane;whiteSpace=wrap;html=1;" vertex="1" parent="Fx2AZmH5evgSTG1EavA_-1">
          <mxGeometry x="430" y="50" width="160" height="200" as="geometry" />
        </mxCell>
        <mxCell id="P0uEnLT0tcXrdcJD_U2h-23" value="Assistant Service" style="rounded=1;whiteSpace=wrap;html=1;fillColor=#1ba1e2;fontColor=#ffffff;strokeColor=#006EAF;" parent="Fx2AZmH5evgSTG1EavA_-9" vertex="1">
          <mxGeometry x="30" y="45" width="100" height="40" as="geometry" />
        </mxCell>
        <mxCell id="Fx2AZmH5evgSTG1EavA_-12" value="Assistant Service" style="rounded=1;whiteSpace=wrap;html=1;fillColor=#1ba1e2;fontColor=#ffffff;strokeColor=#006EAF;" vertex="1" parent="Fx2AZmH5evgSTG1EavA_-9">
          <mxGeometry x="30" y="125" width="100" height="40" as="geometry" />
        </mxCell>
        <mxCell id="Fx2AZmH5evgSTG1EavA_-41" value="Feign/Rpc" style="edgeStyle=orthogonalEdgeStyle;rounded=0;orthogonalLoop=1;jettySize=auto;html=1;exitX=0;exitY=0.75;exitDx=0;exitDy=0;entryX=1;entryY=0.75;entryDx=0;entryDy=0;flowAnimation=1;" edge="1" parent="Fx2AZmH5evgSTG1EavA_-1" source="Fx2AZmH5evgSTG1EavA_-13" target="Fx2AZmH5evgSTG1EavA_-9">
          <mxGeometry relative="1" as="geometry">
            <Array as="points">
              <mxPoint x="630" y="200" />
              <mxPoint x="630" y="200" />
            </Array>
          </mxGeometry>
        </mxCell>
        <mxCell id="Fx2AZmH5evgSTG1EavA_-13" value="其它" style="swimlane;whiteSpace=wrap;html=1;" vertex="1" parent="Fx2AZmH5evgSTG1EavA_-1">
          <mxGeometry x="679.5" y="50" width="160" height="200" as="geometry" />
        </mxCell>
        <mxCell id="Fx2AZmH5evgSTG1EavA_-14" value="other" style="rounded=1;whiteSpace=wrap;html=1;fillColor=#1ba1e2;fontColor=#ffffff;strokeColor=#006EAF;" vertex="1" parent="Fx2AZmH5evgSTG1EavA_-13">
          <mxGeometry x="30.5" y="45" width="100" height="40" as="geometry" />
        </mxCell>
        <mxCell id="Fx2AZmH5evgSTG1EavA_-15" value="模型端服务" style="swimlane;whiteSpace=wrap;html=1;" vertex="1" parent="P0uEnLT0tcXrdcJD_U2h-60">
          <mxGeometry x="30" y="430" width="420" height="130" as="geometry" />
        </mxCell>
        <mxCell id="Fx2AZmH5evgSTG1EavA_-17" value="BISHENG" style="rounded=1;whiteSpace=wrap;html=1;fillColor=#ffe6cc;strokeColor=#d79b00;" vertex="1" parent="Fx2AZmH5evgSTG1EavA_-15">
          <mxGeometry x="34.5" y="60" width="100" height="40" as="geometry" />
        </mxCell>
        <mxCell id="Fx2AZmH5evgSTG1EavA_-18" value="COZE" style="rounded=1;whiteSpace=wrap;html=1;fillColor=#ffe6cc;strokeColor=#d79b00;" vertex="1" parent="Fx2AZmH5evgSTG1EavA_-15">
          <mxGeometry x="169.5" y="60" width="100" height="40" as="geometry" />
        </mxCell>
        <mxCell id="Fx2AZmH5evgSTG1EavA_-43" value="检查项目推荐" style="rounded=1;whiteSpace=wrap;html=1;fillColor=#ffe6cc;strokeColor=#d79b00;" vertex="1" parent="Fx2AZmH5evgSTG1EavA_-15">
          <mxGeometry x="309.5" y="60" width="100" height="40" as="geometry" />
        </mxCell>
        <mxCell id="Fx2AZmH5evgSTG1EavA_-19" value="SignalR" style="swimlane;whiteSpace=wrap;html=1;" vertex="1" parent="P0uEnLT0tcXrdcJD_U2h-60">
          <mxGeometry x="567" y="430" width="249" height="130" as="geometry" />
        </mxCell>
        <mxCell id="Fx2AZmH5evgSTG1EavA_-20" value="SignalR" style="rounded=1;whiteSpace=wrap;html=1;fillColor=#ffe6cc;strokeColor=#d79b00;" vertex="1" parent="Fx2AZmH5evgSTG1EavA_-19">
          <mxGeometry x="74.5" y="60" width="100" height="40" as="geometry" />
        </mxCell>
        <mxCell id="Fx2AZmH5evgSTG1EavA_-24" style="edgeStyle=orthogonalEdgeStyle;rounded=0;orthogonalLoop=1;jettySize=auto;html=1;exitX=0.5;exitY=1;exitDx=0;exitDy=0;entryX=0;entryY=0.5;entryDx=0;entryDy=0;flowAnimation=1;" edge="1" parent="P0uEnLT0tcXrdcJD_U2h-60" source="Fx2AZmH5evgSTG1EavA_-9" target="Fx2AZmH5evgSTG1EavA_-19">
          <mxGeometry relative="1" as="geometry">
            <Array as="points" />
          </mxGeometry>
        </mxCell>
        <mxCell id="Fx2AZmH5evgSTG1EavA_-35" style="edgeStyle=orthogonalEdgeStyle;rounded=0;orthogonalLoop=1;jettySize=auto;html=1;exitX=0.25;exitY=1;exitDx=0;exitDy=0;entryX=0.5;entryY=0;entryDx=0;entryDy=0;flowAnimation=1;" edge="1" parent="P0uEnLT0tcXrdcJD_U2h-60" source="Fx2AZmH5evgSTG1EavA_-5" target="Fx2AZmH5evgSTG1EavA_-15">
          <mxGeometry relative="1" as="geometry" />
        </mxCell>
        <mxCell id="P0uEnLT0tcXrdcJD_U2h-66" style="edgeStyle=orthogonalEdgeStyle;rounded=0;orthogonalLoop=1;jettySize=auto;html=1;exitX=1;exitY=0.25;exitDx=0;exitDy=0;entryX=0.5;entryY=0;entryDx=0;entryDy=0;flowAnimation=1;" parent="1" source="g8IDcojqgnYVjRbKk0xe-33" target="P0uEnLT0tcXrdcJD_U2h-60" edge="1">
          <mxGeometry relative="1" as="geometry" />
        </mxCell>
        <mxCell id="P0uEnLT0tcXrdcJD_U2h-67" value="服务发现" style="edgeLabel;html=1;align=center;verticalAlign=middle;resizable=0;points=[];" parent="P0uEnLT0tcXrdcJD_U2h-66" vertex="1" connectable="0">
          <mxGeometry x="0.448" relative="1" as="geometry">
            <mxPoint as="offset" />
          </mxGeometry>
        </mxCell>
        <mxCell id="P0uEnLT0tcXrdcJD_U2h-68" style="edgeStyle=orthogonalEdgeStyle;rounded=0;orthogonalLoop=1;jettySize=auto;html=1;exitX=1;exitY=0.5;exitDx=0;exitDy=0;entryX=0;entryY=0.417;entryDx=0;entryDy=0;entryPerimeter=0;flowAnimation=1;" parent="1" source="Fx2AZmH5evgSTG1EavA_-36" target="P0uEnLT0tcXrdcJD_U2h-60" edge="1">
          <mxGeometry relative="1" as="geometry" />
        </mxCell>
        <mxCell id="P0uEnLT0tcXrdcJD_U2h-69" value="路由转发服务" style="edgeLabel;html=1;align=center;verticalAlign=middle;resizable=0;points=[];" parent="P0uEnLT0tcXrdcJD_U2h-68" vertex="1" connectable="0">
          <mxGeometry x="-0.1308" y="1" relative="1" as="geometry">
            <mxPoint as="offset" />
          </mxGeometry>
        </mxCell>
        <mxCell id="P0uEnLT0tcXrdcJD_U2h-79" value="" style="swimlane;startSize=0;" parent="1" vertex="1">
          <mxGeometry x="1350" y="395" width="200" height="340" as="geometry" />
        </mxCell>
        <mxCell id="P0uEnLT0tcXrdcJD_U2h-80" value="Mysql数据库" style="rounded=1;whiteSpace=wrap;html=1;fillColor=#647687;fontColor=#ffffff;strokeColor=#314354;" parent="P0uEnLT0tcXrdcJD_U2h-79" vertex="1">
          <mxGeometry x="40" y="30" width="120" height="60" as="geometry" />
        </mxCell>
        <mxCell id="P0uEnLT0tcXrdcJD_U2h-81" value="redis缓存" style="rounded=1;whiteSpace=wrap;html=1;fillColor=#647687;fontColor=#ffffff;strokeColor=#314354;" parent="P0uEnLT0tcXrdcJD_U2h-79" vertex="1">
          <mxGeometry x="40" y="140" width="120" height="60" as="geometry" />
        </mxCell>
        <mxCell id="P0uEnLT0tcXrdcJD_U2h-82" value="OSS文件存储" style="rounded=1;whiteSpace=wrap;html=1;fillColor=#647687;fontColor=#ffffff;strokeColor=#314354;" parent="P0uEnLT0tcXrdcJD_U2h-79" vertex="1">
          <mxGeometry x="40" y="250" width="120" height="60" as="geometry" />
        </mxCell>
        <mxCell id="g8IDcojqgnYVjRbKk0xe-9" style="edgeStyle=orthogonalEdgeStyle;rounded=0;orthogonalLoop=1;jettySize=auto;html=1;exitX=1;exitY=0.5;exitDx=0;exitDy=0;entryX=0;entryY=0.5;entryDx=0;entryDy=0;flowAnimation=1;" parent="1" source="g8IDcojqgnYVjRbKk0xe-3" target="g8IDcojqgnYVjRbKk0xe-24" edge="1">
          <mxGeometry relative="1" as="geometry" />
        </mxCell>
        <mxCell id="g8IDcojqgnYVjRbKk0xe-3" value="Nginx" style="shape=image;verticalLabelPosition=bottom;labelBackgroundColor=default;verticalAlign=top;aspect=fixed;imageAspect=0;image=data:image/png,iVBORw0KGgoAAAANSUhEUgAAAgAAAAIACAYAAAD0eNT6AAAAAXNSR0IArs4c6QAAAERlWElmTU0AKgAAAAgAAYdpAAQAAAABAAAAGgAAAAAAA6ABAAMAAAABAAEAAKACAAQAAAABAAACAKADAAQAAAABAAACAAAAAAAL+LWFAABAAElEQVR4Aey9CZgdR3U2XNKMRrtGlm3ti4kt23ghCRAw5gcHAwbyJYQtEFbbLAYngA2YJeEjYQmbwXhj885iVhvyBYJtNpstBJsEMLZlyZtG+2ZLI2k00kgzo/+c7uk7fftWd9fbt997e2bqPs/M7a4+deo97zlVdfou504y/uEZ8AxMCAbmzZu3rLOz8zNTpkw5Q/7mdchDDR+Sx6FDh3YePHjwDjm8aOfOnRsmBCHeSM/ABGdg0gS335vvGRj3DMydO3fF1KlTvzFz5szTJk+enDrnDx8+bIaHhw/39/f/ZmBg4JW9vb3rxj053kDPwARmIHUxmMCceNM9A+OCgSOOOKJb7vivmjVr1t/Jzf7kLKN0848/NBHYt2/fTyUZeFVfX9+O+DV/7BnwDIwPBnwCMD786K3wDNQYWLBgwUzZwK+TO/6XSQIQvMxfu5hykEwAIjF5S2BYkoDb5S2Cl+3atWt31O6fPQOegbHPgE8Axr4PvQWegYiBzqOPPvpSueN/i9zxd0aNec9pm3+836A8JBH4zo4dO14n7Qfj1/yxZ8AzMDYZ8AnA2PSbR+0ZqGNANv73z5gx4/92dXVNc9nQ450ReXkl4KC8NXD1Y489doHoGI7r8ceeAc/A2GLAJwBjy18erWegjgHZ+C+YPn36R+RDfrOjC8iGjsiq/khevjHQv3///islEXhfNK5/9gx4BsYWAz4BGFv+8mg9AwEDRx111Jtl4//EtGnT5sYpiTboeFvWcbPy8m2BvZIIfEi+OnhJ1jj+mmfAM1A9BnwCUD2feESegVQG5Lv8L5WX+q+UzX+RTajZDd2mM2rL0i2JQO+BAwculFcEvhzJ+2fPgGeg2gz4BKDa/vHoPAMBA3LH/5fy/v7V8sn+lWmUZG3Qtj4MeUkCtsgrAm+UbwzcYhvTt3kGPAPVYcAnANXxhUfiGWhgQO74T5P396+Vjf/kSZOypytjQ48AIbpVVpKAdZIMnCvFhO6IdPhnz4BnoFoMZK8o1cLq0XgGJgwDRx555Ilyx/9V2fifnLfxR6Sgm3TUz+W5iG7tI0nAA/L3CkkE/uAyjpfxDHgGWseATwBax7UfyTOQy4C81L9I6vR/RTb+Z8vG7zw/kQ1aQSDyiKxNt/aXVwT+RxKBl+/evXttLglewDPgGWgJA84LTEvQ+EE8AxOUAS3bK3f8tbK9zW66WTS2S/fI7wz8RJKBV/vywlke8tc8A61hwCcAreHZj+IZsDKgZXvlQkPZXmSTRmQVBCKPyLrq1vLCkgT8VIoL/p0vL6ys+YdnoD0M+ASgPbz7UT0DnfPnz79Myva+Wer115XtZWy6Ed1V0i1VBQflbYHvPProo768cOQg/+wZaCEDPgFoIdl+KM+AMqBle+U9/qBsr40RZJNGZHUsRB6RRXXH5eWVgIPyioAvL6yk+IdnoIUM+ASghWT7oSY2A1q2V4r41JXtTTLC3HSZutUORL9NVssLS0EhX144GRT+3DNAYsAnACRivVrPQMSAlu2Vjb+hbG90Pf5s2xjj1+PHiKz2Q+QRWVR3nrwkAnvlrQFfXliJ8g/PAJEBnwAQyfWqJzYDcsf/Minic4Vs/tayvUl2mJsuU7fageh3ldXywvLWwAVSQ+ArSa78uWfAM9A8Az4BaJ5Dr8EzUMeAlu2VjT+zbG9dh5ET141RxRFZtjwTi+qWVwM2y6sCb/LlhUcCxT95BkpiwCcAJRHp1XgGtGyv/DrftfLJ/qBsL7IxIrLKNCKPyKK6UflmsEgisE5eFfDlhZV0//AMlMCATwBKINGrmNgMaNleueO/UTb+J0XF+5rZ6PLYLEv3lFlTgqEO9R2qGxLRj8jqIIi8TVbbJBF4QF4R8OWF67zmTzwDOAM+AcA58z08AwEDUdle2fifPXny5Lq5ZNu80mhDZFVHs/IdUzvMwtMXmSXPWm4mCeyt/7XZbPzZejO0f6hp3Wk2loE7rls5kM8H/I8kAr68cJwYf+wZABioW7SAfl7UMzBhGdCyvfoev2z8L+vo6JicJKLZDTqpL3mO6I/LdkzpMPOfutAsPXOZie7+I92H9g+arb/abDb9fIMZGhiKmjOf47ozBUcuIvKuslF5YXlrwJcXdnGCl/EMxBjwCUCMDH/oGchiQMv2ykv810sRn5dK8b6ONFnXzUv7I7JF5Sd1TDLzn7zALHvuCtM1pysNtjksVw71HTSbf7HJbPnlJjM8OJwqi2Jh2xmVF5aEwJcXzvSav+gZGGXAJwCjXPgjz0AaA7WyvfJLfXVle5Md2Bsdqn/eqUeZFc8/xkw7aloSasO5JgDRY2DXgNn403Vm+/9sM4eH4ldCCRQHUz6uW6oKannhm3fu3Hm2ID0Y2eOfPQOegUYGfALQyIlv8QzUGNCyvfJSf2rZ3prgyEF8M0pes50j8ohs98q5ZsX/eZyZuUh/ayj/0bjFh332b+8363+4zjx2zw55uWJUD4IFkdURypAfKS98lXx18EJRmf1SxqhZ/sgzMKEY8AnAhHK3N9aVAS3bKy/1Z5btTeoqY+NK6oyfu+gPNv7ny8a/1G3jj/TH9vaoqe65f0uf2fCTDeaxP+4oZYOuU544cbEz6pInKz841C+vCFwhicA/RX38s2fAMxAy4BMAHwmegRgD8gt9b5k+ffrH5W9u3uYS6xYcMuXzdM9ePscsl5f6u4/tDrHEb9eTQBPneZt/XHxvzx6z7ta1ZvfDvfHmzOM87PHOiKz2c5WXbwtoeeEPSlXBz8TH88eegYnMgE8AJrL3ve01BrRsr2z6dWV7XTeXSAkij8iq/jT56QtmmOXPXW6OPPXoCIZs/ciWXvfKfk1H2kGEY/eDu0zPD9aafZv60kSD9kg+Uyh2EZFHZHUIlZdEYJd8Y+BCX144Rro/nLAM+ARgwrreG64MaNleqd6nX+lbGWekyOYS7593jOi3yU49Ypp8j3+ZWfCUBSYqPhSNiSQAWKqQSESks342YP1t68z+Hf3R8HXPNux1ArETRFa7IfJJWXk1YLMkAm/cs2fPrTEI/tAzMKEY8AnAhHK3NzZiQMv2yo/0XCvv8wdle6P26Dm5YUTtac+IPCKr48Xlu7qnmqXPXm4W/IVs/PW1hwJoyOYf6A56uf+LY4l6advOex416+QVgQM7D0TNdbhrjRkHNt1p4ois6kiTl0SgRz4n8Hp5ReCOtLF8u2dgvDLgE4Dx6llvl5WBqGzv7Nmza2V7bYJpG0azstq/iO7OGZ1myRnLzKKnLzKTpaBP2gNJAJq6+7cAODw0HHxtUL81cGjvwUJ2WtRam4pwaFUkjapLEoEH5JsDvrxwGkm+fVwy4BOAcelWb1SSAS3b29XV9RVb2d6kLLK5aF9EHpFV3ZO7JpuFT5OyvWcuN51SwjfrgWz+qqfsBCDCNnxwyGz+1Saz8Y6wvHDUnvWM8ILI6piu8ion5YV/q4nA7t2712bh9dc8A+OBAZ8AjAcvehtSGZCNf7ZU7btW7vitZXttHV03DO2LyCLyWrb3aHl/X9/n7xr50R4b1ngbMwFA7dT04lC/lhfeJOWFN2aWF0Z1I/KIbOQfLS8srwj8RD4w6MsLxwPMH487BnwCMO5c6g1SBqKyvbLxv1Tq9WffOscoK7JhxLpnHrrojsr2Ln2OlO2dHf5aX6bSkYvMzV+HcME+irP+tYWD+w6ZzZIEbPm5lBeWtwmSD0Q3IqvjNCMvicCwJAI/FR2+vHDSaf58XDDgE4Bx4UZvRIyBzoULF14mL/W/Wcv2NrMBxHRaD8vUrZ/kn3eKlu1dYaYeNV13LuuYaY3MBAC1U+/+bY+ovPC2u6S88HAog+pmyqfplt8ZCMoLSzGhs8UuX17Y5lzfNiYZ8AnAmHSbB21jQO76/698qv/98kt9tcL3aYu6rT8iq/0R+SxZrd53zP/5EzMjXraXmADYt2cbI2FbFvbGXvna+7eNlheOEoFGPY0tGA7MPzpann4tLyyvCFwl3xjw5YUb3eNbxiADPgEYg07zkOsZkI3/QvlK34fl+/yz41fyFvS4rB4j8ohsmm7d+LV636yldbBDWEACMBbu/kOj6v/3aXnhH683j90tvzPg8CiD87RhEN1ReWH5oKAvL5xGqG8fEwz4BGBMuMmDtDGgZXtl4w/K9tquI4s6IqtjIfJJ2bBs7woz59i5Ntiq3N6e0ookAJhmzE6RTkFob45wB+WFb+nJLS+c5NGuNWxFZLUHIh/JSiKwVz4o6MsLZznCX6s0Az4BqLR7PDgbA1HZXnm5f5HturZFi3Ta9WQ7Io/IxrFo2d5lzxkp25s184AEINpEk/aknSNbNGpn0QQgwtr7QK/p+c9HrOWFUSyIPCIb92eEe6S88AVSVfCrUZt/9gyMBQaylqGxgN9jnEAMaNleqdffULbXRgGyqCOyOhYq3zV3avB1vvkp1fvq8AObf4AFuOtGNn/cTkx7auIiavQXB9fdWl9eGOEckUXtzNItpYU3SzLgywvXBbQ/qTIDPgGosnc8toABean/aVLE5xr5ZL+1bG+SpqxFOimr54g8Iqtle5ecuczMf7KU7e1wnGpAApC6idqMVDtT2m3NiJ1hf0S7YsmW1/F3/vFReUVgrdn/2H4bxNQ2BDsiqwO6yMsHBXskGTi3r6/vZ6kg/QXPQAUYcFyVKoDUQ5hwDGjZXrnjv1E2/syyvUliXBbpqA8iq31c5IOyvc9cahY+fbGZNGVyNFT+M7D5B1hyNtH4gNnbbVwyPHaxs76X+wh5m39c7/DgYbPtt1vlB4d6gvLC8Wu2YxQ3Io/KShLwgCQDr9i3b98fbFh9m2eg3Qz4BKDdHvDjNzCgZXvlq3xflSI+Z06ePHkSuvA2KMxoQHSrmiz5DinVu0DK9i79y2WmY1oHsD2PAAQSAGQTDXCPDOHylGWjvb/75h9icZePKBmS8sJbf7XZbLx9vRncP2iHIa0IdkQ2wB2BSR29/oLq1z9JBH4rtQR8eeF6evxZBRjwCUAFnOAhhAxo2V55qf9aueN/mZTvDW6dmYt0Wbq1bO/8p0rZXtn4p8TK9rpvc2I/urkA6QWEI4AC93AOYThxSUAZ7D9ktkgisOlnWl64PhEoy59pxiD6k7JaXlgSgR/LNwdeI28NuH3vMQ2Ib/cMlMSATwBKItKrKc6Alu2Var3Xy8b/Utn468r2JhfSrFEQWdXTrHxQtvdJC8zS5y6Xsr1dddAS+1bdNesJkADAm6h1wPRGjBfMUgR7FiWH9h0MkoAtv5DywoNheWEENyKrTJUlr+WFJRH4iah8uVQW3J3uBX/FM8BnwCcAfI79COkMBGV75aX+oGxvUqysRTepNzpH9Mdlw7K9RwZFfKYdWSs6GKkNnqFtMWunq9MankCbqKV/VlPcziy50WvuliK4Vb8LLUF54Z+sM1vv3FIrLzyKLf0ItRORd5GNygtLMaGzBaUvL5zuKn+FyIBPAIjketXpDGjZXrnjryvbm5R2WUjjfRB5RFbHiOSDsr1/9bj6sr1xECqbOM89ddnpRpTAm2ju4PUCkZ31rWlnmKUIdoCSAFz/tn1m3W09wVcIXRyA2InIKhhEPiovLDUEfHnhtDDz7TQGfAJAo9YrtjGgZXulgE9D2d6kLLKIal+mvOoOyvY+T8v2zkpCbTiHtkVwp0M20YCXBnTpDSiHSKoD4wZIjOvul/LC63+UXV4YtRORR2QD/4z4XxKBfqkhcIUvL5wen/5K+Qz4BKB8Tr1GCwNatlc2/tSyvckuRRfSpB7bOaJ71vLZZpm8x999XErZ3sQAwL4V9iQmACgWhBdk81dD45t0grKGU5ASq+49a/eY9bestZYXRuxEZAM7AfA23SPlhf9VXhG4tIEY3+AZKJkBnwCUTKhXV8+Alu2Vjf8KqdmfWra3vkd4ZlscbXLahsi6ykdle+edfKQxwCyBNl1gswhwu7y2rYIjDwQLyiGSACCbv0IHabEmABEHvQ/sMuu+/4jp29QXNKF2IvKIbGhnuoe0vLAkA768cORI/0xhAFjaKON7peOUAS3bK5u+U9neJAVlLqSo7qlHTJOv8y01UdleBEv6cp5EMXIO7nTIRopiQexENn+1FMEdyAPgnXSLvqC8sPzgUP/2fSPk5z9hnGji4g7cVVYSgc2SCPjywvnu8hIFGPAJQAHSfJd0BrRsrxTxuUY+2V8r2+u62EVaEXlEVvWnyWvZ3sXPXGIWPHWhmRyWIEiVjXAmn92X/5GeyIbh7/6TdAfnTglARPfQsNnx++1BVcEDjx2w6os3psVKXCY6RmS1Dyqv5YUlEfDlhSPC/XMpDPgEoBQavRIt2yt3/EHZXqneV0cIstghsjoIIm+T1bK9i6Vs76LTF5vJXU3grrPY4QTY/AM7gQQATURsvKRbgGlHNujATkA9qluCJTBrWBKB7XdtC741ID/oazUV4wSLw9BOd0MjLPosrwiskb+/9+WFrW7zjSADPgEACfPi9QzEy/ZKMZ+GeIoWr/pe6WeIPCKrI8blo7K9Wr2vU8r2Jh9x2eQ127n7cj7SG0gA0I0OwYLaKSzazE9tQ7ADlATjIbqjzT8OdOjgsFQV3GQ2/rSxvDDCCyKr4zcrr/21vLA8+/LCcYf6Y5iBhgUb1uA7TEgGorK98lJ/rWyvjQhksUNkdSxEPpKd3DHZHP2k+WbZWSvqyvYmsUfyyfa0c2hbBHc6ZKODcIAcMjd/5RWhBeEk8FmG8kPy2wKb5DcGtvxisxk6NATFVYgbYx2JrSzZqLywFBXy5YUDJ/t/KAM+AUAZm+DyUdle2fgbyvYmqclavJKyeo7II7LBWPLq/nwt2/scKds7p75sbxILqhtb/gNDk0OmnqMbHYIFtZOZAGTsz1ZuIF4clR/cd8hs/tmGoMRwVF7YOniiEeERkdVhXOSj8sLy1psvL5zwjT/NZsAnANn8+KujDARle+fMmWMt2zsqNnrksnhF0ois9nGV17K9R5w8zyyXIj7TjrKX7Y0wRM+uumvy0YHLs+NmFKlCNjpk81f9qJ1IAoDgDrFEFuc/o7rF0HylIxKqW8sLb/jxOrPtzq255YVRDhF5RFbhSzGhQfl8wE1SQ+AcObV/uEEF/cMzMMKATwB8KOQysGjRoqBsr/xSn9sOKhrRxQuRd5XV4j0rgrK9M3JtjAu46tc+7lvLyAjgZhTHlXeMYEFsDMdFtCsv7vIAJQEURDey+avyuO7+bfvN+lvXmkf/KD/el2IOwiMiG2ABiInr1jxAvjFwlS8vHISL/5fBgE8AMsiZ6Je0bK/U6//w9OnTZ8cXGBdeEHlEVsfOk599zJzgjl+fU1fuFCPydCe7pewLSbHwHFjQtUN8M7IrHG2FcKhuEAvCI4JbLUCgoLoh5YrFstPv3bDXbPjhOrPzvscUbu2BcojII7IKyCY/Ul748r179/5zDbQ/8AzEGPAJQIwMfxgyoGV7ZeP/uHytr1b/1rbApPGFyKoORD5LNizbuyJRthfbGrP0J+3FNAeGJlWknts2olRhVZ110XINsRPVjmBHNn81A9FdxuYfp07LC6/T8sIP9QbNCIeIbGAnQEyebkkE9sorAr68cNyZ/jhgwCcAPhBqDMjG/xLZ9D8rm39d2d68BaamYOQAkUdkVb1NPijb++zlZt4pR1nK9rpvjTbdSdvi5+6aA+DxrrnHyEYH4QigwD1y8UYCCG7tA+xz2OaPKlcsjmmUlhde+z0pL7xxr47i9EBiC5HVwV3lJQnYJV8ffLvUELjRCbQXGvcM+ARg3Ls438CFCxc+S97fv0o+2b9SPzSXfLguMNoPkW1Wvla298kLjJnciFuXdOSBYMc0B8Q4Q3HdiCKFKBbETphDgHNk81dbUV6Q7ALVrdgfvXu7vCLQY/Zv749cYX3G+MbmUBHdkghslg8LvkESgdusgH3jhGHAtmpOGOMnuqFatnfatGnXysZ/km3jV36KLDCuvBbVHS/bO0m+15/+cN8aYSzpgzZeAXc6eDNqHDG1BbUTSQBg3O7uoW7+ShaCPQ778NBh8+jvpargrT0mrbwwwjkiG+BGYysmL0lAj7w94MsLp86W8X/BJwDj38cNFkZle2Xjf1KybG9SGFmQEFkdB5XvmN4xUrZ3kZk0pbF6Xz32+DJdf8V2hmDBNAeG2oZMbSu6GaUqjF1A7EQ2fx0Cwg2SiOgOzI1tdDHzrYeobht0rRsQlBeWbw3EywtjfONzAtFvk9U2SQTWSCLgywtbo2N8N/oEYHz7t846Ldsrd/xflY3/TFvZ3jphObEtGEmZ+DlLXsv2zpcf6dFf6euY1hkfMuPYtkzbxWHcdjX2VmAjUgVlbEZ2ILg/FY3rA8btrjqAAOkncp4He2hgyGz55Wh5YTi2AOxl6lZdkgj8Vj4j8HL94SFXv3u5sc2ATwDGtv+c0GvZXvmFPn2pP7Nsb1IZssAgsjqOi3xYtvdos/S5x5jOma4bf6A9aUrmuQuWSEHeBhDJ1Z6BBV37IBsdigWxE9n8UdyBPAAe4UR1S3AFTy7/UN2umgf7D5kN8hsDW36+KSgv7IQFwK36EH+6ymp5YUkEfizPvrywi9PGuIxPAMa4A7Pga9nezs7O62Xjf+mUKVM6XBcB1YnIli0/SX5TaL7U61/y7BWma3YXtCmGfLgu0wXsDAdw/w8s6qzNqIh/hBlnG2Hc7qoDDJB+gO+AF8hOZ0pC3ILlkJQX3nTHBikxvNHklRdG5hwiG9gJ8KK6tbywfFjwJ/JKoS8vjLl9TEn7BGBMucsZbOfixYsvl7K958nGH9w6MxcMRYXoT5MNy/YeaVY8b4WZeuT0mrHQBgAs6DDuGiLHA2DRDbAA2ME9FPIPsvmjuAN5ADzme9EOcI7qBmCrmXWcD+w6EJYX/o29vHDanAgUWf4h8ohsErfkAYPytsBNfX1958g1X17Y4oux3OQTgLHsPQt2Ldsrd/zvl5f868r2IosAIqsQypDXsr3LX/A4M3PRzDqr0EUa2bxg3HXIHE4qshmhdiIcKguIjwBKAoIR3cjmD+MO0Lj/S+N8/7b+4BsD+hXCeL6XJm8bEZEN7ARIT9MtiYDkAQNXSSLwDtE5bMPl28YeAz4BGHs+syKWjf/CmTNnBmV7kwJpkzopF50z5ZO6g7K98tO8s4/pjoave4Y2gPiKWqfFfpLEYpcabYXuAIFFV0dA7IRwqG4IC6YdwR3YCahHdSMJAKobgK1m5nLeJ+WF19/WE5QXxvyTrzsAMPKvbN3y08P9kghcLjUEfHnhONFj9NgnAGPUcRFs2fjfItX76sr2Rtei57IXgUivPhfVPWvZbLNMNv7uY2vVhuNqg2N0kRY0DTrSGmDcaYrS2oFNF7XT3UrcPwiHajqCHaAkYBXRjWz+KO5QPoDk9A+JLS0vvPb7D5k9D+8uXXeAGyAdwa3lheXDgv8qicClTsC9UCUZ8AlAJd2SD0rL9sodf0PZ3mRPZFJrX6a86p4+f4ZZ9pxlZt7JR1vK9tajhzYAYPMvZGc9tOwzYNENsADYkc2/iJ1IAoD5R2Mrm7b4VVQ3ohzVDcAOTMDmUKh915pdpsehvDCiG5EtEiuqXxKBXfJhQV9eOB68Y+jYJwBjyFkKVcv2ynf5r5J6/dayvUlzmIsAonvq3Glm8V8uMUdL2d60qoNx7OgijWxcOg6CHd0AqrIZITaG3GOWIj5CNv/AP0BShPAN69ZYCclx+t8U5zLQo3fvMD3/+YjZv2N/w3iobqZ8UrckAZskGXijLy/c4LZKN/gEoNLuGQWnZXvlZ3kzy/aOSo8eJSfq6JXGI0RWe7vIB2V7n7HYzH/KQpNdtrceD7K5hD3dl2kX3HE07poDUuJdc48ROyEcARS4Ry7eSADBrX2QBADVDSlXLMCWDjOIGJqCQ8sL7/id/M6AVBWMlxdG4haRDf2DWZqmXxKBHvmcgC8vrKSOgYdPACruJC3bK3f7N8on+4OyvWkTz2YGIqv9Efk82c4ZnWbxM5aahacvMpOnTIbWaGSBDu0uZ/GycmhrzGoDNgDUTsxKzJ+6LSIPBDtASQAB0Q0FlmiHdAfy7qzkzYlGTdmcDw8eNtvu2hokAgd3DzR2z2hBsSDyLrJaXlgSAV9eOMNHVbjkE4AqeMGCISrb293dXSvb6zLx4qoQeURWx0iT17K9C05bZJacoWV7w3r91A0gMDh7IS3KSWBnvHPeMWgoshm5WxiCTPNPugnuIyC4dTyEFlQ3pFyxAImOOyMhqxjn7tqHDg6bzT/faDb8ZJ0Z3D8YDpbzH8GCyOqwrvIqJ4nAXfKqwCt8eeEch7Xpsk8A2kR82rBR2V7Z+BvK9rpOPNWNyKLyNt1B2d4natneFWbKrCl15iEbQIAFWKR1SUceNuxp/THNogUwFNmIFB+KBbET1Y5gBygJ3IDoDju4M4PqdtesrkekMY9Gmg9JeeGNP1kvycAmM3xoKDDf9g/FgsgjsoGVwov0CcoLy7kvL2xzWBvbfALQRvLjQ0dle6V6X1C2N35Nj4tMvKSOtPNmdAdle58oZXvPXG66ursahkDXRXSRRjYv2M4GazIaQENRO6NNIANB7RJqJ8QhmIogtKCcIAmXkoPoR/gOdCOGohzWPBseHOw7aDbdnl5eGPE/IovamdQdlReW6qS+vHDCp+069QlAu5gfHTco2yt3/LWyvaOXRo+Sk2n0SuMRIqu9EflINirbu1y+yz/tqLqig3WAoHVRsUCLI7ZMR9jrAKacYJoVONYDsRPTjPlTGUceEG5MNeh7jHMEt/KBQEfiKuQa0Z6OZWDnfrPhR+vM1lh5YRQLIo/IBhymzAktLyxvC/jywmEwtPW/TwDaSH9Utle+1pe+gwq+siaezdQiusOyvcc0lO2167e12tvQRTp9aWzUD9vZqCK9JWWhS+uA2olsF6idEIfQtqhxm8aAvR3iBVSO6AZhw/MT49zOVby1f6uUF75lrXyFcLs5POyOHo0VRN5FVj4kOCCJwFXy1UFfXjju0BYe+wSghWRHQ2nZXvlkv7VsbyQTf3aZTJE8Iqt9EPlZK2YbvePX8r0uD3CNBu8A3Rc61E5Mc0CiCx01mepsRpilCO6Q85rJuQeobiS7QHUjrCDzJyQB0Y6kCsbs6dlt1v9Qygvf+1gu3yqAYEdkUd1aXlg+LHhZf3//+52Ae6HSGPAJQGlU5ivSsr2y8X9cvs+fXv82oYY58Vx1z1o2yyyTD/fNOdZerz8BuXaKJADoIo0sja52RsCxJVp6AYaidiJYUDshDv3dfxQedc9czuuGyj2JsOx5ZHdQTGj3Q72pfSLZVIHEBUQekdVhInlJBLS88L/s37//ssTw/pTEgE8ASMTG1crG/1LZ9K+U7/IvioI9fj3rGJFHZHXMPHkt27v02cvMkScfFZTtRTYvYE8MzEd0IxuXi50BgJF/yIYbAsd6IHZimvP9GbcT5pCYACCcoJyjuqvFeb3Hss5sc7lXyguv/Y+HTd/GvQ1dbfINQiMNiKx2aVZeywtLIvA2+erg19Iw+fZyGPAJQDk8WrVo2V7Z+K+Wjf+4qPwtMjkQWQWAyGfJTp07Vcr2LjPznzTfTJochgi8kAIrKaob2byy7LQ5DYAddgcyHdROBAtqJ8JhEFtAAgBQEnAI8QIqR3QjfAecgFgQzkvDIor0swE93x8tL4zGClM+S7d8PmCTfGDQlxcOVxrKf58AEGjVsr3yC33Xylf6Too2/iILRtbkSMJGZNOwdM2Rjf+ZYdle/V5//AEtpODqhehGFtE0O+N2JY8h6OAGgNgJ4RAjMP9j2hHcIedJVtPPUd1iaLqyxBVUt7vmcCAu5wljMk5dcITlhbcFHxbc/2jj7wxkqIdiywVLfCwXeUkE1srf6+UVgZ/F+/rj5hnwCUDzHNY0LF68+ET5juuNsvEHZXtrF0YOXII96oPIap9m5Gtle58Wlu2NMETP8EIKrKSobiQBgDmJDHZ9rshmhNqJcKhUID4CKAlYRnQjmz+KO5QPIDn9Y3IOTJ8AK4JleHDIbLtTygv/YK05uPdgrq2IblWGyCOyqlveFlgjfXx5YSWjpIdPAEogUsv2yh3/V2Xjr5XtTapFg50pH+mePHWyWfjURcHL/Z1SwjftgSzS1A0AeBlabYnsTLMr2Q4tvKChEIdJYDnnqJ1IAoDgVpgILahuRDmqG/J9YCfSA5FFvFMkxkMswwNDZvMvNpkNP84uL4zEFiIbxoo7L5FufZZXA+6SDwz68sJKYpMPnwA0QaCW7ZX3+K/T6n2dnZ31r5kn9EYBnGi2niKyqgCV1/f1j5Kyvcue01i2NwkIXkjd5zR0ZxniApSDvGCaA+VJqlLPYQ5TNTVeQH2PbS8q7c4MsvmrJYhuZPOHdQdYtJfbg8m5O9shVhRLkvPB/sHgNwaC8sIH68sLw7qBAGhWt/Q/LInAj+Qt1tf29fXtcPOcl0oy4BOAJCMO51q2t6ur6wbZ+F8iG3/6rfOIrmaDPQ+Sq/5o41965jKj7/e7PJILRlYfYP4HahDd4bjuy6MrJ5E97pqlB2goYieEI4AC94hMzn1GcKsyhBZUN6RcsSCJSy4T9QJYbGH+QaQxHNmcHNorvzNwh/zOwB0bzfDgcGAwoh+RVeWIfJasXBuWRODHUkzo5aJ2TwDc/3NmwCcAzlQFgp1Lliy5XDb+8yQB6HTtmhXANh2IvItsVLZ32XOXm2lHZhYdrIODLKLakboBAAt6iMV9KXWXHKEHMBTmcGQI1ycX/4/qwixFsAOUBHAQ3VBgiXZIdyA/ylDeEca3anPn3F0yRIliceFlYOeBoLzwll9vplUVhHE7BJeWF5bHTZIInCPs5H+4IaRwwv/3CYBjCMjG/wH5Ot8/a9leJIARWYVStnxQtvf5x5gZC2eqdkdrQzGXBSNS6DBHI9HgGdEdoalTkHECc5ihq+ESaChiJ+YdPFYQ/yO4lSOEFlQ3pFyxAHHO5RzTjklj/kc4UX/2b+kzPbf0mEf/sD03bOD5BgQLqluSgAH5+6IUE3qnmBG+lKEG+YeVAZ8AWGkZbdSyvXLHXyvbiwYkUz5L9+wVc8wyLdsrz6MP9yUGXTCAOR3AwfS741blWbyMchEeYZoD5UkVqeeYjbnrbMM4iJ2odgQ71/fV4RzjW93lHl3ukmEYoFgQf8YTrr3r9pp1t63NLC+MYEFkAwbB4Ir0yysC/ZII+PLCYbik/vcJQAo1UdnemTNn1pXtjQIspVtDMyKPyOpANvlZS6OyvXWwVboBW1YDsmCAcxS6QwsxumO3cZJtZ9bVxDXQUIRDHcndSrvvE2gTp+7aYdzuqgNMkH4i5yBs63xLkBw7xbRj0pj/Ib7VAgvnux/ZI8WEHjbJ8sLwfLPojpHWcIjot8lqeWFJBD4grwhc3qDcNxifACSCQMv2ylf6Pisv9y9MXAIXAGyS6li2AE5iiM6TslHZ3nlattf6cF9i0AUDnNNgAuCOW81O8mKlYqQR0xwoz1LXcA3hEcWC2CmsNGDLaoBwY6pB3wtKILgQ3Go/Ah3jG9XOxQLxksP3rqi88IawvDDCCyIbMJiDRWXijyz9kgjskg8L+vLCccLk2CcAI4Ro2V7Z+OvK9ia4gjYX7ZsVkGXpDsr2niFle588X7yZ5k5kqdPFCJQHxFHdyNKI8B34J+mErHN0MUI5zBo7cQ21E+IQxQ34Xs2A/E/kHIQNzeXQXe4juEuOaAZ4gfgOHJSPRiX0swH6OwP7d7hXFUTjFpF3lZVXAzZJIvCGgYGBH4ZsTuz/aTvGhGElKtvb3d1dV7bXRoBrkGlfRBaVV936Nb5Fz1hsFjxloZmUKNvbiD1/Ukd90AUDWIuCITD97rhhDiODXZ9BQxE7MSvR2MK0I7hDzl0JBDd/UDmM2x02PJfVUuSBSMPrCoIFjPHhocNmx/9uM2t/8IgZeOxArskIdkRWB0bkVVYSgbXyqsCELy88YRMALdsrX+X7mnzA74mTJ2fW8AkCGwmwIgEZDOLwT8v2Lnr6YrNQyvZOmpJbgkA0IssLvkgjawa6SCPYYf84cF0nAhiK2ol4CLUT4hCNFQR4EIlAB4Bv9RPCOYAiCAEu58EQzv8QLAgnI4Y641DBiEetGxCUF/7PR1LLCyO4A92A/5vRLYnAaikx/PfyqsDdkPHjRHjCJQBatlc+2Kf1+p/V0dHhbD8SZIisa7BHZXsXPXOJ6ZjqXIJA1EfT1C1ikUUDmKPB4IhuGDcABmNEKcR6IHZimhUK0gORVcZBeUAc1Y1wjuoGYIdxS+XcbV6qFOZ70J+Qjaq78TEUlBfeaDb8UMoLHxisE0CwI7I6CCJvk9U2SQTukm8OTLjyws4bYJ03x+CJlu2V9/ivk5f6g7K9tkBIMwuRVR2IfJ6s/iqflu1d+mwt29uJrIuKJM0kazu8kALqUd0I9jwOk8YCsMOuwOKI2olgQe1EOFRDEewAJQGHiG4wyDHcoUed/zM5R3yvgBEsEN+hcmdOAvEM6UP7pKrgT9abTT+XqoJSXhjBHUJxZ6ZM3aLrsCQCP5JXhCdMeeFxnwBo2d6pU6dq2d6Xyi/1Ba/1lxk0yXlQlm4t23v0k+abJc/Ssr1dwTDoojtmNwA0cQGJcV9ehHZYt7t2d8kwyrDYwrSjGwZCC6ob4RzVjbGCbbr4fEuuHunnmO8VCWgp4FBXzfprg5tu32A23r6+Vl443cIiMY75x5VDkdOygj/u7+8f9+WFx3MCEJTtnTt3bkPZXtdA0JBEZFF5m+6ssr3AHA1nE7AIoAsGggXVjSykNg5HjLc+uS5etc6AoaidCBbUToRDtRXBDlAS0IjoRjZ/FHcoH0By+sfkHPF9gBsgHeI7VO7ERySEYFcsWl54/W09Zut/b8ktL4xwjsiiHKq8fEhwUP6+LTUEzpXTcVleeFwmAFq2V+74g7K96sj4gxk0zeruPnauWfa8FWbmYi3b2/gA1gDpjEzTCm0AKG6MFEw7rNudc3fJMA7Q2EL8j24YCC2obiQBQHVzOce0I9Ko71FeMM4b16WsljiW/q37TM9/rk0tLwzbiQSiroiAfFxWPhswIInAuCwvPK4SANn43zFr1qwPyXv9s9OCMu7YNJmoHZHVPoh8XDYo2ys/1DP7mHjZ3ghF+AzE7khH9yUmPknrR7WfIVhQ3cjGpejiPNrRjra6MzLSBzAUtRPBgtgYIke0K+Pu8gAlARREN7IRqXJIdyAfQHL6x+Tcne0QKooF4gV0KII9DcfeHq0q+IjZtXpnnS8QOxFZHaQMeUkC9snf5QcOHHh/HfAxfDIuEgDZ+M+XT/Z/XP66s3xRRhCk6S+iW8v2LvnLZWbuiUekqa21Y/MUmabYQorhwHSHxrpjhzmvselwABqattjZRnK3cIQREIuy7vpAcKtOBAqqG1KuWCA7XRkJ5bDYcudbtSPSGA6Mk8BSwKEI7tDO7B67H95ter4XlheG7QRwB1gA+Tws8orAXvna4AekmNCYLy88phMALdsrm761bG8Q3Il/eY6NiyOyaIBNP3qGWXLmUjPv5COdajECsTtiQvbEq7MTWo7IGwCMBbEzbrXDMUA6shHpyO6oQ5xYLGLaEewAJQFwRDdz80c5x/jGtGPe0fmG9eByHsajy38ER6+8EvDwvz9k+kbKCzvpB3iBOXTULa8GaHnht0odga+7YK6izJhMALRsr2z8mWV7k2SzgkDHcdUdlu1dKl/rm28m5dceqpngGI8j8rwFA8OhGx2GBdkaXTmPSISQgIaidiJYUDshDkH/ILSgnDATAIRvjReMc0w7Jo1hYXIO40ZiSwJLOX/0Dzucygtj/gE5RIJ8JFYkEdgkf2OyvPCYSgC0bK+8x3+tlu2NFnbXZyRoEFkdP09+yswpQfW+BacvNpOl9hAyUcF4VDSulEA4QjudVQeCiJ0I7hALYieGG9mMMBtRK/Njq94yd04CDpFYwVTDsVUVzvPmcj3fIYuNbfYWkMLcdSU5ChSL4MKCYIdwBBSOaj88fNhskW8LrL9lrRnoHUiaGJwjPkJkQyijWKyDxxqTuuWrg2ulbUyVFx4TCYCW7Z02bVpd2d4k+TG/NBwistq5LHkt27v4/1tiFpy2yEwOSxDACyM2T92DN7CzShsAhAW1syEk0hswwnF/po/ccAWNQyS9QBdpkBaMF1A5gh2LFHTuY9oxaQwLwkkQaADnMG5gLqdhGR4aNlt/s9Wskw8Laj2B6IHOCUQekVU8afKSCKyWvzFRXrjSCUBUtle+y19XtjeN+ChIks+IPCKbFgRatnfBUxaZJWcslbK99fX6kYkKzNERk92nKoIjtDPJavY5pt8dd4jFXd5dcsQekHTEThQLFouYdgg3phrb/EOHZgdT7CqCO1Ad65t3iPGNakfSs/TNJc0GiBc4xtNGbWyHcAQUZgdXUF5YKgquHykvjPgIkQ2hZGOJW5unW6/L2wJ3yXOlywtXMgGIl+2Nqvch5BeVRYMgKR+U7f1zKdv7nOVGX/ZPPtDJgc1T9+ANcINZOoIFtRNZGvMmXiPnyZaMc8RIUYPaiXgItRPikOh7ZRfihcg5wneAG8SCca4juD8Q/0N8KwTATphDMLZcsRzaN2jW/7jHbPpZWF7YhUmIQ4CTkEI3ZgRDUF5Yvjr4Gun3qAvuVspUKgGIyvZqvX7bxo8QH5GIBAGqP9KtZXuPfMJRUq9/udEP+qU9kIkKxqMM6RaQgY2AbCDvrjowHbETwR1icQfjLhnAhhbGAAvAI4oliq0RZDlPmHbMPxgtqG7XDQDlO5TPoS12GeMb1Y5FOYoF4hxcWLDIUjuBHgWwDPQeMBvkdwa2/GJTZnlhmEMUCyCvWORvWF4R+LEkApUqL1yVBKBz2bJlV8jG/yb5id7Mn7pjOhbVrcvAEScdaZZJEZ9pR06LLSeNh9DEkO5AfKl044AZLUwsqG4EO+ofjBWMdNROBAtqJ8QhGisI8CASgQ5YkEObC4AimClczjMmo+USggWNQ3BhgaKFiSXpzwM794flhX9tLy8McYjGYRPygisoLyyJwLni+tEPN1jioBVNbU8AtGyvbPzWsr1JAhCnal+m/Jw/6Q7L9i6yl+1twA5MJTC+1NLkcJnnyERFsSC6YdwAGIwRpRDrgdiJaUbjFtOO4NYgQmhBdSPKUd0YK2zOM6dj3UV4zULmPuJM9X0dsvwTyEclYdm3tc+sk/LCO36/vQYY5hDFAsinYYnKC0sxoXcKs8P57HIk2pYAaNne2bNnZ5btTZqcRmZSLjpH5F1lg7K98h7/rBWp1Yaj4WvP0MSQXkB8jYzhPlWZWFDdtRlbYyr9wNU/kQZ3RiIK3XugdrprVt8j0oodk0ewo1AQ3WiQI7oxRricM7EgnARRDjoUwc7E4oJjb89us/Z7YXlhdA4h8ohsMDtzOJdEYJ/8ta28cMsTAC3bKxt/ULa3bDKDIB/5V7bumVq294xl5ggp2wvrBhbpnHiJmxhZamlLb0ImKooF0Q1vXCAYl0WjxhKs2127u2SIBostTDvmH90YawzlHqC6EeWobgB2YBeX81zqagIYDp1BoKWAQ0HNGBYAh5KDYOl9uNes/X8Pmd0P9dZ4zTqAOQewI7olCdgjnxH4l1aXF25ZAiAb/19LEZ8b5O+owKkAkWz5LEdp2d6lQdlegT3CVpZ8MtjQSQrSIsO5Tw8mFlQ3hBskxZ2REW8B+lE7ESxIXIXIEe3YhgFQEkCBeAGVQ7qhGSGcgFiguB0JL9cnBAvKCZJwKV4ksphYEBwh7rDHrvt3mke++6Dp29iXST/EORgrRXRLIrBd/l4nicAPM4GXdLElCcAxxxxz27x5856nv3UfPRBytA8ij8im6Z7aPdUslu/xH/0kLdvbBG5oKqmdEUMuz5CwIHGXx3DoguGuG1teMN8H/nShLpIBDUXsRBgJcINYEB4R3CGWiKD8Z1Q3EuSobi7nmHZEGl6zoPkmPgRiC8EdxAqCBcAR6s6Pv7hEPF6U00flswFr/+Nhs3/7/rhYcAxzDmBvVrcUEvqeJAF/2wC65IbRna1kxZG6Y4899l4p5HNydB49IwQhsqofkU/K6vf3F0rJ3oWnS/W+zsaC/Un5yB7bczwYbdeTbUB8jXR1n6pMLKhuZONSQzHOk6zmnAOko3a6ewezMbQI0a6Mu8sDlARQEN3IRqTKId2BfADJ6R8SV6FCgEMnBKNCKBaIF9Ch7lbi/kH8j+BQJtM4OTx02Gz99Waz7pYeKS98oEY6wjkiG2ABOE/TLUnA7yUJeGINMOGAmgCsWLHiFinq84Ik7jSDk3LROSKPyKr+SL5zeqdZJGV7Fz5toZTtra/eVwRHoBtYdEMs0Uguz9j0SJsctpGA2A26I7rD8dyxR/6x4bS1uWuW3qChiJ0QjgAK3MNmvrUNwa0KEFpQ3ZByxQLMIZhBxFAAR8Ch/nN84DEOWgrYCWqG/IP73pHAEbG8WBkeHDbb5HcGeqS88MAe++8MpI2I+AiR1fGy5CUJ+H+SBLw4DVez7bQEQN/zlx/v+f7kyU3eRQPBm0dmkiwlfnKXlO196iKz+BlLTed0+8Yf9ctyVCQTf84LyDpZdOYBCxKCQzEhlKO6dUlHHgjnmGbMUNROFAtiJ8whwDnie/UjxAuoHNIdYFFEbg+Mb9Xp7lF3yRArigXiBebcjb+QEdDSimAZOjAkFQU3SHnhHjO4fzDXYNg/gJ0uuiUJeJ4kAT/KBVpAgJYArFy5ctOcOXMWJzG5GBzvg8gjslq298g/C6v3TZnVWLY3jkGPEd2BPLBghPr1v+sDm3jIggHEbgAW0R1a544d59yVP5EDDUXtdLcSjy1sM0KQYLSgnDA5x6xEOce0Y9IYFibnMG5kjYPnGzCXdToDWKJ1ZXDfISkvvM5suiO7vHAk74IIkVV9LvLy7YB1UjjoGJfxURlKAiB3/8dLWd818Q/9RcBcDC4iq31cdEdlexf/5TIzbV562d4IQ/TsojuS1WcsIOM9XY7dpyqCI8DtrjoAiunHlCOcY5oFOrAgYTaq77EHYieqHcEOUFLA99XhHONbTcU8ikijWBB/IjGOWgnhCJQjrGCMo1iSnB+Unx3WRMBWXjgpq6ZkPVjy8irACfIqwANZYxe5lv2adxGN0kc+9PdJ+bpfw4cXUHKQ4XN1S6oz7+QjzcpXniif7F+Q+3I/MnZSFg3IZP/sc2wiZeuqv0rfAOqHyzzL9Wdm75yLqKE56pq5zLSTG4eg1UTOeTNCbcS0Y9IYh0x/MnFjVqKMY9pt861jWmewNyyUn20fPjgUfnWwACE23VnoEHn5auBkeSXglix9Ra5l1t0volD7yA/5/EXRvlE/hJyoT9pz97FStvesFWbGolkjIph3y8SSxEhcF6FXIZK4yj/HOEfG52lGUISyXCw87Wgccjcjpp083Wi0MNcV9O4fxQ7Jo8EFKC8zDqfOm2ZWvvrxZon8qFvP99ea7b/bCiDhikqsNL2n2hBSEoCOjo4jkoMxgz1N96zls82y56wws4+Zk4RDOy8zIBtBVmjxAu+MGm1Jb0nzZ3oP4Aq4GDH9ybSTiRtgOxQFOUf0V2dGkO9cmfMNIVxkmbHF9KfrfJuxcKY56U2nmKVrlwU1BHat3gkylC/uiiXSJG+nBwX0ovOynikJgIDN/1RdhgUoOUlVUdneuSc05CFJ0dzzZrFkDUBcF+FJysJyqO+Q2bN2t9m/bZ/p39FvDuw4YIYODJpD8ulbfblNv6PbMVXeiZJiSx1dHWbKjE7TKR/K1A9mTjtyevA5jWlSjXHGghny9UzLN0qyCG7xNebixd1eMKK4GwCPRXwuN4/l4N6DZs9Du03/Vol/mQNakGZw/yFzqH/QDA2En0DvmCoxL99A6pw+xUyXONdYnyE/MtYtPzg2ZXYX5hyVZk1mHAkVCzMOdb7Nedwc86cX/rnpfVh+Z+Dfs8sL47HlTqbqlj3V/QNr7qqj4rZADwfR448/fovU+18YiaLkFJWffvR0Kdsr9fpPGi3bG2EYfcYmNYIFDUhsnoK4wTsGBEuenf2b+syOu3eY3Q/2Bove4WF37Gl8T+qYZKYdNd3Mkt9k6H5ct5ktf/oTzO6aRyIAMDTPztGYCo8QLGl2JnWOnrtrh3G7qw7gQPoBvlU5ohuELfsi3GOU/pyjuOa96/eYHf+7zfSu3mX2ycZvC1InLPK5pZmSCOiNjH5uSV/RdHqAdsax5+lH/BPoArAgOFQ3gsWJ7zrjG9FoeeGHv2MvL4zoR2QDO4VD+QzAJvkmwNI6iCWcUL4F0EwCUIScrpGyvfOfOD+4k8zmpdGxafIwFttMT1EOzIsRDe64tQM2OVJApjTbdA/L3cy2u7aZ7bLw7d/WX+sJcwgQo34/4qR5Zp78zZGEYJKlcmMNiB4AugNxxJ91A+WfYLzwfB/YCai3+T7TWoBzVDcAO4DI5Fxf0dom1ea23rlF7vZH49/GDYZDwza0VF+a1g+qLXq6VCmVD65ZHwDf2h/mEOlBxALHCogljRn1xaO/32EekR8cisoLR/6x+sPSiMhHsmM2AYgMsPBgbULktWzvgqctCsr2TpLv9ec/sHBHsOABmY+2XsIdOxNLUveQLHxb/2uz2SKLn62oBsQhOEnjujvlrYOjnnC0OUqSwNnL5TMfttQW0J+0s94XjWfu3hld0Bu1pLUg2nXpcpcHKAnAIbrHbsKlprpxqC/la1GZzb/YZAb7D6U5sK49Hrd1FywnNtnOGVPkd0qWmKXyVeYOifu6B+hQNyvDESDfaxcAC4IjUO3onxA5Oufy0ehbl1t+vcWs+8Fac2BX4+8MROMmn23+TMrEzyN5nwDEWInK9i546gIzKaVsb0w8dpjv2Eg4Ij46z3tGJgcwL0aGdcetHZhYaroF0g75oY31t641+j6/7QFzCBKTpl/fCpr/5AVBhccOKfEcPFDdwAKDeaf8xSjOfc0/8caMY4QWVDe2AWAsYtIEzgXAtt9ukw+JPWT0fX7XR1rMpvXPkp8iicDyFxwTJAPyJnGoAnAozCEwJxDfK3AECxqHWRzaeXdHMyTlhbdKItDzvYed4gDBEpcdkwlA3AA70fWtefK1sr1Ss79jWgcUNFiIYQsGHpD1duefuQckE0uke2DnAfPQTQ+YvT17MqHn+TPZGZF3kdUYWfi0xWbRM5YEHy5Mjpd2HtmZdj3Z7u4dLK7CcRDtGuXu8sBeEUBBdOMbgDtuBYNIu8RKyHX0P1v7gR37zZqv3S8fbt0jZmbLRhqjZ0TeVXaOfFjwhNc+PvhMTDSOyzOCHPK9Dg7wguAIVEPeR+cchiYyc2hgpLzwbenlhV39GfkuLj/hE4CZS2aZE17zeKMv9YZBENHk+uzu2DjxLtrRyREFjYtubKlTacRONwSRlOreec+j5mH5nW2tp531gDnESIEWXv32wILTFpolZy43U6JXBDLAQxxm6LFdQnlB/I/gVmwI5ahuRDmq2z3CQw9gnGdr3/G7Heahb60xg/JNlpDDbPkQQREc6h933Z3ymYDjXnW8OfrP5HNQDg93zSPYgXUF8b1qZ2JBOIwsDZ/z/9vcc6jvoPnjlX8we9c13hwhWJKyrAQg8QZSvtEsiaTByXGmzp1a2/yT1/LP0RDL1xhJwIsXD4pMJJ5y9c+629YG5TIj29v1nBcrSVxD8nVDfY9WX7JdJt8SWfj0xUZ/C8L2YHJoGy+7jenP7JGbumpbGZtSWLwzGitpI6meR/79YbP55xtrImXprils4uCQfLXw/uvuM3vP3GMe9+LjrB+BKaqeOSfQCGdiwVORRkanzOoKvq2UTACqFCtx1PZVMC5R8JhpMBo0iAlM3AiOUJZnKbJG69f4HpGvv2itbMaDyXlct35gsUc+tPOHS35nwuqqmgAAQABJREFUeuUris0+UO/EsTQ7drI/c2Fk6k7akXeOcp6nr/66Xfvw4GGz5qur6zb/+n75Z6jvUfkIwcbbN5g1X15lDg9HLY3Pdisb5Qq1IAtLoQHcOxXl0GWECpnpAjdVhpYApI5oucB0VBlZnQVyoSZm0LAWad3813x1VfD1Plejmf4sQ/eBx/abVdfdYx7Ul3IlKYgeLA4j/dgzb5lmxiFmo85Opp3N69bNf9V19wbf64/bVkYcxvU1c5zEsv1/tpn7rv5jZhLgOh7TP64YIjkuluZjJcKZfE76J3k9eY7KJ/sj55QEQN6vQDBAsjw3yWIEroxjNyAdKReyH/nuQ4ZRCjNCgHIe9XN5ztQttu343Xbz+0v+1+xas8tFXVMymVia0kzeRNENGpxDiOnMuW+9UZABH/rmGrNr1WMIzKZly4iVnfc9ZlZL4p7kLHneNNi4AtD3TCxlcBg3LX4MmhnvWrljSgKAWMl0lHVSI+BKlGUGDSsR0ff8d/xuG8QC058M3YfkK1z333Cv6bnlkaAssauxzMWLGbfMOHTlLpJjxa3qLyNWHpbyr9t+2/wPwpSBJeIs+Zyle4e8ErBWCtYUfTD9g2LiYuHOZsTWLH8ielxl254AuAJVueq4SbEw0fB0u24AO+991Gz55aZSFtI0HzODHdItdG/62UZz3zX3GE0Iyn5AWMDBuXGIgiHGLQgFE2/E/egfdqS+50/1p+sEdTRw40831N6+aLTSUQlBjImF6x+MDCYWDIlduq0JAJccLMSYWEqe03WeZGwAA7sOBF/1qxvI4YTLIeZPB7gNInse2W3ulq/w7Nsi9dszHlwkPO1oHDJiK6KVqhs1NAI18qzf83/wG2sSrcVOqzAnHvzmA2b/YweKGeDaq0nOs4ZhxkqVbiuZsZLGb1sTgDRQtvZ2kGPDoW3jOiBl/9EiP/o9fybnVdIdx3Kwd8Dc+4W7S/mWQBArY3ZhTIv+lHaqnSljMpol/rXIT/Q9/+QQ8VhJXmv2nKVbbVnzlVXQXsdc43gprphIjEPUv1XCkoa9bQlAlchhYqlQPMrkSAuD0fYdv9+WW+FvVHr0iMuhA/BRKE0fafJz//X3Gn0ZOPngIuFqT9qSdc7dAHh24nFYj0V/zEcr/JXxwLG4j4rq3v1wr/xYV/OfZ7AidFlYrB3zG5lxmD96vQTRzLYlLm1LAOqpLfusflKXqZ0bkBjusrEMSTGR9bf2BHShCwzCMVM3gkNl07Doj308KJ8A3/4/21GVNfk03TWBJg5Q3zMXL6fMsqCt2IwoOMhIN/1hn57vP5KqhOpPqoNCk/QDgfGvvaYZisZWmh5bO9OfuH94aHAsNrb4bW1JAFByUHmENq5uBAlX1mV90R+1OLTP/sM+Wei4HGKTtEwsWgPhYXk7ZLtUENQHhiSLMds1rnbbiGlt3A2gOnYmPbpZPgia9sNWaVyltZcZh8kxUN2RvP5okf5yYakPl4Wl4IDMOEQhEc1MvQlBMRaRb0sCUASoex/eAlOpgCx5OxqWcrlbfrMloDlaMNw5d5dk6nZHEUq6YFGZh6UK4mN/fBRS76IbUtiEMHPxqtLdfzOcD8rbPpvlWy9pj2Z0p+mM2pm6ozGi5813bDRDA6PFr6L26Jm5xvFW5gg98sxD00p/IhbbZCufADDJ5Oq20Z3VxgzIrHHDa/r+4GDF7v7zUddLsPyprwQ88I3VZvdDzZcPrkccnWG+5y7SGJbIApdnJm6X8etl6u3c9uvNZrAff/WrXmd4xopD21h5bUksh8TGLb/anNfN7Toxs0RjJWmnmwFuUkQz23r3r9a3PAFgOir5kp6be92k0IB001pMioFlx/+G73Vz/YPZy8SC6h6W3/1e/eX7TP+WvlwjUN25CpsQYC5ezLt/1ORmOc/6gFyzurNsQXWj8raxt/53+Epf8hpjXYnGqE+3otZ2PfPQMDlksFWZXwO0GVdGsNv0ahtTd9qY6e3EgHRQ3bepz/Rvy/7uuw07yqHKz5o1yzzzmc80K1euNAsXLjRTpkwxfX19tb8tW7aYhx56yDzyyCOmv7/fNqy1DcViVZLSGOnWbweskl9cO/Wtf2b01ynb8WAuMFXS7RC2TdBfr33v+r25tR9cB4tiJU1+zpw55swzzzQnnniiWbRoUSC2efNms3r1anP77bebPXvK+QaCKk7D0r91n+nbsNfMWjY7DWZ+OzWzzB8+LpFmZ1ym6DHTTCZuV3tbmgBwDa6f1K4EuMihCyM1aEp+71/tf+zu8OtuTP8sWbLEXHDBBeYFL3hBsOnn8a5YdGG86667zK9+9Svz61//2jz2WDk12Zux8+DuAbNaSgef8g9/ajqmljF9iHHLU627S54LW3a9GX8qyB3/m17uulndEQnLly8373vf+8wLX/jC1Pg/ePCg+d73vmc+/vGPmw0bGj+sVxYWxbRdbI4nAOgaF9nl8oxGChPLRHmV2MUvKtPytwBcgZUZ7MkxmbqTY+Wfo9MjX2Mk4bpG7y7hp3GjMW3PL3/5y82tt96aufgl+02aNMlo0vDiF7/YXHLJJUECcPPNN5tXvvKVZvbs+jsXpj9tuvdt3ie/kHi/9bcDbPJJ24qeMxdGpm7UXt6MUCSN2net5v4Y1LnnnhvE70tf+tLUzV+RdXV1mZe97GXmv//7v83ZZ5+tTYUfeXHYu3pnYd3jKfnLIsF1/czSUda1PH8WHadlCQDLgNDwxkldlJBm+zGDhrFI69f++rfvS325MI0PV3++853vNB/+8IeDxS1Nl0u7JgRPeMITzIc+9KHgFYFPfvKT5oQTTnDpWifjiruuk+WkV35B8JHvPmi5gjTx4pYZh4iFKsuI2whDs/48uFfiP+XtL1S3Tf6DH/yg+cQnPpG58Ue2RM+aCHzqU58y//Iv/xI1wfOz1jHlQN/2O9QX/u4F0z8pw6c2c7EQ55slsUw1Ui7YYiVLnnWtZQkAYgCTHFT3mA1Ix1jfu3a37aYIcVeq7Ete8hJz3nnnpV4vemH69OnBKwP6cunll19uHve4xxVV1VQ//eDYhp+sq+lAY6vW0eGAGYewbmJ24Ri2DozZRBq175EKeeDabVNsbXv9619vzj//fOs1l8a3vvWthV4JcIpDoUKrA8IP0PeNjMMjpnZwsjO1d/YF0MxsZU1eZdrZkgSAaQBt9hZwGjNo4EXaEX/a3U9Wdxd/6sv3evfDfOirAvqZAn17QV9lSL41kBzbBXe8j4v8hh+tk2qB6e8hx/XVH/OWRmYc1tuQf8aKWx3ZxT95CPN++Cmvf3Q9iUXf89eYbPbx0Y9+1CxdurRZNdb+ajvTP9ZBMxq5WHjzLcMk66VkrFiFWtTYkgQAsaVK5IzVgEQ2gP3yy2cMzt/+9rc3/bK/a9x0dHQEnw34wQ9+YM444wzXbuXIybry8M0PmN4HmnhPNQcJNw5zBk9eRoIr2TfnnLtE27Xv327/pkmzc0I/8KffcGn2oW8HqC7XB4J7/za77a5j5cnZGc/r5XYdsdNN46gUGuLM+cm0Uy2mJwBsA0bdln/ExIIGTT7aUQlmgB0AfybUhUO9E/+rv/qrUQNadKRfq7r22mvNxz72MTN1anNf03OxMzJLfzdgtfzamn69yu3BWxrROGTGFlU3amiKYzQBbvaRjBX9qp9+2r+sx4te9KLcV7eKjLV/O2h7SZzbsDJjpVqvEvPmvo3XvDZ6ApAHIH49OZHi1+zHPDInSkCWVfs87p9nPOMZpdz9xHUix3/3d39nvva1r5mjjz661g2PrVrX3APVHdQIuPZeMyBfEyzzwY1DECl1AwCxlCRui/9mY+VZz3pWqfGvrwKozrwHivtgX7mxGsfHW5nLeesnjrWZY+b8RP1ZxA5qAtAKA1yNZmIhrouu5tXkUCxZdcFrSkcOXDk8/vjjk11bfv6nf/qn5rvf/a455ZRT4LFd7Uwq1hoB9197jyQD6bXWK3U3wvr0mxBTrYUxfTsaHhhKuhE6t8XKSSedBOlwET755JNdxCCZoQPD7vLowuKumRorAIxAlGgm5a1W1L6kPDUBSA5W7nn6pG52HObihW4ATCyqe/ggsAg4Ejt//nxHSa6YVhr8+te/bp785CfTBkpuAP1b+80DN0qNAPn9gGYfqO+Zi5esXs2ak9qfpzl1yNqFIfkRrPgj6c/4NdfjBQsWuIo6y2ksl/lQO7MT1eKjMf2J+4eHBp2fCKO4nYj2UVlaAoAagMqPmpB/xNWdP36rJIqs0cNDbgkAwuGMGTNaZXLuOPqVwauvvjqoIZArLAKInWn6dmmNAPkFwcYHbzFqHCu7hbp4EV9ZyLbKdjWbc/2Nh6KPtFiZOXNmUZWp/bSEdtYjDUtWH2fbiywsWQPHrjHjMDaM0yHRzFLWFScjQCFaAgDiAMWzJzWorE68UgFJXEirZGedAwgn+qHE66+/Pqi/Xqb6rEVXawRsjNUIKHNcmy7m4lWlu/8szm28IG1M3QgOtizTTt7KXIQVHhrm+sn0T5LFSiQATIO5upN05p0TA5KnurLZax7b8etz584NkgCtT5D2KDtW1kuNgB2FagSQ30OfMIklb1KUHStpMenSTsVCzCzRTZRpJ9HMSq+flUgAXIJ8VIY4qYkL4yh+tyN0crhpDaWYuhEcrZbVzyZcd911pru7u+mhnRYjCdWHpEbA7ge11jwxbnmq9T2RprkqS4ET5wUHY+ouCInSjWlndSJFqeOhGU/rZ9sTAGpAVmjxogYkL9bh7JXpzzJWxOOOO8584QtfaChSxMId1QhAKs4xFximbtQ/xLDlbgAVWldYcRv4coLYyTQT9Q8qj865pHzbE4AkoOxz3pKBLozUoPHZa3YYNHn1KU95irn44ouNlhJuxWNw/6BZpTUCesv/3jUzDtG7f3QOIdwzF0ambsRGtizTTnRlZsYK9WaLuDaz/W/T39YEgBqQ1JXRRmVWGzo9snTVX6uSmUx/1lvd/Nlf//VfmwsuuCBQhOJG5XUQrRGwSmoEDB6o/9pZ0hLmwsjUnbQj75w3I3RkrvY821p1vUgcOmOr0MLCtLNCZsKvtjr7MkOwrQlABq6GS9VyVAO80hqYizSqmznxSiOsCUX6a2uvfvWrm9CQ3zXOodYIWP2l+4zz169y1FdqThA33TiHOZTAl1HdqDwMiNShSrjRdQijhJf8obirxHkah21LAJjkoLpRx6aRaW8nBiRPtd2UjFaU8wxVLb2kv7n+zGc+03nMZu3c/VCveeS7D1nHY8YhrJuYXXDDlqvd6rg2NDYbh2VCZjLOtJMY4jC9TDuzwLQtAcgClbzWLnKSOPScGTTwIm0DWFJblTgvySSrGv0lwc9+9rOGUb41jUOtEbChyRoBzDi0EpXRyIzbNA4z4NAuVQkLYiSMmxhczFip0ls/MOeIQ0uUbUsCUCVyxmpAonOUaWeV/FlkbmjlNv16YFaNANVbpp3rf7jObP/tthpcpn9qg7geoMHlqlfkmHeLqHYuFoAUULTMOASHbhBnclgtO3mWttPOtiQADVFUYgOTTOK6KAsjL8BQepkcolhaJa81ArRaYBk1AhRzLofibq0R0PuA1gjAHmgcMmOLqhs1FKMRks71J6StwsJEzpmxAid/xOV2LMVKyxMAlBxUHplaVQpIBDcqy7ST6R/Uzmbl02oEqF6GnVGNgL7Nfc1CL68/dQMoD2azmojrf7PQMvujcYjKZw6euMjkkIk7YUbu6XheP1ueAOSy3YQAM2iI6yJsMRMLk0PY0DZ0eOpTn2o+9alPNVUjAOFwSL4WyKoRoPRRFy/iq1YIh2GY8LYjHEsbAreMIYkLCzMOUdOJZlLnG2qni3ylEwDmxOMGJLYYMbFQdTNnkkv0kmS0RsCFF15Y006NQ+FQawTcL4WC8moEKCAq5UTl2IyoUU85YGJhxgpKBhNLtTjkoRnv62dLEwBqQDIXL158oXOaugEw/QMb2uYORWsEFOVQSwWvvkFrBJQXbNTFi3j3j7u+PM6SYxf1Z1JPGedULMz1s0KxQjRzzN39a0y2NAFAJgEz2JkLI2KjyjKxUHUzZxJKIkn+X//1X82ZZ55J0t6oNqgR8B17jQCVplJOVI5uz9y538h7WS1M3ChGJhbUnyh2TJ6HpkrrJ8ufLUsAWAZosHB1Y+GoWzrrQVyjqRyy+GDr1RoBl112mTn55JMpQ9nidttdW8yGH69vejzq4kWMcdxw5nzj6UbttMUKqiNVnriwoHHItJNoJvVGLtVvJVxoWQKAYKUGQYUWL3RyQBxWyE4Ed9VkXWsEKO6y4nb9D3ukRsD2OiqYixf3pYU6M3JPyuLQNhBzO2fittmS1cbEwuQwyyb7NR4a5tpstyW9lenPliQATAOYutNdknaFGJA81fDGVS3O03xRXnvZNQIUWSaH4uuHblojNQJ6CxlRqcWrkAWunXiTItM/rvDGghw1s8QIYHLONBOdb0w7McYr+BkAJjm4o1A63eVRLO6a9U0I3sKI4BhPsitXrjRf/OIXTVdXl9WssuNWawSs+fIqs2/zPu4NOrgyMmOrbA7jjpooM6JKHDJjhfpWa4XWT6Y/dX7QXwFgGsDUHV883I55Swy4RrvBLShVLc4LGlGwWxk1AnRoVw4HDwzCNQK4iy5GHG9GBCxiYIjSrv4kQiikukq4mVj8+pkeHvQEIH3oxivMIGgcLbuFGTTMRRrVXSXOsz1Sjat/8zd/U1cjQFExORzoPSA1Au4xQ5IMtPuBxhaCl8khmogwsSCcoLJVws2MlSrd/TPtbIU/qQlAKwxwnSRMR1EDEl29XAkpIFclfxaAX1qXt73tbebVr351IX1FONQaAfdrjYCh4cwx4RgnZrncsOVqzyQ5cbGIPxMqxsQpk3Emh8QQh/3GtBMGM9KBmgAgoFByUHkMCyKNycKLNKYelGZOaxDKGBP/4Ac/aJ797GdT7/7jMZ5XI4BNHzNu43ay7cjTXyUseVjj11HcqHx8rLxjZqwwb7by7EpeZ9rJ9E/cDloC0CoD4sakHTMdxQxINHtl2lklf6b5uZXtRWoENMvhtju1RsC6csxEgwsYlZtWYtoxacBIEW3Wn9ho7ZOeKBxOxPWTlgAww5U58YjrYsU+nc+b1kz/MOMK1a01AvQnhJcsWYJ2zZVP4zCsEbCtoT918SJ+KjrNzgYDW9BQJSxMc5l2MuMQvdkaq2s50z/JuKIkAKgBqHzSiKzzKgVkFs5mrzHtZPqnWbvb3V9rBNxwww2mu7s7E0ppHEreFtYI2JU5XuZF4srISyszLbJeZGIpzZ9W5FgjE8uE4XCCJLnJyKIkAMlByjynBjsz2kESiGu0IOEZyvQPSGHLxLVGwFVXXZVaI6BsIFGNgP4tfYFqavJXqVjxcdtsLDHnJzMOUbuZ6yfTTqZ/bBy2PQFgGsx0FLqJMrFQdTNnki0ix2ib1gj49Kc/bSZNmtS0BS5zQmsE3HfNvWagdwAbj+hP3vaMmajSTCwu/sERF+vBxFItDnloJvL62fYEAAl7arDz4gsxMZAlrtGiv0KGwsxUu4PWCHjHO97RAJIVtwd3D5hV1/yRViOAuTA2kJTbwItbln9yTWqxANPOKsUKc/2skp1lhE9bE4AJE5DETZcZkKh/UPkyArhqOrRGwGte85rCsFAOgxoB199nDg9m1wgIABFXRnR7Ru1ECEWxQLqJHCI4VHascojaybxpmejrZyfujPb0oAY7vGLAHZxJ464vPNzOBpYsqHFx5513mh/96Efmt7/9rdmxY4fp7e01+uG8pUuXmmc961nmBS94QXBc8tCp6rRGwIYNG8zPf/5z7iI9EixaI+Dhmx80x/39CamY0AvMhRHFQt0AuBMON5XUg7p+gjc4VCzEJa5ac6KcQGlbAkANAjAgy6HSroUZNEzddmvSW5n+TBtVN/xPfOIT5u67764TUSybNm0K/jQ5uPjii80rXvEKc9FFF5m5c+fWyTJOtEbA5z73OfPyl7/c3Hfffc5DNMPhtru2mqlHTjPLnrvCPl6FNrpm7LQbN9pKXP9HB6nA0cThkOfRib5+ahi39S0A13nEDHZXDKNyxIDkqRb4mPJqcT7KfnR0zTXXBC+12zb/SCZ6Hh4eNt/4xjfMWWedBW3IUf8iz1GNgMWLFxfpntvH5p/1t/WY7b9trBGQq6xJASyy0MF42m0cZqFD5bN0tfJalXAzsTBzXDRZYNpZZuy0JQFgkoM7qkw663WhWOp7Z58xdWeP3HiV6c/G0Yy57LLLzCc/+UkzNDRku5za9thjj5lXvepVwVsFqUIlXliwYEFQI2D27Nm5WkvhUPbKh769xvQ+kKgRAK6MzNgqxc4UNnmpQsqAbWquEofMWEFvWhB3cHEjSMRKcH5i2rOl25IAZEOqv9pOcuqR6BlviWljDDSYWS3O6+Hdeuutwcvr9a3hmQvuvr4+c95555kHH3zQpqL0thNOOCGoETBlypTSdGfZGdQI+NIq0785rBFQ2qApingzQgfkak8xydqcxbm1Q0Uaq4SbicWvn8UCruUJADMIUAqYQcPMMHHdvIW0lf48cOCA+ehHP9p0xrxnzx5z9tlnm61bt6IhU0j+9NNPN5/5zGdSawSUzWHhGgFiHR5b7pSUbWd8ZDTCmVjiuMo+rhJuZqxUKvkjJqLt9mfLE4CyJ0Rc31gNSGYiEufH5bjdAZmF8cYbbyxt09bN/01vepPp7+/PGrK0a1oj4J3vfGfT+lz9ozUC7r/mHjO4f7DpMdMUoJtumh57O1e7fUx7qyvn9t5jp5XJOJNDdP2k7hMomDaHR0sTADQIUHmES6afqAGGGBnI8qY10z82M7///e/bmkMrCzhUP6H/1re+Ff4sQSqInAu2GgFMDsMaAfea4SGHGgGCnRm3TDtzaG+4zMRSJd1ULMS7Yn/33xCytIaWJgA0K0Qxc/HyAcn0nJvuRx991KxatcpNOEcqvjD+7Gc/Mx/4wAdyepR3WWsEnHHGGeUpzNCkdgY1Am4q//MOvLRSDcK0Y9IZhFkuxWPFcnncNE0UDqn7RIGbkHYHUGUTAObEY/oJDTAmFnQhRYKR6R8bjo0bN6a+998slm9+85vm85//vG3Y0ts6OzuDsU4++eRUe9IGLWqn1ghY/+N1aWqDdjRuM5UlLhbFnVBTyikTC1M3ajwTCzNW0DWLuX4y7WT6B4mVliUATIOZjkIDEiEflWXayfQPaqdNXl8BKOORZucll1xi/uM//qOMIXJ1sGsEKICknetv6zHbSqoRwLxbzCUvIcDEkuQwMfS4OZ0oHDLXT5lwYzIeWpYAIOwwJ16V/MTFwgtIpn/S4uTQoUPWS2VhUT3vfve7zX/9139Zxym7UWsEfOUrXzHd3d1Oqpu2U8LBWiNARmcujDjusRm3uJ1Obi8kxMTCjBXUWOb6ybQT9Q8qj/DYkgSAaQDTUejdPxMLVTdzJiHRSJbNi8PBwUFz/vnnm9WrV5ORhOpXrlxprr76atPV1VXqeGl2ao2A1VIjQD8cWPTB255xREwsaRziKKvdo1oc8tAw18+xevevkdmSBACZAsyJV6V9jouFN5EQX7JlGbGihYJe//rXl/Z1wzwOTjvtNKNvP0yaNClVtEw7gxoBV99jBnoHgvGoC2OqRWkXeHFbJodJ9EzdybHyzplYqhQrzPWzWnby5oTGEj0BmDABCX5yOW8ix68zAxL1Dyoft6OdxwhurRFwzjnnmL1797YE8gtf+MJSagQoWBc7tUbAKq0RcAArpYwuRS5YihKMYkHGYeJGcLBlq2Unz6PM9RO9+68W5y1IAJAgZpKDZ4zEgOSpFrqpyhF3UmWZsaLA16xZY97+9re3rEaAjvXa1762gTOWnfo2wKrr7zHDg1WJFx4OFocNzmpzA9NOdBOlYuGFCvXzMGh4MDmMsFBfAWAagAZkZDDjmYmFqRvlgulPFAsij+KO5LVGwPvf/35kqKZkP/ShD5nnPOc5hXVEuF0V7H6w1zx88wOu4pAcigVRTlz/ERiBLNNOGAzQoVq4eR7162d2UFATgOyh669OmIDkxboQiimvFuf18ZB11krc3/rWt1J/fCgLY5FrHR0d5oorrjBaI0AfrbBz251SI+BH2TUCAiwBItY/LG4RFCiHqDyChSlbJdxMLPgrue6sw8kCEQyTwzgjtASgVQbEjUk7JvqJ+pIRHJBpBJTQXiV/lmBOqgqbnfohve9+97upfcq8oDUCvvSlL5klS5ZAam24sxTE5dff1mO237UtSxy6FtcNdXQQ5qUKDoMnRJh2JoZq6yl3HeJ5lIsbc0lVY4WWACD0oORwHUsMSJ5qhO5AFuUcHoDUAcWNyttgq473vve9LasRMH/+fPPlL3/ZuUaADTPUJnH54LfXmN4Hdlm7ccOWq91qUEpjGbGSoprajOJG5RHwXN0IErIs8a6SyWGSFUoCIAZUZlYzkTATEVw3j/IKuTMZv6WeZ9mpNQLe8pa3tLRGwDXXXFN6jQAlzGZnUCPgBqkRsLl4jYA03WU5CY1wm52lYWEuLGWBLEEPvg4hg6IeRXRjskw7mXGIWdkoTUkAGocpr4XpKPQ9dMSqKq0XzIBk6kb4VtmysWiNgHPPPbelNQI+85nPZNYIKNPOZI2AQLf+oz0qtAFUaYLS+C5/TsShlj3f6nXHz/KPqfsEMVaYHNpYa3sCwDSY6Cfqe/82R2W38RZSpn+ybWq8ysTiqnss1whQRvPsDGoESKEgtEaAi+5Gj/Ja8uxsZmSmbhQXEwt1EwU/sIzygsgz7WT6B7ExTbbtCUAaMFs701HMu3+bLVltTDuZAcnUncWX7RoTi5YKftvb3mb0bYFWPC644AJrjQAdm2Gn1gi4//p7zdDgMNE8LGnFpDHYDA4xBK2RZtrJ1I2yw1w/ZcKhcJzl28FhWxMApsFEP8F3/0wszMSF6R/nWTEiyMRSRHerawR8+MMfbqpGgNKI2BnUCLjJvUYAohv1PSrPxMLUXSk7qXfo2CbKXD+ZyUKVYiUtttqaAKSBsrUzHcXcRG22ZLUx7RwLAZnFjes1pp1x3e2sEaBcxLG4cuMqp7q1RsCGH/W4dqHJYdsFBoPJIYaEK820k6kbZYW5fjLv/lE7y5JvWwLADBpmxogSz8XCWxpR/6DyKI8s+WZxf/rTnzbf+c53WPDq9M6aNSv4eiBaI0CVFLVz3a1aI2BrHY7mT6oTt4gtRTlExnCVZWKhbqKuBo7IMddPpp2of1B5kMZU8bYlAKmILBe45GCLETVoiC+7cTm0OK1NTa22U8fTGgG/+tWvWmKx1gj4yle+YubMmUMbr45DmR4PfktqBKyx1whQEHXyJaPCZic2OHMuY0i40lT/wDs0z6NUf8J2cn1alva2JADcgCyLmub1cGOGN5FQy5n+RLEg8ijuNPl21Ai49tprnWsEpOF25SqsEXCf1Ajoc+2SIceL22btzABNTXKyxrVdo9pJvAmx2ZLVxlw/qclCllGWa0x/Woara2pLAlCHIOekneQkoTGDhqobnElV4jzpg6zzduLWGgH6E8JbtmzJgljatdNOO81ceumluTUCyhowqBFw1T1moHegTiWTc16qoJ/6YWqvo6itJ0z/4IbxOKf6cxyvny1PAJgBCfpJ4pcYkDzVVNzopGb6E8XClHexU2sEaKGgvXv3MqHUdL/whS8073rXu2rntgMX3PF+WfJBjYCr/miGDhT9+iNvUmThjtvXimMmFqpucD2kYuGFSqWSPyaHLrHe8gTABVQk025yIhz6zMwwmbrjNrgcV4lzF7yRDIoblY/GyXvWGgFvfetbK1EjIA9rketaI2DVdfeaYakRwOJQcRHXf9hspp0wGKBDtXDzPFqp9RPwTxVEW5oATJiA5MW6xAymnMk5U3cVJkeEAbVTawT88z//c9Sd/vyRj3zEPPe5z216HFc70RoBITAsbhFjXHFHOpkbBoolwuTyzNTtMn5chokFfyU3jiz7GPY9EQyTw2wWRq+2NAEYHbb8I6Kf/N1/+e5qq0bmxIt0a42AK6+8siV2dnR0mCuuuMKccsopdeNFWOoaSzrZ+psttBoBvFQBN57JIY6G1wPeGCEoPI9ycUNGgrdmmO7h4WEKiS1LANCJhMpjdFK4DCAwExHMRnmtgAiGqXu82HnJJZe0vEbA0qVLUfpG4hafE2GNgG0O4+G6HZQWEmFuGH5OFHJJXSfiklU3jtMJEUxVYqVlCYAT4QWFiH6q2N0/byGtSkAWDAHnbkw7k7r1/D3veU/LawR0d3e3JvmTcHzwW6tN7wPpNQKcHTMiiEZ4knN0vCx5pu6scVt9jZkUoW9ZMm1n2onGLWInMw4rmQAwDWYGJDMRQQJGZZkcMnWPNzu1RsCb3/xmc//996OmFZJfuXKlQWoE6CDN+DOoEXD9faY/tUYAc2nEKKJuABWa/M34M49Rru680euvM/0pk6J+sBLPmByiMFuSADANJvqJevePOoqbuPCCHbeT14Mbh+kcjqcaATYOtUbAvZYaATxPhpptWMoak6m7LIxl6KFuotR3xTHrmXamz3wMYzukW5IAIIZxJ151XEUNSGJWxPUPEinN3bnmjVS2nVojQAsFtapGwN/+7d+aiy66KM/Mpu7+48rtNQKw+YZJx0fPPx6r8y3fsnqJsuM2rp2pOz6OyzHTn1W6+2dzTk8AmAYQ9zn47p+Jxd/9uywJ2TJpcbjgLxZmd3S4mqY72bUdNQLOPvvsJIzC53l2ao2A1V9eZQznA8t1uPOw1AmDJ0zdIBSqONdOLJ1jrp/MZAGzkurOQsrpCQCCqkoBieBGZakByZxJqKFE+bJi5diXrTRHnHBEHdKydNcpHTlpdY2AD3/4w+ass86yQSnt7j+ufNf9O4MfD4q3uRwzF9KJMt+YccvU7RIfcRmmP5l3/3EbXI5bwTk1AWAaUKV9jouFtzSimpn+dJkQRWWycE/qmGROeN1JZubimUXVQ/0Uyze/+c221wiAQIPC2+7catb/sAfs5S6e5U93LXZJpm77iO1prZKdzPWTmSyMh/WTmgAgoc0NSMxV3KDBsFSHQwQJV7bsWOmY2mEe/8ZTzdQjpsLAi2L59Kc/3dIaAfoTwvEaAShuVH7drWvNtrtcagQw3+BS3bz5BgcLsQPqHwQKrpvHOdWfzEwEIVxkcc7BAUbEaQkA04AK+Yn8ihFvIqHhwvQnigWRd8U9dU6XOUmSgI5pHYh6SDaORY/f/e53t6VGAAS6gHBgp4Tug99cbXatKa9GgEKJc1gAWqldqoQFMaxKuJlrOTVZQAgX2SpxHodOSwDig+QdV4kcZtBQdYMzqTqpRV501F9nxsqMBTPMieecbCZ3uk2LZrFojYDzzjuvZTUCjj/+eHPdddeZrq6uelJzzoraGdUI2Ld5X+oIzDhE51tRO1ONa9GFauHmeRT1J0R/hdbPVvrTbaWDmOQKg34SMMSA5Kmm4kY91MqARLGVKa8LTPdx3WblK443ZlKZmtPvALRGgH5Sf8uWLeUOmKLttNNOM5deeqmZNKlkA0fGS8ZKUCPgi380B3oHUhC5Nyd1u/csX7JKWMq3blQj0058LR/FlXdETRbyBk9cZ3KYGAo+bXsCUCVymEHD1I16nZm3MP2J6kblIx6PeuJ8s/ysY6JT63NR3TZlWiNAk4BW1gjQtx9cHmXYGdQIkCRg8MBQ3ZDMOKwbyOGkDDsdhildBMWNymOAeR716yfmCVfpticArkCLyREDkqdaTMWUMyc1U3cxn3J6JReYZWctN4tOX1TKYC4cao2Af/zHfzT6tkArHhdccEGQdJQ5VpadWiNg1bX3mOFBLLYjfFm6I5n4c9Kf8WvNHqNYmh2vXf2ZdjLv/mG+iGCYHMJ2WjqMqQSA6CfZcostTBZOG5qYuhsGy2ngWZn+MncOJMrlMibe4150nDnixHkN+MrQ3aBUGrRGwD/90z/ZLlHaPvKRj6TWCNABy7Zz94O95uFvrwlsYcYhSlbZdqLjt0qeayfPo+j6icoj/POsLH++udjV1gRgzAYkMwpcvBaTYXLI1B0zoe2HaQtGWCPg8U3VCEA5bHWNgCuvvNKccsopTfvA1c6tQY2AdU2Pl6UgzZ9ZfVyvudrpqq8ZOSYWru5mrC65L/GukslhWSy0NQFAjGCSyVwwEBtDWV52wdPcnuw1jdsyY0VrBOjXA6MaAWXqTsP/qU99ytx8881pl0ttnzVrlvnqV79aVyNAB2Da2XPLI0aLBbk+mFiYul3ta4Uc107myoKxw1zLmVZy/ZPOYdsSAK7BPFehCSM1IFEw6XHQcIXrn4bh2tbg4p+ubqkR8KZTTef0TggnymEkr8/6Ib1f/vKX0HhFhefPnx8kAd3d3YVURLidO8v01BoBvat3OndxFXTxp6uupBxsZ1JBiedMLFzdGAlMf0qWi4EBpJkcAjByRduWAOQiiwkwyaQGWMwGt0NiQLoBGPNSrFjRGgEnnHOSc42AZolsZ40AFodxTrRGwP3X32f2beqLNzccU7EQN4AGQ9rYQOWQ+NkplDLmWs5bmVEry5VvSwLgA7J5JzI5RHWj8s1bX44GFHf3sXPNyr8/ofQaAWqNDYvWCHjd617XshoBT3va08xll10G1Qiw4c7yTlw+qhEwsOtAVhfna9QNoELJQpxDZ3IcBZm6HSHUxJj+pN79g0lROzlvSwJQ87DDAZMcNMC4awAvx+RpdnBgC0WYsRKZcdSf59cIUNmysGiNAE0CqlgjIOKkmWetEXCf1gjY3/j1x7I4tOLjTmbrkO1opHIIb3Q8BtC1HEEyntfPlicAVQpIJAhQWWpAVmjx4voTZd1dHsUdp3zZWSukRsBi98FyJPOwaI2Af/iHf2hZjYALL7zQnHPOOTmo8ctpdo7WCBjGlY708POtMHW1jmn+qQm08IDpT+bdP0pRuzlveQKAENRucuJY4xtAvL2cY16OiWquEucIt63G/bgX22sEKGYGlqrVCCjbzqBGwLceqLmcwWFMee1wPB9QOQSJY66fzGQBXj/BV0VAGksXb2kCwA1IzFXcoMGwIF7lcogg4Wx0GILWSNsWr0mTJ5kTXtdcjQBFj/hTawRcccUVLTG6o6PDfPazny2lRoCrnVvv3GLW/7AHto85l1EwiD/Htm7iGsfcRG2TGXVESfLMWHGF2NIEwBWUylWBnAgvN2Z4EynC7/pcJc5dMascihuVT8PSMbUz+HpgVCOgCJY03bZ2xV2FGgFMO9fdstZs/U1rfhjJxnGyraxYSepln1cJN3P9rFTyR0xcWP5sWQLAMqDIRGIGDVU3OJOYqUWV/FkkBlz75FHeNWdqoRoBOn4RDrXPRRdd1LIaAQsWLDA33nijKVojALZTgjaoEbBml5OL4PmW51CnUe1CRfxp19TYytTdOFpeC29lgf2ZBzV+HfQ9z8picz9uSlnHLUsAEMB4sPNcBcYMYqbI8nCDQAptRugYVZDHYysf9YwFM82J555stHQw6xHH3Y4aAddff73p6uoKzItjKdte1R3UCLjuXrNvc3aNgLLHTupj2pkcq53nTDuZ6yc1WQAdwsTC9E9LEgCmAaCfZMvlbbpM3bidaA93+Ur5k7jCIKrRGgHNcqhfC3zta1/b0hoBl19+OVQjQCOqqJ21GgG9A+6BmSeJODRPV+J6UTsTako55WLx62ezTuL6B0PXkgQAg4RKEwOSp1qMxJQzg4apG/UmU55ppyZ/Rz1RagQ87ximCXW6tUaAJgHjpUZA0j8HZfO/74t3m6EDjTUClAhmwp3EUkf8ODph2knMt3APEMGM5TisXAJADUhw00WijBkECA6VxVILTDvTPxiS4neXLuMUXS9cagSgHGbJa42A888/v5I1ArJwu/hAZfZt3mdWXXOPGR4qXiMgGKuoQx2AlmGnwzBOIlwsvJUFXT9ReSfyRoR4VnLXLMTGSJaeAIzZgGRGQcS+4zOTQ6ZuR/NaIsa0M7kYZdUIYBjb6hoB//Zv/2ae97znMUyx6ux9sNc8HKsRoEJJzq0dCzYyY6UgJEo3pp3EfAvnggiGGYe4oXgPegKAQKIGJPW+GLFSZXnZBU9ztbJXaqw0SaJ+GPDEsx9vZi2ZhQZGg7yrnd/4xjcqVSPAFXdkcJ68fjWwSI2AQD9zAyDqjrhxfc7j0FWPXa7JSWFXWqiVuekyrUT9g8oXIZOaAHAN4LkKndPUgETBIFHA1I3gIMsy4zDN95OlRsDj5SeE4zUC1EwmlosvvtjcfPPNZDZD9bNmzQq+Hrh06dKWjKeDaI2AbXdu9Xf/JTDOjEN0WUmbQyWYqROuFDU2JVTctgEJbdQEAMFLDUjiHTdiYyjLDEgczVjsQY2VEt3TNafLnHzeqaZzemchmlE7Vf5d73pXS2sEfO1rX2uqRoAS42yn+CaoEbDarUZAQDpzAyDqRgPGmUNUcUhioV6MTsxNt8Sp37TpXH+OwqMlAFwDquMqakAyFxhQN9efowFZ9lG7cU8fqREwuXOy+0ZXgITITq0R8KY3vcncf//9BbTgXY4//nhzww031GoEqIYIC64tv8fw4LC5X2sEbCq/RgATd75lrZOokp3M9bNKd/9V4jweabQEID5I3jGTHDTAwH0xz7TEdV7iwtOcMMHhlOpProMcrBsVcY2t7uPmmpV/f4IxQJ2gZjjUrwW+5jWvqXyNAGWyiJ21GgG7cmoEVChWRqOm/KMiHLqjwFYWJuWu883dtlFJzMrRfowjrj/rEVMSAK4B1XEVNSCZM6k+BnLPuP7MHb6wAIqbSflRf340rUaAzU6tEaBJQKtqBLzoRS8y73nPewpt6K4OjtuZVyPAVWckF9cdtWU9o/JZulp5rUq4mesn8+4f9VeVOE9ipyQAyUGyzqtEDnMDkHudLBqaugZrJhrK9CdTN+qAIovX8rNWmEVPX5w7VFl2VrlGgJLQrJ1hjYB7zWF5W6DhQYzxhrHa2NAsh2VCZ1JeZL652oaun1QsTBIthLQ9AbBgymjCXEV1FHNDb3EQZBDe9CKdpbtK16iUx5T/yYuPM0ecOK800/M2gDvuuMO8733vK228PEUf/ehHKTUC0uzsfWCXeShRIyAPY7PX07A0q7d6/bH1FsHPXJv93b+7J9qaAFRpIsXWaHf2nCV5E8kZQiRINLRa/uRx3sziNWmy1gg4KbVGAIPDVtcI+NznPmdOPfXUKOKsz2XaGdQIuK3HOo5LY5lYXMYrSwbFjcojOInLCvVrn4iNKtvM3M8bi+mftLHbmgCkgSqjneqoCt3987a55l+iLcOPrdDBXLxsdyMdUzusNQKYtmqNgJtuuok5RE132TUCXBZGrRGwXWoEBA+iQ12w1IgY0we8lYW5NtvmW5YbeFaOjfVzzCQAzIlHXC8k9pghlhXalmtEQ5n+sViS2cTEUtbiNTWoEfCEuhoBKG5EXmUvuuiiltYI+PrXv26tEYDgznR0/KJMswe+sdr0IjUCpD8FSxxXRY6ZdhKXFeodN+qasua+bVymf2zjRW1tSwCYBlMdVaENnZlaMP0TBV8VnpmLV97dyIwFM8zjX3+y0RoB7If689ChQ+aNb3xjS2sEfOlLX6qrEcC08/DQYbPq2nvkB4TKrxGguKs0J7hYeCsLc21GY4tnZbViJYsX/sqTNbrjNWawUzcAR/siMaadeZtRhKHIMxU3CIiJhbF4dR8rNQJeidUIUEqK2qlfC3z1q1/d0hoBV1xxhZk0KSyCgOJG5bVGwD1f+KM5ID8lnPdgbgB5Y7fyOsohgq1K6yd1jSPe+DH9k+fLtiQATIMZi3REIq6bt8TwNBffXCKexsozMw6RxejoP59v9GeEWY+knVGNgD179rCGrNMb1QioayScRHYGNQK+cLcZPDBU2iiR7tIUNqGIi4W3sqDrJyqPUMqzcmytn21JACBHEVNMomrExECWOqmrZCjMjHsHJofMxUgtXP48txoBKluGnVoq+PzzzzdaOrgVj3e84x3mnHPOgYZqxs6wRsA9ZljeFrA97K02ybHd1gyHeZZXalkhgmHP/TyemddbngBQA5L4Mg3uBN4Sw9OMby5Mf+Kcu/eoEu5ogfmTF68stUaAspFlp9YIeO973+tOWpOSrBoBaXYGNQK+uaZJ1NkcNq0cVJDlT1CVRZy5sliGy2iK5kSGSOFLTCtR/6DyhY1O6djyBCAFh7WZSQ6aMFIDEgVjZSulkak7Zch2NFNjBU0sC3I+qcOYE89JrxGgvJZtp9YIuPzyy1viso6ODvP5z38+t0ZAmXZqjYB1P+yps4+5AdQN1OaTsmMlbg4a4sz1E3m7LW6DyzEVtwsAskxLEwBqQKKLNJVY3hLD04wTwvQnjsa9R5VwJxcYrRFwkvyE8NQjproblCLpamerawToTwgvXbo0BTXenGfnuh+sNduiGgGg+jzdSXWofLJ/1jlTt6SWWUO39FpyTpQ5eHWsLD+ZL8JTSxMABCA32BEkOjV4YUO1E0zTqVgwyiHpSuEGObcZ2qU1At5cXyNA5Vh2ql6tEfCLX/zCBqf0tgULFhh95WHu3LlW3aXbKdNXawTsWrOLOJOtprStsXQOm7CEuX5W6e6/Spy7uqtlCQCTHDTASlijM/glJgsZo7b6EtOfrbYlazw0trJ0Ja9l6W62RgDqn4MHDwY1AlatWpWESTk//vjjzQ033NB0jQBXO7VGwP3X3mv2beLUCFCSXLFQCG1KKbZmMdfPrDnRlInqn2YVlNi/KrHSsgQA4a4q5ChmakAyZxJCuNpZISwIdBQ3Ko9gKftupPu40RoBVNwjRra6RsDpp59urrzyylqNAIXBtDOsEXC3Gdh1wMmtTCxOAAoKVQk3c/0se74VpDvoxuScqbslCQDTANRp3H2Ol2PCmomGVsmfqP8Reebi5ar76CfOl68IHoPAhmXj/tQaAVooqJU1Aop+EyGO28VoldcaAfcGNQLK/fojisUFbxVliMsK92YLJNN1foJqA/EqxUpLEgCEJJQcqqOILxqhdiIcorJVwoJiR+SpdhJXxmXPc68RoHw0a6fWCHjLW97S0hoB5557btO4XWMhqBFwtdQIGBxO7dIsh6mKK3cBvrVwtoC5Nvu7f2c3ZArSE4AqTSTiGi0k8yZSpgdtF4mGVsufPM6Zi1cR3X/ykvJrBGjopPmzHTUCnv/859uiuZS2pJ1l1QjI4rAU4KCSpJ1g90xx4rJCvfvPNMpyscj8tKixNjH9Yx0wp5GeAOSM39RlqqOIGzoaBLxtLn0DaMoxFeyMcg6ZwFwZR4BM6phkTjw3u0aAipZpp/6aXxVrBJRlp9YIsD3K5NCmvyptTDuZazPK31hdP5n+iTisVALANJi7RjNDLHKV4zPRUKZ/HK2riTGxMBcvVHc8sjqmdpZWI0CJdOHwk5/8pLnppptqvDMPZs2aZTTpKLNGgKudRe1y4bCobrQfEwtxWcHv/olg0PmJ+IjpHwRHXJaaADANpjqKePcfJ9/lOL4BuMgjMkwOERxsWWYctvq9yK7uqdYaAcohw07V+a53vasyNQJYdkYxyOAw0l2lZ6adVVpXqOsnMxEh6o7HITUBiA+Ud0wNSGYU5BmWuM60k7kZUXEnOMo7ZWIZC4vXjIUzzePfcIqZ3Fl8+iIcHjp0yLzhDW8wraoRcMIJJ5gvfelLTdcI0DhC7MyLu+R1pu7kWHnnTCwt2ovyTAyvE8Ew5z7TP27E2aWKryB2fbVWpsFUR8F3/7zsgqdZFkbYzpprx9QBMw7RhKtMzrVGwPGvPMGYSaE7mHaq7qhGwObNm1vif1uNAB2YbWdLjGvzIFQOwXWlzDmRpJW6fhITkaQdzHNaAoCApgYkMwoQI0WWaSe6GYHQKyPO5JC5GKEEuoTtUU9aYFY8/xhUdeE43LJli3nVq17VshoBL37xi5v6tUJqrFRoA+DaCYcXrwOR80rNfaKdSedQEgBqQIIZZtLgcs9dluliI/I043f/TH8WY8etV5VwsxaYZVIkaOHTF7kRUkAqyeHq1atbWiPgne98p9EaAfpIYilgTmoXpu7UQdtwoUp2suaE0kpdP8ENukqcJ0OOkgAkB8k6Z5ID+kmChhc2TDurdPfPtJOpOytGrdfQ4LIqsTeiUXis1gh4/Dy7skRrGRzefvvt5j3veU9CM+/0Yx/7mEFrBJRhJ8+i8jQz7URDnLl+Mtc4Km7Q1Ux/2qC0PQGwgUprq5KjmDkmugGk8VVGe6sDsgzMqgPFzYwtqm5dpSdPMo8/J79GQFncqh79ut6ll15apspUXR0dHebzn/+8OfXUU1NlmrkAxwq6MzYDrsS+qJ0lDt2gijonGkZrX0OVOLex0NYEoErkUAOSuWCAuseqnVWKFe7diG2a5rdN1hoB8hPCU4+Ymi/sKJHH+cUXX2y+/e1vO2prTkxrBOhPCC9btixXUR7uXAVjRKBKdjLXFe58w263mJwzdaeFdFsTgDRQtnaUHHBftA2Z0YYFTYaihks8zQ1D5TagnOcqrKgAc/Gi6k4EedecLnPKW55g/v/2vgTMjqM6tzS7ZkbSaJdG0owk25IXeWExGBMbgh2wwQTyiBcgEG+AgQRi4yQPbJwvLwk2+TCBRwxmTWKzGB5LHEjAW2xDFsCEYAK2wbL21Ytka50ZzYzeOdXT93b3requ/3afe3tmqvWNbnf1X6f+81d11bl9+57bNrPNqHTR/cn2OEfAgw8+aGyv6MLFixfrIKCvr69o0872itbQueGcQJR3YmjlbD1eXfSaiDfV1CNU82aQbVoAUCZxRAek5JUEjphp46ek5oK2iwj+Zi7OnyOAh5Xr9ck5Aq688sqG5gi47bbbCskRgPgJXmricNf+ESdCDUjOK5Lv/lFtJDWXtJ3mZ9MCgDRSec8JztFErYhp2uwhbFnQ0WYNSLMycqWSk5ek7TRFdI6AN1VzBDBWsj/5p4P564GNyhHwkpe8RP3t3/6tmjFjIglCRAxJPyVtR1xo+q7gtCIaLKDzp+T1OVnGSlMCAFQcFI9cQdNlEEwbP0VnL3SKcR+JqOWsa2LB8+vLEcCMs2ybvOIcAW984xsbmiPg/e9/v4mKc1k9fjobLxFQ0k/JecW/+5cfRE0JACTdkpz/Jd/9w5oIOio5YcB+ClaQ9FN0YnTUhHMELP2N/roWdMcmYrY5R8A73vEONTo66lo9F+7qq69Wl19+ecWGaH8KXm8VBxx3ZP10JFEHrAzXREhblAsazYekmvBa+gBAdLBL3s4HJwzJMSM52CX7B70eRLmA/YlyR/CIn0iOAOaA2DZx5hwBf/zHf2w6JVJWT44AJpLXzzRnJG2ntWs6J8lFcl4x+ZJWJjp/Cl77kv2Tpld4ruEBgKTDgv1EekkOsbA7HF8FHZXsH0fvGgKT9BOdGEVHFl3hJ1x2kupd1lu4rjYNG50j4NZbb1Xr1q0r3L/QoM3P8HwjXyW5CE4r+Gf/gmTQ67OR/dvothoeACAOig72Ei3okguA5GCX7B9knDBWlIvgZNQIP1s7W51yBBSp4Yc//GH11a9+FXWvLnxPT4+64447nHIEcANF+pkkLGk72VbWsSQXyXkly6/kedH5s0TXftLvIo4bGgCIDkjJUQAqLeknzV4gG3e4KG93GuLIMvkp15ssY9V655z0HAGo6Fka8vlG5wjgIKDoHAFZfqK65cFLchGcVnCXBcmUKnAR9NNV9IYGAK6kGCc62CMToxun6kTqhndHyVnm6V/SuruP0kjJsYIGXJKa5/WzewnlCLhynWppq73s89o29THnCLjiiisamiPg9ttvT80RIOGnyfdml0n6iY5xFI9oJznDSWqI+MhYKS61MwHKzBEv5UAgjiOJBsAk/UQXI0l3Rf0UJF4m3pKTV/Tdf1TOvg4Vu54AAEAASURBVGP71Jo3Ha9U7Vfoo7DC9vfv36+/Hrh9+/bCbKYZ4hwBt9xyizFHQFo90zl0rKB4U5vNKCvBG9Gq24JkJAORqgNue2UZKw0LANxkCVBlEWeCDUIdwkouAOhgL5fm7jKWiTequbuXxb4DWPiCRWrwvFVI8zEsqnlZcgSgvGNOT6KDMvkpek0I9kmpNBQMihoSAEiKiWojOiBRMsgAlrSN8CCsZH+CVGThgppLBn+2d/9RsQbOG9Q5ArhMsj9D25wj4O1vf3vDcgRcc801sRwBUd8l9kM/JWxL2kSHuOT8KXmHU5Q32EFlGisNCQAQfcokjstEivgWxcouANGWsvfLpXk23xCB8kbxYTsur5ITjBRvNEcA65CHS6NzBNx4443qvPPOc+m+GkweP2uMNbCgTLxFr4kGatrMpqT7UzwAkHYA6RzRAYmG0hBxLFyYtH4imkhjBfsT6005R2e0zlDHX3qiSI4AZm269r/0pS+pj370o3JORSy3traqT3/60+rkk082colAc+2a/MxlsKSVJeeVMr37l+xPSdv1DBvxAAAhhYojOEcTbblpWs4yonaARTXHWyhHDUk/JSdGnDc2ulq72tRJ9BPCnXM7MzsK52I2WeYcAcy4KD/N3penVNJP0WuiPBKKMpHsn5C4aADQCAdCR7JeRQekbCSS5Vrs/LTxU1JzQdvY8hzr2sIPQi4dczrVuneeqtpmthXWRtq1z+f4M/oHH3ywsPbSDC1evFgnJSo6RwC3meZnGieJc5JcJOcVyXf/qM6iGgrOK6ifIV40AAgbkXiV1TKcGotnDlsWdBTmUrwcDbEoelEL3inCxam/R9NyBDCPojXkHAH8Qz6PPPII7mYdNdauXas4R0BnZ/qdjqL9rINqQ6pI+ikZLKAjXJKLZEdJ9k+Ud2kCAEmHJQeBJO9oR7nsTxs/BYMiyXcj8OQl6KeJS99xc9WaN+fPEeB6TXCOgN/7vd9Tu3btchneuTFnnnmm+vjHP15IjgAmY/Ozvb09N1fUgI0LaseEl5xXJK83ky9pZaIaCl7LaT5lnRMLAGTFzHIrz3nT1JjHXo66goOmRF7mECi7qug4nCLv/qMqLnzBYjV4fjxHgKSG27ZtUxdddJHat29flIbY/oUXXqg+8IEPGO0X5eeCBQuM9stSWJSfJn9EgwVTgyllZeKSQrPmlGT/JBsTCwCSDaUdSzpcpkEguehK+inZP2njwnROlItgwGXyJa1M0s+scThw3spKjoA0jqZzKG/GP/roo+ptb3tbQ3MEcIriPJvNzxkzZqhjjjkmj2m4ro0LbMhQQXJeMTSXWpQ1blMrZ5wU1bBE80pShlIEAElSaceyWmJDTHLQSN4aw7xM641yn5PsH3RilNW8eOvHvGGNmnvCPOtt7qJ7vtE5Aj70oQ+pc889t+JGUWPlhBNOUGW+A1CUnxXhIjvoNSE7xxV/TURcnTK7TQ8ASjUgBbtVcjjCF56kn4IRmuRYkZyMULkl/XQdh5wj4ITLThLLEcCaJP384he/2LAcAW1tbeoLX/iCOuWUU9DuqeEdNfDmN785eii+n9SwyAZLNa8U6VjClqSGiaYyDxvNpekBQKYiEYDg2hJpxW1XtKMEHXVdAEIVRP0MGxF4LRNvVHNMDjnrLZ2t6qR3uuUIYM5FaH7TTTcp/lnfRmw9PT26reXLlxfS3KJFi/RDjYUYEzBSRP8URkt0jpO7JlD/S6W5gXxTAwBJcfDoVW7QyFmmSbdED6JJ9qdh7BZXBE5GkppLaljPOOyYXXyOAO44m59c/r73vU/94Ac/KK5/UyyFOQLmzJmTgso+xZ/9c4Kj2bNnZ4MLQtg0LMI8OsZRPMKxnnHral9SQ1cOIa4ZXJoaAISOu7w2QxwbL1Eu4GJk41hEuaifRRC02CgTb8nJi8O/RmycI+DEt61TLW326aJIzUdGRtSll16qHw5shH/HH3+84hTF3d3dmc3Z/OSg5fWvf31m/WYBbLybwkdwjpMMRFCtSqW5hbz9irZUKKq4XOLITaRylvF3/6JcBC/qosZcEXYkJ5gyXRNJLnOOLSZHAPdB0rapX/hrgW9605samiPgG9/4huLb+MjGvzdwww03qOuuuw6plhvromHuRhwNiF4TjhzqgZVKwybNn00LAJAOQztKdEBKdpSkbURwwqKag+bLAxfUXDLgQt/9F8HFlCOAO1JqrHCOgEsuuUQdOHCgIePlxS9+sf7o4Y1vfKPihT25Jf087bTT1He/+1119dVXJ6GlOk7yziInOX/SYMlqvu7zorxBVqjmoPnC4E0JAMoljuSALKyfchuS81JuAajHacmxJTnBSPJGdUzjwjkC+n+jHzVZwafZroAiO7/4xS8Uf2d/dHQ0Uiq3u3DhQnXLLbeohx56SF1//fXq7LPP1ncFZs2apT/f518WvPLKK9Wdd96p7r//fnX66afLkbFYRjW0mCmkWPSaKIRh+Y00sz+L+/WPkugsOiAFo1c0Mp60fpZknDANyQtPMuBCJSyay2rKEXD4mSG199E9shpOXG/33Xefuvbaa9XHPvYx1PW68StXrtQ/WMQ/WjSdNsl5BZ3jEN1R3qLXvuQ6gYjigG34HQBUeBTv4HMEUvTUWDUtZ7nahuueJBfZ/nH1MMBJckEnGIQ5zluuR1246BwBl+M5Alxs23TjHAE333yz7bQvtyiQR3OLyUqx6DVRaWVq70j2j4tyDQ8AXEjVixEdkCWK6qaLn/WOA5d6khee3PLs4lkcI8WltbNNnXiVe46AOKv6jhqZI6A+hvK1ZMet1GghXco0fwpykewfidFV6gBAVky5wQ5blhyQEqNmwqZs/2DEJblIBlyYl4yGR5dzE6iGHXM61Lp3naraZmZ/kojaNuG5jB+4e+CBB5x9ms5Ak4ZF6SF5TaAjXJJLUXqZ7Ej2j6k9U1lDAwBJhyUHgSRvU6eklU0XP9M0yHtOsj/hyWuyBn8TgUiQI+Dk1BwBefsrWv/IkSPqsssuU7/85S+jxdNiX3bcoiMXkFxwjAMsNFRUwxL56apLQwMAV1KMk+woyXdRiI8aKzhoBC9p4f7BVJQcK5IBF+Ylo+V6NI+Gc47rU2vefLxSM3CPTDWyuOzfv19/PXD79u2m6r6MFMjSMI9IZbomysQlj6ZZdaX6s2EBgJQDLFyZBoHcFC3rp2T/ZA3uRp4vk5+SXBo9Dhe+cLEaPH+VsSsl/Ny5c6cOAjhh0HTYJDQMdZs286fkmy3QtmR/hv3q8tqwAMCFTIiRFQebGkW5gIMm1MflFfPSxWI5MZL9g06MsprLWS9Kw4HzKUfAWctyDRSEy6OPPqq/k9+oHAG5HGtgZURDlBZ6TUg+/AdzQZ0tCV6yPxsSAEg6UKZBIDdFy777R8e5ZH+iXBB8mXhLcpEch1l6H/OG49TcE+ZVYKJ+UgDNOQI4D7/f6lNg2syfgm+2UOUlrwmUS0MCAIRUmcQR5SI4INEFQNRPpPNBbJl4o5pjrspZRzXMXDBaZ6gTOUfA8lmYi4RGuYQN+BwBoRL1a1i1UOCe6Bwnd02gCtQ7bl3akbTN7YsHAJIOZE5GNQrLDRo5y/7df003NqAAH1vupGSvCXceUsiWrjZ1EuUI6JjbKdVETbBw4403qjvuuEOsvaloGB2HoteEoMCon4JUasatZFsutsUDABcSIWbadJRgZBxq6fpaJs1dOTMO5Y3iIS4IGMZKhpYYGWQB4BwBJ7/zFNXW3e7USN7+4fp/9Ed/NK1zBOTV0KmjXEGCcxwyDl3p1ouT1FzSduivaADQCAdCR7Jf5SZSOcv4u39RLoIXdXb/NQ4hOcGU6ZoQ5UJjJcgRsK7wHAE23pwj4NJLL52WOQKkrw7Ra0KQvG2sCDZpNV0mLiFJ0QAgbMTlFRVHdEBKLnSStl2EjmBQzSNVJ9WupJ+SAReHf8iGoRHLeCAaWu87tk+tfUt6joAi+4dzBFx88cVquuUIQDVE8WF/Or0KznGS876TbxGQpIaStiMuyD0D0CgHos7Y9+WmRjnLdm9sZyS5lKk/JblITjCSvG1jwlYuyiWxACx8PuUIeI05R4CNX55yzhHAQcB0yRGQRyuXuqLXhAuBKYARvd5y6FOaOwCID6IDMjF5IbwysaDtyepnmQa7JBfJgCtzLCUAklyKGIeDrzLnCED7xxXvcwQkBkjk0FXDSBX3XXCOczeM34WS9HOy2k7qLRIAoOKg+KQT6cdyU6Oc5XSPTGclucj2j8kbe5kklyIWOhtznLdcj+JcbF4ZylMWgGN+d42aF8kRYKhdaNG9996rrrnmmkJtltGYZH+KXhNlFFOAk2T/5KUrEgDkJZVWX3RApkxeaZwkzk1WP8s02CW5yC3P+GiS5FLkOJxBs80JV6xTvSvwHAGsSj39yTkCPvKRj+CiTtEa9WjoLEWZ5k9BLpIaSto29WPTAwBZhyWnRpOcKWWSAzKl2bynZPsHYyfJpciFDvPKhJYbt5Ia0gptciZW1trZqnMEdM7rqmtBjxlLOYj6yTkCvvKVr6SgJ++pqJ9Fe1Gma6JMXBCdJfsH4WHDNj0AsBEzlUsOArSjsqc6kwduZWXy041x+VBofyIeoH1fJi6Yn6inbtY7Z2M5AthqHg257nTPEZBXw8yedQj+ojZkRlbQQp6xEuVo2pe0bWpPuqypAYCsmJJDDOwW8OJArEt6ifYPikf8lMRKBlw4b7keLVP/zFzSo058W/E5Alhvk5+cI+D3f//3p1SOAJOf+Hgz1yjTNVEmLma1iimV7E8bw6YGADZS5nK5idHcnr1UkonkYG/GALOrKHemTH5KcinVOKwjyO07bi7lCDhBqRnpY6EoDTlHwEUXXTTtcgSwukVpmN5TbmdFx20d49CNNa5hmTS3+di0AEBWHGyIiXKRHJC2Xm1CuaiGgv6gARc2slDictbL1D9RLxe+oNgcAVl+co4ADgIme46ALD/RkRfFo9cERRfR6oXuw1wKbb1xxiT7M82LpgUAaaSS55olTpIHH8sNdbYtad3kjb2sTJrbWdaeKRNvSS7lGSnUBzkXgMHzVqn+s5bVdqY2XbynnCPgrW99qxoZGTG2OdUKJcchqlXxvVllUCo/c14TVa9k95oSAEybjhIcBOiFJKm5pG3Z4Y9ZRzUvk3WEi2QgatNQ5wg4cT5CswaLjMPvf//76tprr62xMRkKED/F/RGd42yjRdyrmgYkNZe0XeNIoqApAUCCQ+ohLo7coJGz7N/9pw4CoZP42HInImrbnYZGSnLJ++4/dGVG6wzKEXBSLEeAKG9q+Pbbb5/yOQJQDZsR/IVjIM8r6meetrLqlolLFteGBwBlEkeUi2BknNWpyfOSfkraTvqRdSzJRTL4k/1gKUu1+PlmLgCtnW1q3VWnKM4RIL2FY+VDH/rQpMoREPKW1sfJvuAcJzkOnXyLgCQ1l7QdccG62/AAwMqkkBNy07ScZfzdvygXwYu6kC4uyIjkhSdpG3VflIvAWOmY06lOftepqnVmG+RqvX5yvfe+973q/vvvh9qbimDJRXe6zFmSGkqMuYYGAOhFiuIRgSRtF3VbFPHHhpX0U9K2zR9buSQXyckLffcvyUVy8kJ4d3OOgLfL5Ajg8ZMcK1MxR4DJT9u1U1e5QPAX8pAch2Ebrq/JseJazwUnadulfcY0NABwJVUfDplisBbkLGM8GC3JpQwDElcEryHpp6Rt1FNRLoILAPupcwS8NTtHAGOL8JNzBFx44YWlzhFQhJ+sl2mTXHQl5yyTL80qk9RQyqfSBgCig11y8gJtSw6aSashONpF/QS5SMIlJ1LRcQiKEnLhHAErX7MKrJ0OTxsrnCPg4osvVnv37k03MgnOpvmZmz44xyHthX3vWkfSz8lq21U7xjUsAJAUU/J9seSki3QUYyW5yPYP6qkcXtJP3LZcj+JcAM0FF4Aki4Hz7TkCGFu0n7/85S/V6173uikRBCS1tB2ji67NjqlcboSbWmtemaSGkl41LABAnCj6oo62LWk72o7LvuSgcfWzpRUfAlm2Dx486OI+hOFbtKYti4upTljW0pbue5kmL0kukuMw1Nr11cTlmIvWqPknL3A1YcW5jpX/+Z//0dkCDxw4YLXV6BO28W/i4epn1vg32fbPNxlVES107c96SKTPgPVYNNSRdED2fbHBmbQiwXdGUgtAS2dL4e+innzyyTSV6jpXhM3kOGzpaq2LSzGVpHq0+HfFMX/BMV6ElzNaZqjjLz0xliOAOSX7M8Yz58FDDz2kLrjgArVjx46cloqpzh9PFL21drWVK/uo6D3OotWr2jMFrdWztXuS47a2tfSShgQA6RTiZyXFQW0XMXnFvaseoYOmWjN7D/GTv3td9PbYY48VbVJx+tbkhviZrMvHbfTb9LYN7fu8XGw8uBzlkmYreU5yHCbbyjpO48KL1bp31p8joJ7++dnPfqZe8YpXqJ/85CdZ1MXP/+IXv3BqA/GzDQ2AmxD82ZxG/LTZsJVL2ra1aSuX5iIeAMg6IDk12rrEUg5eHBYrxmJJL9t6sADApT8feOABxV+tKmrjnO0PPvhgLnMm3u097bls1l9ZrkdNftbPM1/Nor3kHAHr3nmqauN3rpLXW8T2rl279J2A2267LZ8YOWoPDw+re++9N4cFc9XWXuzaN1sppjQt+CumhXJYkRy39XgoHgAgpMokTtGTV1QHycGOati1YGaUWiH7/Nnpd77znUJssZFvf/vbKvl5LOqniUzXom5TMVxWBBdbo6Uah5GF0ca33nLXa6Knn3IEXHWyQj6/zts/Q0ND6j3veY96wxve0JSvCX7961+vGf8mnVE/uxf3mMwUUiY6biXHIWjbddzWIyran/W0IRoAyDqADTFRLuCgQToK8xKxHGC7F7oHAIiGN998cyG/tsbvfj7ykY/gjjnUmGnxXVZzOetI/zjIkwsi5yXlCDi2T611zBGQy4lE5fvuu0+dccYZ6vOf/7waHR1NnJU55ODjL//yLws3zmOlhxIuOW+ic5zkaHH2UBxYpuszdFY0AAgbcXktkziSw1EyYnTROY45qmYik0C8curR1q1b1XXXXZeKcTn5Z3/2ZzXvutCxYsNDE6CFrM22BQ4VS45DiAiDS7YALOIcAResznQD7Z8sPD+N/773vU89//nPV3//93+vxsbGMjnkAfzJn/yJ2rZtW6aJLN4mA910N0Vikxy39fgp4SPblJzLG+WnWADQKAdcOleUi+jE6OJdFVOPn7NXz1FqRtWGba8e21/72tfUrbfeajOZWf7JT35SffnLX87E1QOYMWOG0r4nKktOXrKP8yUcyTgUnbwy2s51OnK9DZ63UvWfvSyXuXorb9myRf+GwFlnnaW+9KUvqcOHD9drylqP73z93d/9nfV8nhM8/vuOoWvfZYto7gJHMJLjEOHB2HrmONc2JG27cjDhxAIAU2O2MlwcuWlazrJsxGjT1l4eeNrR2666FxfzWXjYVrQ/b7zxRvWBD3wA+jiAb/v/6Z/+qbrppptCk3W/RrlEjfQs61Xt5HuezWY7j82wLjoOJbmU7d1/qBG/HnthMTkC2FY9GnLioHe9613quOOOU1dffbX+xsD4+Dibq3vj2/7vfve71Z//+Z872UB5M75nRa9qm9XhZB8BoeMWsi0YiCA8GCsZuKD9iXKP4kUCgEY6EHXGtC/KpUwDMgeXvjVzTdJVyvJqyO+QXv7yl6tvfvObqYEAP+3/jW98Q2O/8pWvVNqP7uTlEtriXPPJTXLy4imjLJvo5NVgJzlHwAmXnaR6l/fWtFzUWKkxTAVJ2/zRwBe+8AV1zjnn6GDgiiuu0HcGNm/eXIM12eMyXvj5Wnne856npL91MO/E+TYa8fIc80rcUO2R5DisbS29JNmf6WjsrKRtjEkt2uHmb22lrJKBgYEdPT09S7Nw4XkXgTgT2HFvOp6qYBOpi+0Kj3DH9RW4ONDBjnlZOyGluxC3vn/rAfXzj//UWgXSMEOT3t5evcCvXbtWLVmyRLfJyVZ+9atf6a/6JZ/2T5Iqistp175Q9S6LfwYaVyXZcvwY4RHURKxjoxzlAo3FjP6MqwLyBq/ltDsRw8+NqP/+yE/U8J6hCiVEFwTLDSD4rq4utWbNGsVjfvny5WrOnDlq1qxZavbs2Tog5s/4H3nkEXXPPfcozqKJ2Ea5hLZPv+EM1WMImirihTtA/2MjnMeKe42Qd0ir6FfEfhbvX3zy5+rJn+yqUIRs2/XeRnZWVIwWtNP0L4Ii4qA+S9pOm4xQnnnxef2cRbcDu5d0q0O7DtVQyWs7aTD8imD4NUHEPoJNths95q8/5Vn8o7bc9t0nOraHod0YhKisySvE1fMqyTuLT+ecDnXyu09VP7v5p2r00BF4Ec2yHz2PjkN+PuDhhx/Wf1E7ReyjXLjNXvr4q+jFH/VFchzCXOyLLmqqBl9P/9QYESwQ+QhAjq/cFCNnGVdDlovZ+qIXBu/GcbbVGuhgR/HVlrL30mwvPiOfr2m2s5kVixDlIjgxwio4cOFvdZz0tnWqpR2b1iQ1RG2jeETH0PbSl/Yj1Zyw5lnFqeqkAkkGLmH/NFIQ7EopmJmkw5K20Xf/k2HQLHnJUtXaHb8hJKohOJaK4tJGPrKv0a1Mk5ckF9FxGBXUYV+KCz/PcsLlJ6kZrSKfboreWXCQLQap55rgB1+X/IbDNyccAq4YGcGDevx0pTNZbbv6l4VragCQRS56XrSjog01eV9yAUi7udxKefH7XSaGgvQR7c+Uyav/ZcsV+1rvhvOW61GcC+B1ioaAlWKgIJf5pyxUa958vOKvumVtohpmNZ44L8kltL3itwZVK/obAAmeyUN0hEsFf0leRR9PVt5pOjQtAAgHZBq5es9J2kY5SQ6aov3kACDMj4/aRvGIjkXZbp/VTt8bXx5rGp28YpULPpDkIjkOURkkuYQaLjmjX62hbIH8LYGiNnQconiEZz22O+m3FJb9Znz8G9sEAy6jjYIK6/HTtWlJ264cQlyzuDQtAAgdd3ltljhGboIXRzh5GdvNXZhtnW+Pr7xgVe6WsgxI9mea7VWvPYZ+SKb+d/9ZftWez9a8to5bSZqfbhZSUOAYl/OSOIJcol4tefFS/TPCto8DRDWMEnHYl+QS2j7mwuPo3X/8Yz4HaoVCJIO/QokmjKG8Q80TZkp32JQAQFIc1Lbk5IUOGmR0oH662uaHAWetnO0K1zgpLmy8KNuzKevZohcujvmF9n1RXGIkJg5QLiYbtjLJcWhr01YuycWkIY/nk999mv4FQRsniXLRsVJHUNS3dq5a9CKHh19B2ybNi9KzbBoW5VfSjqSfybaSx00JAJIk0o6bKU4NL/DiqKmfUiB5IaU0W3uK7pged8lasQlTsj9ttttmtqk1b6QcEsXdDa7VraZErkdtftZQaECBnJdEvqDrbe7x89Rp1z5fdc7rrCiCaojiKw057Ejb5o/1Trh0nQMTWYhk8CfLHLM+mfxseAAgOdixbkp7JA61VIuXHAS4htg03bWgSx170ZpapwwlOBeDEUtRUbaPpYCma36XpRW34qK4mFrDesdkwV4Gj8OCFl0TI5iLyYilLEvDnv5Z6gX/+0WKgwHpTXSsoP1DQe/a3z9Rdc6vBj9F+Z+leZ52yqSh6LhF+zOPqIa6DQ8ADBysReggQPHWhk0nBDtK8kIyuZJWFg72+acuUPzEfJGbaP9YiC5/xYBacMqCmrOymstZb4aGNeJNFMh5SQ0IXG/tvZQs6A9OUyteOej0DYHQb0nNpW2vfPVqteC0haEr6a8CmocNhvNKeDxVXyebnw0NACQHOzqgJCevcg2C+j1d9drVatHp9s8NJfsTtW3CL3z+IjVYwEONJtvoeLPh6+8dm8Uc5dNgAeBvBax6/THqlPc+T3XNzXdXyKS06FgB+2fxGUvVyt9ebaKZu0xy3EpqiDouOZeXwc+GBgCo+AheVEzwwoN4I2DCSvpZM9jp9uGx9ORwEbdNJXmbJJx30ny15k30NTDD5/6Sk5fsB0smT+1lNf1ph8JnRDUEr7d6uPBDcS+4/sVqCS2Sac+GSI5bSdv8rv94uvWf5lus00HNY3UzDiTHYUbTNaclNZf0U4p3wwIA1AEUX9PTKQX1TBgp5mKnJAdBrCGng/ye8leoOLPa4sQTxJL94+RaBJTkspCe9j/hsnWUDS4CqnM3abtOM8ZqaO9IcpG45R46XaZrIsqFv/bKn4+fds0L6Lcw4j8MFXJHXiX7B7HNQc2Jbz9ZLhsiIgqIRfwETcPw6FiBK2dUKIufDQsAMvTIdVpUTMHIGHVa0s+0wc5BAD8U2P/y+p4JQHmj+IqO9G6fP/NfS78aaVv80UW3YttpR9a6E4UJUFp/InZM2PJ4Wcz9ljnH9qkXXPcidczvrlHt3e0Vl+sehxUL9h0R2zT+V75mFeU+AFMhC85xkuPQrq75jIjmE01J+inJu7lZIcz9ZLzNPbx3WI0ePKLa6CsteTbJyQsdBJJcipkaI0rT5MLPBMwenK0ev+NXanRoNHKyebvhxcFf9eOn/U0P/NXLLrRdb/0i64lyKdMC0CQuLW0tavk5K+gjgSVqy92b1Y7vb1Ojh93HuGj/OAwk/qofL/zz6YFXdB5yMF+BSM5Zzdaw4iTt1Kvh6P4RNfT04aipmv0y+Wn4hLSGL1wwMDCwo6enp/KLK6jDNnxrR6tafOZStexlK1TbzOD+rg1rIw0NYHAyQgcNwgX1EwkAUN6HnxlSj3/lMbVvw3M2mWPlCHcEy40wnpP88Pf8s77qh+gd2o45knqAWcfQgZ+pzUdOov2J3P6HeaM/bgxcc5JcjuwfVlv/dava8YBbIFDPuI10Wepulm1+noEX/655wUONUP8DejNJRHOIB9sGuaSKljiJ2ka4M3ZsaExtv2+r2vTPGzIDR5hLoMs2cmlFwq3ch6ULAFzE4Xd7/BW1pWf2qxnt7i4gg1crCw5IbNBgfeeiS9Ui5inEOzRNr0/+12616dtPqCMHjlSbTuxhvLFJoJWCwJUXrM58kCukFFIPj9NeUd7Y1IihUS5IfyKLP+uFaBjggRrw9ZbWg/FzkCbs5wSX8SPj6qn/elJtvXezOrj9QNzoxFGINZ40FBaF75jdqVa/4VjFKY/Dh/1QP5H+B3pSe41yQXUxSGstQmwjvMdHx9XOf9uhNnzrcTWyb8TafngC4cF1IvjJGQBEHAg1SH1F8PwQT/9Zy9QS+mtx+PlPdABjFwdmHUEjmgTiultHBjvbTs7RY3SbdMcPttMfvVM6VHvLFOHuim3roX6nH/VZSv3umtvfXZEJBZOOBsUp/7u34I7EuaD9WdOhhXg4wRsNFwDNYQ0BLrZxuG/jc2r3j3bpgODIgepkb8PbpETwJmwH5TNYRh9XLH/Fiprc/lD/A3qzL83Q3KYhUm7SMK2+i4ZHx47Swr9dbbjzCTW8dyjNXOwczKXaR1M/AKhXnM6+LrWMLgbO9T7D8lgjOniRiZF72GXQhCMB5YLpgllHeGs/LebHhsfU7h/uULt/vFsd2nVQu4rxjkW7oVSx156lPZTPfKl+x9/S6X7nR/OOWUo/QHmjU6NFQiMplAvUn9XJxdh2shDhzXXLwgXiwbwzdOHJ/9n1e9UzP39a7aG/Q08dSkplPc6ynawYxfcs71VLX9pPf8uMP2mN+onMcaJ976B5UhfkOKphVr0sDdnWU3Tn84lvrFeHdx/KHCvJ9iAu8XE4+QIAxFkWCsGbsDMXzVT8e9fz11Hmt8T6gA5g7OLArCNok5/JQRU/dreeNdjjdrl/kiXm44Pb96snf/qkevZXe9WhnQed+tXkJ/+ee09/j+pbM1cteMFi1Uv74YZwd6QdmnbiWwHrHfcW3JFBCyZd4m1XjxBNAtoYGwQtyQXhwX4iXBC9A+WPqsNPD6nnHn9WPfvrvWr/ln06AOYgwbSh9ntW9Kp5J8ynr+EuVj3LZ5lMVsoQP50v5gnrZm8qTdfsIFxQTWoaSylAbafx3vPIM+qJr/2a+nh/pUXEPoLlBhL4qR0AJJytCGzbScP3rpilvw4294S5lerQAHZd6Saspw2aCoEKNlmSfpzmZ21NyEtoYuS2EFlCTUbp+YDn6NYp3xXgiPkwvVvijwr4CevxkXHtQktHC93KbFX8kc7MRd36r4e+lz179RzFTzcnt9B2stx2jKlSc+HZzE6UY9YRNNb32EIHdSZ5ivBmYaA+QgYWyAXiwbZBLiZl+LmBAztovD8ZjPehp4bo8+FhNUx/fD2M0gNjrD9fA/ztg9ZOGvv0XFNbb7vqXtxDOQm6KfDtVbOPNY9/1je5oX5K9j/KBdc86b39GLFt4/3s+mfVhq8/rgO8aEuIba6H4A3YSRUAbOru7h6MipW1b3DYWsUVO4u+sjZw3ko1axX287bIxWEbNDbyyETq6me1LcQ6T13ueHReRGwjerOviG13DwMVJTWX5IJooj0FOxThLskF4YGOFY2HdMHYIKZRDSE8QoREwbwEr0+Qix67jv+h13JSQ/6W04Zvrlf8zt+0IfYRLLdlwD9BxceaeOQpa8tT2VZ3bGxsL50btJ1PlhucTULqOt6/eZ/65ad/riPpwfNXqZ5lvdl2JAdkdusNQyQHe5ENT1bbuAbo1OjegtQ14c6gipTzktoQvd4w5pKaC7oJBcTVXpXZk7z2ZRjXWj2444Da+I8b6FtOu6zRj+xYMY7bp2uZ5i8RCQBGR0d/TNROy08vvwXuKP587ufr/5ueDVhIdwQGVdeCmfkNkwXJwY4PMOOgKcZPOdOiCwDqPK65ewuSErqzmEAKrkai1wTsqGQFuR6V1BBVRM5LvvTlrKO2WfOhZw6rzd/ZqL/VdHS8OG4oF0sf/dBSnqs48ahcLluVygsWLFgzf/78X/FDXFkbKk5ePKe1XXDqQv2wYOdE4owKR3BAIhcqOpxQP62hasW56g7Cm2shsqC2IePMhf65bu7IwCKmOWYdQWM8ME20p0CHIrzZNtI/eN8H/eT6P8IF1Zw9dd0AubVJiDfAIzDuzpvxCBrhrW2jwmgH3P5D+nP42SG1+bub1Pb7tyr+Xn/WhthmWwg+BbuGTD2exQ09n71CoxYn8CtWrNhC2QAzMxelOGxsGcGnYVtaW9TCFy6i3wZfqdrp4Ru9AQMSHuxGb+yFadxrayGXKTZJA5IEEiJTBmhcUnNMb3bVXXN3ZNCzKBdIF1jzgJPL/xAPNlgiLpjmWI8ibqIaonhEc8xLdF5BrbuMwCrGpT+PUGr5Ld/bqLbcs4UeSKYHMx03F9uhKQTLdSz4jXRqdWizyNcCfi/NTKezs/OxmTNnvtnlLoDZQm2pRZxaoEMJ2+LMXrt/uFONDY/qr9jwE7kSGzrUi/Qz6Q88YSQNpBxL2k5p1ngK1dxoxFooa93arOGEpOaiXiKrIvktyUX0epMkbhgPqUWg5qm2Eiclx2GiqczDrP7knCVb79msfvHJh9XeR/eoo2PZ7/rDRrNsh7h6XlNsX0z2NtRjM6uO2B0AbnjJkiV39vX1/baNRIrDxioIHsFyY/w1tGUvX0FJNpaqlvb0uAgd7OgcgHHHrCPc0fkCsa07GGgAtY2ogunNzN2tuyO1IrZ3AMFJw/+QLoDe3BTCHeKhjSPWZblg/Q/yxuCkuXsFBKuHDtD/7iy0ZYw3wCOwjv1v689xWug5be/Gf1xfSdtrw9paRPAIltuz4L9GpzgAENlEAwBmvGzZsp/NmjXrVBN7i8MmqE0cI5YL67XNHwf0n8VpZvspvbD5jgB64SEXE8I7cN7dOszb3TQ0AWje4CSAcAdoT1BBaiBYbOFiMkj/I5qgmmNesp9gDaD/QcsQF0RvrSHgJ+Bi0D2Aba4AaQ6SQTSHeDBvkIsWx/E/k21+oI/TlW/69oaatL0mvK0pBMs2ELwF+xCZeZGNTxHl4gEAk6Q7Ad+eM2fOBdGPAywOW31C8AiWGzThw/TCnIErxhu+SK0uGU+YuBiBuhC5TLEJA71G0UmARLe7lTiD2na3bO77RPOJQ8Q6a+6+YX2P9SeiNzOGeENoNo5Yl+WCaQ7yxuCkonsFBKtHIKC5OwttGeMN8AisY/9H+5M1euonu/V3+Q9RErLkFsUmz5mOETyC5bYM+K9T8YUmHkWWNSQAYMILFy58NT0T8A+UIIjy9Bod5mLjZhDHiAsLEXwWljPTDbxyQM0/eaE2j154yMWUxSX0r/rqbh3m7W4a1wWcBBDuIG3ThVeVt2YPs46hwWsCWCyCDnJn444MBEL6p0xcJK839hMZ5qiGEB4hwrx1J7n9B/HQmiDW3TiEqGh/6rS9/y+etjfEha9RfFhme0WwbCMHfjdVfwv93cN2pLeGBQChI4sWLbqKAoEbu7q6+sKyrFdETATL7bridXrhcwZUNL1wJu8sQOK8K5egGnYhIRcqOF9A7wA0d6ABhDfbRlTB9Eaty3KBdAH0xr1kPwHVBblAPHisQFwAH7VtVtJ9Q7gjWM0A8BPzEux7IoNp7q4fI9l2JW3v45yLzr6hPBA8gmWGE/h9tHs9/X2Cyxq1NTwACB2jOwLvpa8J/gV9WyD1Fy7qFDNsJvMVsc/Y2avmqIFXraQ89dnphZGLCeEROOVuHZ0wgPlCU4Hsg8YR2+6KTCgIcuHpznVzR+JcEE20dcBPmDegSZm4SF5v7CcgORZAsW1Ec4SIts3s3TeEC665O4/nNlC+/pS0vUlLCBcEy+2A+IOE/xuq9sEkx0YcNy0ACJ2jQOC63t7e6zs6OrrCsugrIiaC5Tby4PuO61ODr7anF4YnUuhCxawjF2mgS7QH0vdR28jMiNpGVEH7nqddZEPQKBdIF2hcoV4yHvBUkAvEgzoS1RxRBnQT0hD1E7vekBEO9n1dmmfz0Wl779ygdv9kp3MXoX0vhB8mu58kD6+lP/fvIWZLAiGaHgBMsG2jjwY+RoHAO9rb2yvpiYWErwiE2Ddh+eHAeScv0D84NHNBPH4BpkXRyYidRSYNyckLmYxg3pVeddsx9Wd6TfcedUcGLSJckL7U1sEORbhLckF4sJ8IF0TviR4KXhz/RyRHeHPzEB4hom07OjgBQ7jgmqdz4bS9m/55g9r5gx2Kv96HbCgXBO+AHSXMHcT3CvobQXhLYMsSAGjfFi9e3EOL6hfoo4E3tLW1tTqIGdMEwSNYbiQNz+mFF55G6YVfOag653bRRYptabZrLWHWkYuU20LmDNQ2Yhy1jamS3p/5Na+1YCvB+n7yLgBI37NWSH/CYwUZ5Lrj3NmgphHuCDag7c67fJprD2r+G95LaXvv2qR23L+tkrYXuYYQrNYE7NAU++N07i6yeQn98ef9pdhKFQCEitBvCcxqbW39LN0RuJBezV/GD8ETrynCJ5DBIYJ3xVbSC79qkNILdxjbTRa62q7WQy9qdzw41oXfjbjzZm0QtKTmCA/NGxB9Mi8ASAAAawj1vnDwB5BH+xPCA+MKvX4CvLuj+PXGLcS3IweO0MK/UW27l/L1R9L2orYl8RbbVHz0e+TNW+lP5Bf94kphR6UMAEIXKBBYSh8J3EZ3BM5paWlJ5WoRPzQVe0WwXBHBM7a1s1UtObNfLX/FCsowWPlEI8YhPEBsB3WACw+eGENW2a/QZMTmgAkJte2uSOAXpjlmHUFjPDjIQayjmgfauP4PcQH6nttHvIR4sG2QC8IGNY1wR7C6D0Ey5dJce6D/GxsaU9v+dYva/C8b1ejh0eqJiT20PxE8gmU6BvwPqYzf8W+eoFu6l9RFtSxs6ZcFj6eHBG+nOwIvjCblCfkZhA9PGV8RPILlxqL4tu62ifTClFWwoza9cBRrJFpTiFymPHW548H5ArKNLP5aQ4B3gK8Rylogqbm72gE9lAvSn7jmVslqTkA8uDYwuGAN0bECcOErCNkQ06iGKL4smqNjPNSbf5Vv57/H0/aG58JX1LYkPmH7UTrmhf/nIdeyvk6KACAUb968eWdQ/oDP0R2Bk6KBQEL8EG58RbBsAMHbsDq98NmcXniZiv7gkA1vJK4L3SckdMKQnLyQyUhrDky87ooEqmKaY9YRNMYDC+aCoeLOxh05oSHQP3jfB224/o+Mc1RzJABArh/2DeKN6K2NYz2KoBHeARXEOukyRml7/82ctpftRTe0PxE8gmVOE/gN9HoZHX4/yrPM+5MqAAiFpI8GXk75Az5DgcBxdXZUaCr1tWjbnF54+Tkr1KIXLVEz6BMNzD54IQGThuTkhS8AqJ+pXRg7ienNVd25uCMDSigXaOIFOxThDvHQEiLWEcUZC9qGdEFtB/3q8j/MG/QTueYwLzHNkTHO2Kf+y56216Qrat9kw1YG2t5GeH6q/26bvbKWT8oAIBSTPhr4HcoqeAv9LQ3L0l6RTmU7CB7Bdi/uVst/ayK9sHMPuF+q8ATjbhqedJHJSGsOTHYAbT0skD7CliIUDY4tQJMJR/WLy3+whggXaMGtQ0OAC9b3rJy7MqCbZNnddsAEwINkAMs4b0cuex/Zo9brtL3uD8ej/YngXbGE20N/f0B99BXup8m4OS8/ZXaO7gi8g4KAm7LSC7t2LPuKYOvF9w7MUivOHaT0wvMy5EUuU5663PGO12iFH2JbVwIaQG27e4n3J7QAVNRx24HHFtCfeMDlxplRaP+UiQumOTKyeGy5a4jqKKk5SBvqfxe9n1v/HGXve1w9++u9ovOtC5doDzrg942Pjzc8bW+UY1H7UyIACMXg9MIUCBjTCzt0amhGv0rik7Z1euHzOL3wnBiH6oH7pYpOGMjkhdpGZ0bEvrsigYpJzavamvYw6xgaC0YQTbQnQIfCvJFAhMmUhAvW95q4ltLlP8BFbQ7tTwgPkkH6H+JBnqZpvn/jPrXhW+sV/2BPuKXhQ0z4imC5DoLPwB4kc39Di39T0vaG/hf5OqUCgFAYTi9MvzoYSy+c0bFhVf2KYLlCUfi+4+aqwdck0wsjlylxASZpcL6AbE8IqV9c/kN4sz1EFbR/MOsYGuUC6QJ2KKQhpDh3EGId1BDkgmkO8sbg0DUE9b2+KNzJuCPZMPcPVsOk+aGdB9WGO5/Qn/VHzZmwQavm/xE8gtV+msftMJ37JC38TU3ba1YjX+mUDAAmJGmjQOBv6KuDV1EyofQv4yc0LGjQJKwGh1m2w/TCg+evVF0LZlIl9wsPv0iNFK2FkH3zhVSIbXdFguayNI+TwqxjaF4X3WtAerMTkO2411lHk5ULoneggXv/MB6QHF9EgWsfIsK8A2ed/kf7Pqn58J4htek7lLb333aoo+O1LSfxaaQQLNtB8AYsJx64gxb+UqTtTdOl3nNTOQDQmnB6YerAz9M3Bn6X0wu7CGUYCNZqCJaNuOI5vfCiFy6ihwUpvfCcTmv70RPIhYpMXJo3NGVoR6PUUvcR3gGXVHOxk656VyvVTlDVc7V7CBrlAukCdijCm70uCxeIB/OGdMFUgUyDGqJ+IgEA5iXY9xHNj+wfUVvu3qy23bOlkraXTsc2rH+w/sxhW6ftpfqlStsbE66ggykfAIQ6cXphenedmV44x6AJm7K+1mOb0wsvOn2RWnHeKtXR2263DS7QkpMXMhmxQ8hkB09eqKOAjpJcEE30oAD8hHkDmpSJC3q98UhENkByaIwzB6j/ESLaNuIlxoU1Hz1IaXu/t0ltuy+ettfUKtJHCJbbQvATWHo5+j36K2XaXpN+ecumTQAQCsXphekjAWt64YmBEMJTXxEsG0LwSaxOL/xSTi88oNq6am9kQBOG5pLqWuwkahsJAFDb2BSNac5THbIh6GR/ZrUD6VKiBQDpe9YA0hBCo32PsQElhxZ0qO81bXcV3ZFsmPvHvUZW2t7AYvV/+JoAREdt013i0qftrSpX3N60CwBC6Ti9MP3OwO300UAlvTA6aBA8gmWONnyYXrj/LEov3F4NBJALFbiOtFyIbXwBcJ9g3JFBL9s0DM6a/ndvwR2Jc4H0ZvNghyLcJbkgPLSbwGIk2feo5KiGEF6w710157S9u/59p9rwj4+rkX3uv3CL9BGCDfrHbXSR3Udp8Z8UaXvZr6K3aRsAhEJyemH6nQGdXjgsc3mVGpDctovtDnouYNlvLldLzliqZrRh3YjMGdBkFJB3kU9jUNtul3S1eRcdI+jqrsMewgXjgb3r0lSBDkV4s22ojwAegW3N3uk/iAfzBrmwp64bahrhjmA1X5CMu5fZfc9pe5/88S5a+J9QQ88chjRH+wfBu2AJs4EW/stIw0mTttd1fCI4bOVALE8ybF9f38soh8Bn6OuDa1youwyy0A6C5ToIvnNul1pGvzq4+MWLdXrhsE3bKzhfCC8AyHSETNGYhoFW7lzckROWAdEn0wJQM8YgP2tqpxaguiDXEDayeGylUo2dhHkDgQhEhFgBtLUPNu6s7dP/9SQl8VmvDj15KMAiojAXAI9gmUwans5to4Wfn+qfdGl72beiNx8AJBTl9ML0OwOp6YXTBljCnD6UxIe2uxf3qIFXUXrhUxYqldKrwHWHLf7sKWDcNrmY9NOmbScs5aEultOJYmxqRNAYD56kEevkBqR5wu2MQ4gLwIObRbyEeLBtkAvCBjWNcEewuutAMkVozml7n/j642r/lnjaXkRzBKvHCuqnAU9t7qGHwP9wbGzsy1o7/59WIGWpmN4KcXphSi18EwUDfUklkAGMYLmdvHhOLzx4/irVt6aGNrJWaJehCclw0SV1ix5DtlmXaOWMfVRDxDrCg2miXCBdYM0zhIuchngEjkZqp+/CGkK9j2qOsUEkRzVE8cgFjXnJV0S8xnPrn9Xv+Dltb3KDxzggYl7bVJ8jlQ/Su/7/m+Ttj1PfK3p5WAF6RuC99LFAJb1w3gGZpSpiPw3L6YUHXx1PLwxcdzUTQBZvZDJiW8kJJs1+fCpKQwbn0nSprY1ZR9AYD0wT7QfQoQhvto30D973tb2QVoJwQTVnT103QG5tEuIN8AiMu/NmPIKO8t6/8Tm1kZL4PPPw07pZ03+I5ghW8wZFD+3T65RL22vSPm+ZvwPgqCB9NKDTC9M3B7ocq2hYOCBd6iBYtueC71tD6YUvWK16+ntcKFQw0UmgUmjbQS9SaDoCJy+QC2IdmURZKpf+iUoqq3m0pfR9iAebAjVHdES5YJojTDA3Yd7gNYFojnnJV8RRdXDHAbXxnzbUpO1NjhxM7zquCWBsTXAZptcpmbY3qX0Rxz4AwFRso0Dgb+iOwFUUCGSmF5a8OBDbnF547snz6Y7AKjVTpxdOdxqdvJDJiFtG7MOTFzBhMBNkw9DYZIdoojkDfsK8EV0AHsxbkgtyTQT97s4GdBMa44Eu7lzw6y3w1uX/w88cUpv/eaM1bW/SBqI5gtWaYKKP0m3+KZ22N6l9Ecc+AKhDxTC9MAUCv0tJhapfxk/YQgY8guVmEHyI5fTCi09fola8clDx1whtm+xiBEx07KeNpKE89NNwylLkbt0dGTSFcoE0xyZGTEMITb6WiAumOdajoJtQAAD1PQ8vgIyrl/z9/a33blZbKXUvf6/fZcP0xuaswE0n9py29256uO9iqhN/MtHFiWmO8QFAjgEQphemQOBCigNaoqYkL468tlvaKL3wCxerAfrBofbejihtaOLSFYHJiPHIZOd0+UfYY7pg1jE0NtkhmqCaw7wFAwBJLljfByMxMnRSd8EhDo3xgAmgDEgmy/IRStu75a4gbe/YMP/2jfuGao7gHbAEOXoXLfxvIcb2BxTc3ZmWSB8AFNDtnF64paXlNgoEzqFXranDAK60jGC5EoJPw4bphVecM6Bau4JPNGQXo6zpqCKJ3kHQaX7GrYZHiHUOXNw3lAukecELQNQriAdXLBEXTHOkN2E3oQBAUvM0L8eGx9T2f91KOfs3qtFDwcKPaVjcPBQdg+F+Ghc690Na+Dl73+YQ71/rU8AHAPXpZqzF6YXpFwdvp4RClfTCRmCiMG2wJ6DQ4s91XWy39bSp5S8fUEspvfCM9tiNjGTz8WN4AUibkhKm44eZRy5+Vo248+A6GNpN85BLsxaAsP3o62TlgvU9e4z1KDLMUQ0hPELE4qVO2/sfO9XGO9fH0vaiGkribbbpM/5pnbY3eq0Wte8DgKKUjNjh9ML0kODnKBA4iR/AS9tsg91WB8EjWG6vfXYH/dgQpRd+CQUC9DFB5gZMSNBERw0jUzTqJ2YdQ6NcIF0AvbnvEA0DPFBDkAukCfsJcQF81LZZGfcN4Y5gNQPAz6SXOm3vQ7to4X9CHX76cI1DmIaY5nltU/0NNI9ePjo6+mANcV+QS4H01SmXaV+Z0wtTMqHPUCBgTS+MXBwIltWvF8/phZefO0DphZfY0wsDk5HmAixHyckrayShfiJLoySXRi4AmRoC/aNtAf0Pawhwkex7PW4B8mh/QnhAb8077HDi/9RPd8fS9oanoq+IjghWcwG4R23T/jZa+K+khf+uKFe/X5wCPgAoTkurJQoEXk+BAKcX7o+CooM9Wm7bl8SbbOv0wucNmtMLIxc1MKGz78Ccq6UycbdpiFpHuGA8mAlgHdC7Lg1LwgXShMcKqAvS/6hphDuCnRjk9iGdOBOOqj2PPKM2fGN9TdreBBzWENEcwTIvxtPfHtr1aXuTHSVw7AMAAVFtJumjgbdTIPDhML1wPReHzXayvEjbvYOUXphyCPQdNzdoBpwZkckunLyS/tiOUT+hBcDWqKUc4YJoopuDNbeQNBRLcoH7EwhEEL0DtzE2iOSohhAeIUKO7uW0vd96XD3362cNvV1bhOiIYLklBE+f8e8j/A30+vFalr5EQgEfAEiommGT0wtTEPB/6G92BrRyGrmQuBKCd8XOXs3phVep2aucaWPvcpl3xWO3HVfugTXMOoLGeLCfiHUWxh3vjgxVAWoAPNg6YBnWBNUcYQO6CXGX6vt9m/apTZS29+mHnwo61uF/VEME74olHKft/Rjd6r/egbKHFKiADwAKFBM1xemF6Y7A9S7phV0vJuaAYFE82+b0wit/+xjV65BeGJ3soAUDnaWB5QjhAWsI8GDbyOKv4bqS239o/yBcYA1BXbBxjrFBhhaqIYR3IHJw5yFK2/uE/qz/6Djqpzse0zt7HiJ7wzRKP0UL//vo1S37kNuw9ihHBXwA4CiUIEynF6ZAwJpeuOgLL+pLvbb52w3zT1mgVr5mleqypBeGJjoi5T4VBR5g3DHrCBrjwX4i1lkYd7w7ckJDhAvAg61LckE1R9iAbkL9WWTfD+0ZUpv/JZ62F9EFwer+BIRJs03nRunvq/Rd/svJ7gjb9ltzFPABQHN0r2mV0wvTBfF5elCwJr1w2sWUNIRguS6CN2F1euEXBemFOxPphdHJDlkwTFySWsSP3a27I4MWUC6QLsCky2wQ7hAPbdzdujtyQkOIOTZuMVXYdsDJ5X9UQxRvIjNy4IhO2bvt3i2xtL3wOAQcLcg2fbw/7tP2ugysBmF8ANAgoV2b4fTChP0sBQI6vXBBF56x+SJt6/TCp3N64VWqo7ddt4dMdsCcG9gGJi94ATCqZS6ENQQXOtMCYGaCesl4QHVIb1kuqOYIG9BNTEPquDyaH6GMfVu+R2l7KYPf+MhYzTBAdEGw3BCCN2CP0sLv0/bW9FjzC3wA0Pw+MDLg9MJ0m/0f6KOBc8P0wkZgpNBw4UXO1u4ieFcspxde+hv9ahmlF27rsv5OUg0ZYCmCJqOgIXfr7sgJy+CKkWcBqBEtUYBwh3hwO7CfCXIphygX17EYNImogrkJ80YCLiY/ofnYyHhN2t6knJgmuRf0ZPOx4ygX2v8RfcbPP9SzOQbyB6VQwAcApegGO4lZs2atpSDgi3RHIDO9cPTCs1sMziBYroHiW7tb1fLIVVz8AAAbjUlEQVTfHFD9Zy9TLRnphbEpGuWCWcfQGBd0wQgXgKy+1P3jAopgIC6Ci3/A3V11dBxSD0W8Tt8F3cTezVPTqObjo0fVrv/cQdn7NlDaXn5ezr4huiBYbrEePNV5lBZ+ztf/cztrf6bZCvgAoNk94Nj+7NmzX0yBwOfobx0/gJfc6rlIkzbSjhH7UWxHXycFAivUkjP7VUtbLW9u032KxicjxDrCQ/MGVwx0AUjrj+Q5hDvEI3A02VzqsSSX6NhKJaFPIkx4bGVbjCIQHSHs2FG1+8c71aZ/2mBM2xvlwPuYJhgetU3PMfm0vckOKvGxeUYuMeHpTo3TC3d0dNSkF0YuVATLeheB5/TCK36L0wsvpfTC1V4E51yQC2YdQ2O6IAuAVgdYjWDeUMilB0C1wzL2JLmg45B6KINt9TQgt66E9qcTnui6pO2tsg72EF0QLFt3xdNn/NsI7tP2Bl0yaf73AcCk6ao4UU4vTImEbqE7Av2uF2loQRKfZVunFz5/UC04ZaFSNPrcp2j3ySj0E7OOobP8rHII9pwWgLASuBpBGkKKE6ESccE0R1SB3SQV3e27YPc+skc98c3H1YEt+50XXR4umCbF42nh30McfNre8NqdZK8+AJhkHZaky+mFKZFQJb1w8rzpGJk0ECy35YqfRemFBzi9MCUVct1cbVftIZN0tZbLHsLFZQGItQksuu4eBi1MVi6I3qGnMU0zDgDJocWfm03T/Ln1zwVpex8P0vaifiJ4BKt5p4hCtvbR7f4bKADwaXszxlaZT/sAoMy9A3CjOwLvobsBf0EfD6Tm6S1yEkjSq8c2pxdeeQGlF17dlzQXO0Zt87SLbAga5ZK2ANRwTJl0a7BUgPDm+mXhAvFg3pAumCqQaVBDm5/7J9L2PvPzp7lbKhviJ4LlBorAk42D9OfT9lZ6bHLv+ABgcvdfDfu5c+d+gAKBD9rSCyOTAIJlIgg+ie1bO5FeeFlvjU+o7cCA+yLgjpywDKwYtgXA6GTgqPVU8gTMGw0XID+T7NKPEV2SYyXdMp/FlAHcxAIozSTO5VAkbW+SJuqnJD5pm46H6c+n7c0efJMK4QOASdVdzmTbKBD4KH118J1ttIW1khd1WG57RfAIltsz4XV64VMXBumFF86M0TLhY4DYQXzSjZ0yHCBojAcvRYB1ZCUiPwDL2uuycIF4sJ+gLogyqGmEexQ7/MxE2t5/36Fs+foRPxEsd369eKo3Srf5fdpefQVNvf98ADD1+rTiEacXPnLkyOcmsgq2IpMAguUGEXwWNkwvPHDeStVB6YWz8BWHKzvuS6M7MjCOcIkuABVqaTvgaoRwl+SC8GD3ES6I3oG0GBtEcoR36OeR/SNq6z1bVDJtb8C1+j/qpyR+wjat++N3TyTx2Vdl6vemkgI+AJhKvWnxhdML08X8Gfpo4KLW1tbIl/AsFagYmWAQLLfoiq+kF6aHBdsn0gvbGYdnwAUgrObw6so7NIUuGCRMWDXz1R0ZmIK4ADzYOsIF4sG2QS4IG9Q0wv3IwRG15a7NOoPfmCFtb9Ar1f9RPxE8gmXJ6eG+u2jhfwvtxx9QqNL1e1NEAR8ATJGOdHGjp6dnCQUBt9FfanphcMKAJ2nEPmN1euGzlqkV5w6o1q7KJxoWl92XI3dk0BTEG1oWyT64GiHckYVLewpwQXiwbZQLojmy+GsuAHlX3mPDY2r7/VvV5u9tVKOUu99lw3zkoQIQZ80d8fQm4Ud0x9Cn7XXptCmC8QHAFOlIxA1OL0zfFridPho4PW9WQdfJJeSXB9/e066WvWKFWkbphWe0m35nAJwYQ1IOrzBvwQAA8xJcdB0Xi1AySS6o5kgAALqZGbiMj45T2t4ge9/wc0OhPE6vqJ8I3gVLC/9jRPQSWvwfdiLsQVNGAR8ATJmuxB3h9ML0bQF+RqCSXthlwoi2JIm32dbphSkQWPrSfjUj9omG+3Lkjgy8tXGJahHdd33HqOuAqxHCHeLBZAAuCA9tGgyKMM0xNoCbqYv/UUrb++RPdsXS9mK83d+hB92D+mnH08K/kbheRrf7H2Tbfpt+CvgAYPr1eY3HnF6Yviyg0wtPlsmLneicx+mFB9WSM5borII1jqUU2KfF2kqwJuBCV5pFF1kVSSZEQ1YVCUZQzRE2oJtm3uQ8p+3lH+o5tPtgbNAg3BGs1hAgb7NN5dtp8b+CFv67YsT9wbRTwAcA067L7Q5zemG6I3ALpRjut6OqZ2wTTBUR30PwCLZ7SY8aOI/SC9NXCDm9cNYGL1zApMttIwsdsvgHtrO8q56HeGjjmDIIGuWC9D+y+KNumnjvfbSatreqdrCH8SbmwNhCsIGf8R6iRX8P/fm0vclOm8bHDtPlNFZnmro+Z86ct9ODgjdRMJCapxeZkBAsy47gQ+yslbPV4GtWqbkZ6YXj02J2J4f2s5Hg4h846mJWY2DeyHt0YCHStJ1ZB0DTQmozgegdWrfZSpaDbsaCueeeeE5t/Mf16tlf702arRwj3BEsN4Dgo1ha9PlrfDfQZ/w+bW+lp/wOK+ADAD8OrApwemF6WNCYXjg6wVgNRE4geATLTSTxOr3wa1erOZRmOLnBiyi4YiALHRFP0ks9RtAQD261RFyS/ZkqChLk4G7qAGD/5n1q03c2qGTa3iQvjHftuE3aix7XY5vqHKTF36ftjQrp92MK+AAgJoc/MClAdwQ+QA8KfpCeE+gKzyMTEoJl+wg+DcvphVe97ljVu6wnpA0uFyAX1Dqw6CKLv9ZwknJJ689KJ8Z23JUB5NYtHNx5QG389gb9Wb+LnAh3BKv7EyBPi/4w/fm0vbFx4g9MCvgAwKSKLzMp0EZ3BD5KHw1cRcmE2k0AWxky2SFYbi8LH6YXXkU/ONRF6YXdl4ts20l/oXfdwISu/Uw2lnIM8dDGEVVIl5S2k6dQLln9GbePMOH+jNe2HQ3tGVJbvrtR7fi37da0vcm6GG9sbLnaJpxO20u3+i8nfiNJjv7YK5BUwAcASUX8caoCnF54ZGTkc/Sg4IUUCJi+jB+r7zp5hZWk8EF64cVq4PxVOr1w2F7aK8IFXeicVyMi6LhuVVyZrFwQvQNnMWWyAoCRAyNq2z2b1bb7tqqxI2MVPV12EO4IltvOwtP5cfq7m65LTuLj0/a6dJjHaAV8AOAHQl0KcHphShmq0wu30GYzkjV5ReshWK5XD57TCy9+EQUCr1mtOmZ1RJuP7cO2kWU6ayWKMREOAAS5oIEIpnlxi/+RQ0fU1rs2UQa/bSpM24twQbDctQg+DUvneLuLFn6ftjdxzfhDNwV8AOCmk0dZFOD0wnQ34Db6q0kvTJOTpZa5WBKftF1JL0x5BNpm1qYXTuLNjINSdKFD3v1zC4iKklwQHgFv9xqI3qHqwavb/6ahyIs9p+3dQot/NG0vygXBI1itoYk4naDg+0d0A+6SoaGhTW4KeJRXoFYBHwDUauJL6lCA0wvT1wZvp2cEKumFi5rsTHSKss3phZe/YkD1v2yZaukIPtGAbSNLtGVCN/nIZe5LaGABCgAEuUA82E+QC6JM0vT4GKXt/Q9K20sP+I3sGw6Ei/yPcEGw3ASCN2Hp4b7HqNyn7Y30l9+tXwEfANSvna9pUIDTC9O3BfgZgUp6YQOspsg02dWAIgUI3gXL6YVXnLNCLXkp/c5Aq/tlgS50/t1/pBMjuy59VIVjYVEYANAn5erJhyhtLy38h58+XDUX2cN45F/QI03X7Ea50MK/kf582t4alXxBHgXcZ7o8rfi6006B3t7esykI+Cz9rXFxPjrZZeERLNtC8B1zO9XAKwfV4jOWqhkt2ZeHZACALXP8nhioEa6KWWJPnAcsYzzA/gnouLMJ3QzS9j5BaXsPpXqMjBUEy43Wg6dF36ftTe0xfzKPAtkzXB7rvu60V4ACgf9FQcAn6M+aXrieidFV2Hptdy/tUYPnr6T0wous6bKgBZcJh6uRI3n3ZQ5c/EEuCA9tGglEtCxICwhWqT2PUNrebz2uDmzZn6l6vWMl0zDso/6Mfw9Vew894PclF/se4xWoRwEfANSjmq8DK8DphekZgZsos2BNemFk4kWwTBLBm7CcXnjlBatVnyG9sGQAgC1zYAAgGIhozYEAwKR5+uByU+ZZh7S9yXYQLghWa+KoOb3j30d/Pm1vsnP8sYgCPgAQkdUbtSlAzwi8h+4G/AUFA7MZIzWRFm2bswqupPTCswY0be0eFAA4LgDaMOsS7ji8QjzYHsAF4aFNQ8zR/s9mc2D7AbX5nzfp7H3I2EKwgYTZXBgXbln2adE/SJiP0Tv+68M6/tUrIK2ADwCkFfb2jQpwemEKBD5IX2WqpBc2AiOFWZNoBKp3EbwrlgOB1b9zrOrur6YXTrZrPC7LogvwYD+wZY7x7jVcNa/qabd9cOch/XDfU/+9W5NGbUvi02zTuWH6St+nKHvf+8jP8aqvfs8rIK+ADwDkNfYt2BVoozsCH6VA4Cr65kBmeuG0iTTZBILlugie0wvPO3WBWkV3BDi9cOYmuOgiC67mWSIuiOa2UGRoz7BO27vz33fE0vYithEsa1gEnmzotL30jt+n7c28gDxASgEfAEgp6+0iCnTTHYHPUyBgTS9cxKSbRgixH2L564JL6NsCQXphe1bB0txyF1z8WVskGAk1TOuT+Ln4u/+RA5S9j9L2bqe0veOj8TfOqG1JfNI2HdPd/vG7aeH3aXvjHeyPmqCADwCaILpv0qwApxemW6HG9MLJidRsIShFsFwjL76VEggtOXOpWvHKlap9VuJGhuCiiyy4WpkSccE0ry7+Rw6O6ux9W+/dosaGRoMOT/yP2cb6v17bVI9Xfp+2N9FX/rC5CvgAoLn6+9YNCnB6Yfq2wD/QHYHfotvtM+qddA2mjUWI/TSsTi989jKdR6C1ayK9MLDoVpc5I82aQskAQJJLmoY1TuqCo2pseFxtf4DS9n6P0vYeNi/8DEVtS+JD25y2l34uw6ftNXeuL22iAj4AaKL4vul0BTi9MD0keDsFApX0wuk1grPhxFs0lu252Nbphc+ZSC/cbv2dpBp6yKIrufhrP2vY2QtQLi4ahq2Nj46pXf8ZZO8zpe0NceErYpvrIHgEy7ZHR0d92l4Wwm+lVcAHAKXtGk8sVIDTC1Mg8Dm6K5CZXhidpBE8gmXu7X0davBVq9SSl3BWwdAb8yuy+LMFdNGllc7csKHUHRlURri4asi4Z/77SfXEN9db0/YaqIsu6K7c6R3/RvrzaXtNHeTLSqWADwBK1R2eTJoCnF6Y8gd8hu4IrLXhXCdpro9gUXzUdue8LvpYYKV+ToC+QGDcJBddZPHXfhoZmguRxV/bzgpESIin6at8G/5pgzq066C5UUtpVHMLJFaM4F2w9Bn/dnrXfwX93RVryB94BUqqgGU6KilbT8srQApwemG6G/AJ+oulF3aZpKMCIngEy22Y8Dq98KtXqoWnUXrhxIYEAOiiiwQACA92AeFi0iQqw97H9qgN9I7/wNYgbW8WPlpXc8kKLiIVirRNC/8e+vNpeyP6+t3JoYAPACZHP3mWBgXoGYG3URDwYboroNMLI5M6guWmEXwWdvbKOWrlb1N64eP6tFeSiy6y+Gs/NSO3/5DFX9u2LND7NjynNt75hHr213tjDWfpGAUj2DQuUZvhvs02Lfr76Fa/T9sbCuVfJ50CPgCYdF3mCScV4PTClEiokl44ed50bJvU82K5vqvtucfP0+mFewdmmZo1lqGLLhIAiAYiBl0O7qim7U0666phWA/BI1i2n8TTwn+Q/nza3lB8/zppFfABwKTtOk88qQDdEXg/PR9wQ1Z64eSEnrSTPJbEs20OBDi9cM+y3mTTNcdQAGB5x11jdKIACQAgHmQ/quGhXfG0vSY+UbzpfLQMwXI9BB/F0qLv0/ZGhff7k14BHwBM+i70DiQU0OmF6aOBqygQSGTlCZDRST1Rt+YQwXLlevGcXnj+aQvVavpooGthdw0PbZs+cYc2IAAALUOf/WvuxGVYp+3doHb+x85Y2t6kT/VqmLRjOq7HNtUZpVv9X/Vpe02K+rLJrIAPACZz73nuaQp000cDn6M7AhdREpbWEFjPAhDWdXlF7JuwYXrhwVevUh1zOmNNQu+6gcWfG5EMAEb2DyvO3GdK2xtzcOLApIsJx2UIFsXTO37e7h4eHvZpe20d4MsntQI+AJjU3efJZynA6YXpndunKRC4mAKBFskFo0jbOr3wS/spvfCg6pjVAb/jppUxS5rKeXdkUMU1EDly8Ijacf82teXezda0vRUSEztFalivbeJwlN7x30UL/1vIxtNJO/7YKzBVFPABwFTpSe9HqgKcXpg+EqikF04FT5wsw2LE6YX7z15OgcCAap05kV44izyw+LOpogOAseExteMBWvjv2qSOHDqSxTZ2HtEcwWo/HXShhf9HhPVpe2O94g+mqgI+AJiqPev9MirA6YXpRsDt9IxAZnphZIFBsEwMwTNWpxc+d0Ate/ly1UI/PpS6OSx00fpIAJD27p9/lW/3f+5Um76zUYVpe1E/o7yy9ou0TQv/Y/R3Cf0Y1cNZ7frzXoGpooAPAKZKT3o/IAVmzpz5YvpY4LOUQ+BkfgAvuSGLC9dF8Ag2abtzbqcaOG8ivTD9HHHNJrj4ay6G+wXsz9OUtnfDt9aroaeHKpTy+FkxYtkpyjYt+hspc59P22vR2RdPbQUMM8jUdth75xWIKsDphemjgZr0wsgCg2C5bQRvw3bOj6QXbolcxoIBQM27f7p18BSl7d1IaXsP7z4UlVXv27jXAEFNuD5i24SnhX872biCPuf3aXtZIL9NSwUiM8e09N877RXQCnB6Ybob8An668+7uKRJWrRtTi+8kr4xsOB5lF6Yr2YgAEBu/bNP0QBg76OUtpfe8Ydpe5M+F+1n1H4e2/RU/15a/P+QHgz9UtSm3/cKTEcFfAAwHXvd+2xVgNML0x2BSnphK3DiRJ7FKMs2n3e1P3sVpRd+7SrVt0ZnRXYxbbiZb68WLv62tL3Jmq68uR6CrRdPi/4+aufP6B3/x5Jc/bFXYLoq4AOA6drz3u9UBeiOwB/S3YC/pBTDs9OAyOKFYLnNevA6vfDrjlGzM9ILo+/+D2zfrzb/yyb11E93p8mhz9XDO9NoBIDYp4X/IP35tL0R/fyuVyBUwAcAoRL+1StgUIDTC1MgYEwvjCxEbFoSn7St0wv/r2NVryW9sGsAcHD3QbWJPuPnz/pdbxkkuRhkjRUheFcs3erntL230jv+a6ix8ViD/sAr4BXQCvgAwA8Er0C2Am10R+Bm+urgO6PphV0Xo9A8gkewbN+E5283LKD0wqvojsDMhTNDGk7r+NCeIbXlexvVLvpaH3+9z3Uz8UirWzSe7HHa3q8NDQ1dRu2OpLXtz3kFprsCPgCY7iPA+48o0E2BgE4vTItrxpfx42aLXuii1rNs6/TCL1mqBl+9WnXO4ayC9m3kwIjaxml779+qxo+MGwMLe21zIFIUPs1POjdOC/89tPBfRO3tS2vTn/MKeAUCBXwA4EeCVwBUYO7cuXMoYcyn6I6ATi/sUj1t8UrWR7Bc1xXP6YUXv3SpGnjVSp1eONouZ+zjtL2cs39seLRyytV2WAHBI1i2b8JTGaftvZsW/t8jiE/bG3aEf/UKOCjgAwAHkTzEK2BSgNML052AzPTCpoXLZC8sQ/AIlu0zXqcXftlySii0UvHHBDseDNL2jh6uLvwhNuTk8loPFxe7Ji7cFi38P6JzPm2vq4ge5xVIKOADgIQg/tArgCpAGQXX0N/t9LDgi3hBTW7IwohguR0En8TyjwzxNrLf/FF5Eq/BKf8heATLTUbxlLnPp+1N6Qd/yivgqkDtbOVa0+O8Al6BmAKcXpi+NvhZCgZODk9EF66wLO0VwSNYblMS3wjb9I5/I7VzOd3ufyBNQ3/OK+AVcFPABwBuOnmUV8BZAXpQ8Gz6waHP0DMCa5GFEcEyGQSPYFHbKB7lQu/4t9PX+nzaXhbab16BAhXwAUCBYnpTXoGoAnRH4HcoCPgE3RVYFi237SMLI4Ll9iTxUrY5bS89bOnT9toGjC/3CuRUwAcAOQX01b0CWQp0d3dfSc8H/DUFAtY8vVKLaMgNsY9g2T6Cd8HSwr+f3vXf4NP2hr3nX70CMgr4AEBGV2/VK1CjAN0R+AO6I/BXpvTCLgtjaBDBch1JfJG26TP+g7T4f5w+478u9NW/egW8AnIK+ABATltv2StgVIC+Pvh+CgJuoL8uBhS5iJoaROwjWJS7zTYt+sP0jt+n7TV1ni/zCggq4AMAQXG9aa9AigJtFAjcTB8NvJMeGGxPwdWcsi2kNUAqQLBcH8EjWJNtWvh92l4Wxm9egSYp4AOAJgnvm/UKTCjQTYHA5ygQuIgCgcz0wnkX3TTVG2Wb2hmnd/w+bW9aZ/hzXoEGKOADgAaI7JvwCjgoMJsCgVspEEhNL4ws0giW+SF4BBvapjpHaeG/mz76eMuBAweectDEQ7wCXgFBBXwAICiuN+0VQBWgIGAJ1fl7eljwlZRVMHZ91rPourYvaZtu9XPa3h9TGxfTA36bXDl5nFfAKyCrQGyCkW3KW/cKeAVcFeD0whQE3E7vlivphZFFGsEyJwSPYOl7/I/Ru/5L6PVhV989zivgFWiMAj4AaIzOvhWvQF0KcHrh1tbWz9JHA5X0wi6GkEUawXLbLnha9DfSO3+fttelszzGK9AkBXwA0CThfbNeAUSBrq6us+luwGcoEFibVc9lgY7aKBJPC/92ut3v0/ZGBfb7XoGSKuADgJJ2jKflFTApwOmF6Y7AJygQsKYXRhZ0BMt8bHha9PfS33voM/4vmnj7Mq+AV6B8CvgAoHx94hl5BTIV4PTCdEfgrykYiKUXti3QNoN58XSbfz99vu/T9toE9uVegRIr4AOAEneOp+YVyFKA0wvT3YC/okBgNmPzLuhp7UVt07v9g/Tn0/amCebPeQVKroAPAEreQZ6eV8BFAfr64PspkdAHKRCY6YJnTHRBd6nDeHrHP0wL/62HDx++huqMu9TzGK+AV6CcCvgAoJz94ll5BepRoI3uCHyE7gi8yyW9MBIA0KKv0/bSwn8ZERuph5yv4xXwCpRLAR8AlKs/PBuvQBEKdFMgwF8d5KyCxvTCros/4XTa3kOHDl1ExPYVQc7b8Ap4BcqhgA8AytEPnoVXQEKB2RQIfIoSCl1CSQVbog1kBQB0XqftpQDCp+2NCuf3vQJTSAEfAEyhzvSueAVMClAQMEABwJfpjsCZnF44bfGfWPj/g17fRLf7t5js+TKvgFdgaijgA4Cp0Y/eC69ApgL01cF+Wtj/mt7Vn0t/8+mvjSvRg32j9PcM/d1L8cGf0O3+HZnGPMAr4BWY9Ar8f10z8iokfAd5AAAAAElFTkSuQmCC;" parent="1" vertex="1">
          <mxGeometry x="-270" y="470" width="70" height="70" as="geometry" />
        </mxCell>
        <mxCell id="g8IDcojqgnYVjRbKk0xe-8" style="edgeStyle=orthogonalEdgeStyle;rounded=0;orthogonalLoop=1;jettySize=auto;html=1;exitX=1;exitY=0.5;exitDx=0;exitDy=0;entryX=0;entryY=0.5;entryDx=0;entryDy=0;dashed=1;flowAnimation=1;dashPattern=8 8;" parent="1" source="g8IDcojqgnYVjRbKk0xe-5" target="g8IDcojqgnYVjRbKk0xe-3" edge="1">
          <mxGeometry relative="1" as="geometry" />
        </mxCell>
        <mxCell id="g8IDcojqgnYVjRbKk0xe-5" value="院内工作站（HIS）" style="swimlane;whiteSpace=wrap;html=1;" parent="1" vertex="1">
          <mxGeometry x="-600" y="130" width="220" height="200" as="geometry">
            <mxRectangle x="-660" y="140" width="140" height="30" as="alternateBounds" />
          </mxGeometry>
        </mxCell>
        <mxCell id="g8IDcojqgnYVjRbKk0xe-2" value="" style="shape=image;verticalLabelPosition=bottom;verticalAlign=top;aspect=fixed;imageAspect=0;image=https://cdn-icons-gif.flaticon.com/14447/14447657.gif;textOpacity=30;" parent="g8IDcojqgnYVjRbKk0xe-5" vertex="1">
          <mxGeometry x="85" y="40" width="50" height="50" as="geometry" />
        </mxCell>
        <mxCell id="g8IDcojqgnYVjRbKk0xe-6" value="" style="shape=image;verticalLabelPosition=bottom;verticalAlign=top;aspect=fixed;imageAspect=0;image=https://cdn-icons-gif.flaticon.com/14447/14447657.gif;textOpacity=30;" parent="g8IDcojqgnYVjRbKk0xe-5" vertex="1">
          <mxGeometry x="20" y="120" width="50" height="50" as="geometry" />
        </mxCell>
        <mxCell id="g8IDcojqgnYVjRbKk0xe-7" value="" style="shape=image;verticalLabelPosition=bottom;verticalAlign=top;aspect=fixed;imageAspect=0;image=https://cdn-icons-gif.flaticon.com/14447/14447657.gif;textOpacity=30;" parent="g8IDcojqgnYVjRbKk0xe-5" vertex="1">
          <mxGeometry x="140" y="120" width="50" height="50" as="geometry" />
        </mxCell>
        <mxCell id="g8IDcojqgnYVjRbKk0xe-18" style="edgeStyle=orthogonalEdgeStyle;rounded=0;orthogonalLoop=1;jettySize=auto;html=1;exitX=1;exitY=0.5;exitDx=0;exitDy=0;entryX=0;entryY=0.5;entryDx=0;entryDy=0;flowAnimation=1;" parent="1" source="g8IDcojqgnYVjRbKk0xe-15" target="g8IDcojqgnYVjRbKk0xe-3" edge="1">
          <mxGeometry relative="1" as="geometry" />
        </mxCell>
        <mxCell id="g8IDcojqgnYVjRbKk0xe-15" value="院内助手端" style="swimlane;whiteSpace=wrap;html=1;" parent="1" vertex="1">
          <mxGeometry x="-590" y="420" width="210" height="170" as="geometry" />
        </mxCell>
        <mxCell id="g8IDcojqgnYVjRbKk0xe-14" value="" style="shape=image;verticalLabelPosition=bottom;labelBackgroundColor=default;verticalAlign=top;aspect=fixed;imageAspect=0;image=https://cdn-icons-gif.flaticon.com/19015/19015665.gif;" parent="g8IDcojqgnYVjRbKk0xe-15" vertex="1">
          <mxGeometry x="80" y="30" width="50" height="50" as="geometry" />
        </mxCell>
        <mxCell id="g8IDcojqgnYVjRbKk0xe-16" value="" style="shape=image;verticalLabelPosition=bottom;labelBackgroundColor=default;verticalAlign=top;aspect=fixed;imageAspect=0;image=https://cdn-icons-gif.flaticon.com/19015/19015665.gif;" parent="g8IDcojqgnYVjRbKk0xe-15" vertex="1">
          <mxGeometry x="20" y="100" width="50" height="50" as="geometry" />
        </mxCell>
        <mxCell id="g8IDcojqgnYVjRbKk0xe-17" value="" style="shape=image;verticalLabelPosition=bottom;labelBackgroundColor=default;verticalAlign=top;aspect=fixed;imageAspect=0;image=https://cdn-icons-gif.flaticon.com/19015/19015665.gif;" parent="g8IDcojqgnYVjRbKk0xe-15" vertex="1">
          <mxGeometry x="140" y="100" width="50" height="50" as="geometry" />
        </mxCell>
        <mxCell id="g8IDcojqgnYVjRbKk0xe-23" style="edgeStyle=orthogonalEdgeStyle;rounded=0;orthogonalLoop=1;jettySize=auto;html=1;exitX=1;exitY=0.5;exitDx=0;exitDy=0;entryX=0;entryY=0.5;entryDx=0;entryDy=0;flowAnimation=1;" parent="1" source="g8IDcojqgnYVjRbKk0xe-20" target="g8IDcojqgnYVjRbKk0xe-3" edge="1">
          <mxGeometry relative="1" as="geometry" />
        </mxCell>
        <mxCell id="g8IDcojqgnYVjRbKk0xe-20" value="管理端（web）" style="swimlane;whiteSpace=wrap;html=1;" parent="1" vertex="1">
          <mxGeometry x="-590" y="640" width="210" height="200" as="geometry" />
        </mxCell>
        <mxCell id="g8IDcojqgnYVjRbKk0xe-19" value="" style="shape=image;verticalLabelPosition=bottom;labelBackgroundColor=default;verticalAlign=top;aspect=fixed;imageAspect=0;image=https://cdn-icons-gif.flaticon.com/14183/14183484.gif;" parent="g8IDcojqgnYVjRbKk0xe-20" vertex="1">
          <mxGeometry x="75" y="35" width="60" height="60" as="geometry" />
        </mxCell>
        <mxCell id="g8IDcojqgnYVjRbKk0xe-21" value="" style="shape=image;verticalLabelPosition=bottom;labelBackgroundColor=default;verticalAlign=top;aspect=fixed;imageAspect=0;image=https://cdn-icons-gif.flaticon.com/14183/14183484.gif;" parent="g8IDcojqgnYVjRbKk0xe-20" vertex="1">
          <mxGeometry x="20" y="125" width="60" height="60" as="geometry" />
        </mxCell>
        <mxCell id="g8IDcojqgnYVjRbKk0xe-22" value="" style="shape=image;verticalLabelPosition=bottom;labelBackgroundColor=default;verticalAlign=top;aspect=fixed;imageAspect=0;image=https://cdn-icons-gif.flaticon.com/14183/14183484.gif;" parent="g8IDcojqgnYVjRbKk0xe-20" vertex="1">
          <mxGeometry x="135" y="125" width="60" height="60" as="geometry" />
        </mxCell>
        <mxCell id="Fx2AZmH5evgSTG1EavA_-37" style="edgeStyle=orthogonalEdgeStyle;rounded=0;orthogonalLoop=1;jettySize=auto;html=1;exitX=1;exitY=0.5;exitDx=0;exitDy=0;entryX=0;entryY=0.5;entryDx=0;entryDy=0;flowAnimation=1;" edge="1" parent="1" source="g8IDcojqgnYVjRbKk0xe-24" target="Fx2AZmH5evgSTG1EavA_-36">
          <mxGeometry relative="1" as="geometry" />
        </mxCell>
        <mxCell id="g8IDcojqgnYVjRbKk0xe-24" value="网关" style="swimlane;whiteSpace=wrap;html=1;" parent="1" vertex="1">
          <mxGeometry x="-140" y="395" width="200" height="220" as="geometry">
            <mxRectangle x="-100" y="395" width="60" height="30" as="alternateBounds" />
          </mxGeometry>
        </mxCell>
        <mxCell id="P0uEnLT0tcXrdcJD_U2h-15" value="Gateway" style="rounded=1;whiteSpace=wrap;html=1;fillColor=#1ba1e2;fontColor=#ffffff;strokeColor=#006EAF;" parent="g8IDcojqgnYVjRbKk0xe-24" vertex="1">
          <mxGeometry x="50" y="40" width="100" height="40" as="geometry" />
        </mxCell>
        <mxCell id="P0uEnLT0tcXrdcJD_U2h-16" value="Gateway" style="rounded=1;whiteSpace=wrap;html=1;fillColor=#1ba1e2;fontColor=#ffffff;strokeColor=#006EAF;" parent="g8IDcojqgnYVjRbKk0xe-24" vertex="1">
          <mxGeometry x="50" y="100" width="100" height="40" as="geometry" />
        </mxCell>
        <mxCell id="P0uEnLT0tcXrdcJD_U2h-17" value="Gateway" style="rounded=1;whiteSpace=wrap;html=1;fillColor=#1ba1e2;fontColor=#ffffff;strokeColor=#006EAF;" parent="g8IDcojqgnYVjRbKk0xe-24" vertex="1">
          <mxGeometry x="50" y="160" width="100" height="40" as="geometry" />
        </mxCell>
        <mxCell id="g8IDcojqgnYVjRbKk0xe-33" value="服务注册中心" style="swimlane;whiteSpace=wrap;html=1;" parent="1" vertex="1">
          <mxGeometry x="100" width="299" height="200" as="geometry" />
        </mxCell>
        <mxCell id="P0uEnLT0tcXrdcJD_U2h-7" style="rounded=0;orthogonalLoop=1;jettySize=auto;html=1;exitX=0.75;exitY=1;exitDx=0;exitDy=0;entryX=0.5;entryY=0;entryDx=0;entryDy=0;startArrow=blockThin;startFill=1;" parent="g8IDcojqgnYVjRbKk0xe-33" source="P0uEnLT0tcXrdcJD_U2h-2" target="P0uEnLT0tcXrdcJD_U2h-3" edge="1">
          <mxGeometry relative="1" as="geometry" />
        </mxCell>
        <mxCell id="P0uEnLT0tcXrdcJD_U2h-2" value="Nacos" style="rounded=1;whiteSpace=wrap;html=1;fillColor=#1ba1e2;strokeColor=#006EAF;fontColor=#ffffff;" parent="g8IDcojqgnYVjRbKk0xe-33" vertex="1">
          <mxGeometry x="119" y="60" width="70" height="30" as="geometry" />
        </mxCell>
        <mxCell id="P0uEnLT0tcXrdcJD_U2h-3" value="Nacos" style="rounded=1;whiteSpace=wrap;html=1;fillColor=#1ba1e2;strokeColor=#006EAF;fontColor=#ffffff;" parent="g8IDcojqgnYVjRbKk0xe-33" vertex="1">
          <mxGeometry x="189" y="130" width="70" height="30" as="geometry" />
        </mxCell>
        <mxCell id="P0uEnLT0tcXrdcJD_U2h-8" style="edgeStyle=orthogonalEdgeStyle;rounded=0;orthogonalLoop=1;jettySize=auto;html=1;exitX=1;exitY=0.5;exitDx=0;exitDy=0;entryX=0;entryY=0.5;entryDx=0;entryDy=0;startArrow=block;startFill=1;" parent="g8IDcojqgnYVjRbKk0xe-33" source="P0uEnLT0tcXrdcJD_U2h-4" target="P0uEnLT0tcXrdcJD_U2h-3" edge="1">
          <mxGeometry relative="1" as="geometry" />
        </mxCell>
        <mxCell id="P0uEnLT0tcXrdcJD_U2h-4" value="Nacos" style="rounded=1;whiteSpace=wrap;html=1;fillColor=#1ba1e2;strokeColor=#006EAF;fontColor=#ffffff;" parent="g8IDcojqgnYVjRbKk0xe-33" vertex="1">
          <mxGeometry x="49" y="130" width="70" height="30" as="geometry" />
        </mxCell>
        <mxCell id="P0uEnLT0tcXrdcJD_U2h-5" value="" style="endArrow=classic;startArrow=classic;html=1;rounded=0;entryX=0.25;entryY=1;entryDx=0;entryDy=0;exitX=0.5;exitY=0;exitDx=0;exitDy=0;" parent="g8IDcojqgnYVjRbKk0xe-33" source="P0uEnLT0tcXrdcJD_U2h-4" target="P0uEnLT0tcXrdcJD_U2h-2" edge="1">
          <mxGeometry width="50" height="50" relative="1" as="geometry">
            <mxPoint x="79" y="150" as="sourcePoint" />
            <mxPoint x="129" y="100" as="targetPoint" />
          </mxGeometry>
        </mxCell>
        <mxCell id="Fx2AZmH5evgSTG1EavA_-25" style="edgeStyle=orthogonalEdgeStyle;rounded=0;orthogonalLoop=1;jettySize=auto;html=1;exitX=0.75;exitY=0;exitDx=0;exitDy=0;entryX=0.75;entryY=1;entryDx=0;entryDy=0;flowAnimation=1;" edge="1" parent="1" source="Fx2AZmH5evgSTG1EavA_-22" target="Fx2AZmH5evgSTG1EavA_-9">
          <mxGeometry relative="1" as="geometry">
            <mxPoint x="880" y="620" as="targetPoint" />
          </mxGeometry>
        </mxCell>
        <mxCell id="Fx2AZmH5evgSTG1EavA_-22" value="MQ" style="rounded=1;whiteSpace=wrap;html=1;fillColor=#d5e8d4;strokeColor=#82b366;" vertex="1" parent="1">
          <mxGeometry x="1400" y="890" width="100" height="60" as="geometry" />
        </mxCell>
        <mxCell id="Fx2AZmH5evgSTG1EavA_-23" style="edgeStyle=orthogonalEdgeStyle;rounded=0;orthogonalLoop=1;jettySize=auto;html=1;exitX=1;exitY=0.25;exitDx=0;exitDy=0;entryX=0;entryY=0.25;entryDx=0;entryDy=0;flowAnimation=1;" edge="1" parent="1" source="Fx2AZmH5evgSTG1EavA_-19" target="Fx2AZmH5evgSTG1EavA_-22">
          <mxGeometry relative="1" as="geometry" />
        </mxCell>
        <mxCell id="Fx2AZmH5evgSTG1EavA_-27" style="edgeStyle=orthogonalEdgeStyle;rounded=0;orthogonalLoop=1;jettySize=auto;html=1;exitX=0.25;exitY=1;exitDx=0;exitDy=0;entryX=0;entryY=0.75;entryDx=0;entryDy=0;flowAnimation=1;" edge="1" parent="1" source="Fx2AZmH5evgSTG1EavA_-19" target="g8IDcojqgnYVjRbKk0xe-15">
          <mxGeometry relative="1" as="geometry">
            <Array as="points">
              <mxPoint x="980" y="1070" />
              <mxPoint x="-690" y="1070" />
              <mxPoint x="-690" y="548" />
            </Array>
          </mxGeometry>
        </mxCell>
        <mxCell id="Fx2AZmH5evgSTG1EavA_-28" value="日志监控" style="swimlane;whiteSpace=wrap;html=1;" vertex="1" parent="1">
          <mxGeometry x="1040" y="-45" width="500" height="245" as="geometry" />
        </mxCell>
        <mxCell id="Fx2AZmH5evgSTG1EavA_-29" value="Grafana" style="rounded=1;whiteSpace=wrap;html=1;fillColor=#60a917;fontColor=#ffffff;strokeColor=#2D7600;" vertex="1" parent="Fx2AZmH5evgSTG1EavA_-28">
          <mxGeometry x="200" y="55" width="100" height="40" as="geometry" />
        </mxCell>
        <mxCell id="Fx2AZmH5evgSTG1EavA_-39" style="edgeStyle=orthogonalEdgeStyle;rounded=0;orthogonalLoop=1;jettySize=auto;html=1;exitX=0.5;exitY=0;exitDx=0;exitDy=0;entryX=1;entryY=0.5;entryDx=0;entryDy=0;flowAnimation=1;" edge="1" parent="Fx2AZmH5evgSTG1EavA_-28" source="Fx2AZmH5evgSTG1EavA_-31" target="Fx2AZmH5evgSTG1EavA_-29">
          <mxGeometry relative="1" as="geometry" />
        </mxCell>
        <mxCell id="Fx2AZmH5evgSTG1EavA_-31" value="Loki" style="rounded=1;whiteSpace=wrap;html=1;fillColor=#60a917;fontColor=#ffffff;strokeColor=#2D7600;" vertex="1" parent="Fx2AZmH5evgSTG1EavA_-28">
          <mxGeometry x="350" y="165" width="100" height="40" as="geometry" />
        </mxCell>
        <mxCell id="Fx2AZmH5evgSTG1EavA_-38" style="edgeStyle=orthogonalEdgeStyle;rounded=0;orthogonalLoop=1;jettySize=auto;html=1;exitX=1;exitY=0.5;exitDx=0;exitDy=0;entryX=0;entryY=0.5;entryDx=0;entryDy=0;flowAnimation=1;" edge="1" parent="Fx2AZmH5evgSTG1EavA_-28" source="Fx2AZmH5evgSTG1EavA_-30" target="Fx2AZmH5evgSTG1EavA_-31">
          <mxGeometry relative="1" as="geometry" />
        </mxCell>
        <mxCell id="Fx2AZmH5evgSTG1EavA_-30" value="Promatail" style="rounded=1;whiteSpace=wrap;html=1;fillColor=#60a917;fontColor=#ffffff;strokeColor=#2D7600;" vertex="1" parent="Fx2AZmH5evgSTG1EavA_-28">
          <mxGeometry x="90" y="165" width="100" height="40" as="geometry" />
        </mxCell>
        <mxCell id="Fx2AZmH5evgSTG1EavA_-36" value="认证授权服务" style="shape=image;verticalLabelPosition=bottom;labelBackgroundColor=default;verticalAlign=top;aspect=fixed;imageAspect=0;image=https://cdn-icons-gif.flaticon.com/19014/19014137.gif;" vertex="1" parent="1">
          <mxGeometry x="120" y="445" width="120" height="120" as="geometry" />
        </mxCell>
      </root>
    </mxGraphModel>
  </diagram>
</mxfile>
